<svg width="37" height="25" viewBox="0 0 37 25" fill="none" xmlns="http://www.w3.org/2000/svg">
<path d="M14.6344 5.42516C14.3806 5.41112 14.1261 5.41112 13.8722 5.42516C12.2123 5.56761 10.6299 6.1909 9.31876 7.21876C8.00761 8.24662 7.02458 9.63446 6.48998 11.2124C5.11496 11.249 3.78783 11.7252 2.70317 12.571C1.6185 13.4169 0.833343 14.588 0.462806 15.9127C0.136201 16.9079 0.0473249 17.9658 0.203273 19.0016C0.35922 20.0373 0.755665 21.0221 1.36083 21.8771C1.966 22.732 2.76304 23.4332 3.68808 23.9246C4.61312 24.4159 5.64041 24.6837 6.68759 24.7065H21.325C22.8746 24.6842 24.378 24.1749 25.622 23.2506C26.866 22.3263 27.7875 21.0339 28.256 19.5565C28.7245 18.0792 28.7162 16.492 28.2322 15.0197C27.7482 13.5474 26.8132 12.2647 25.5595 11.3535C24.6142 10.7291 23.5366 10.3328 22.4119 10.1961C21.6709 8.75727 20.5508 7.54837 19.1726 6.70003C17.7943 5.8517 16.2104 5.3962 14.5921 5.38281M8.01442 13.3014L8.22614 12.5109C8.54062 11.1754 9.26746 9.97276 10.3036 9.07339C11.3398 8.17402 12.6328 7.62358 13.9993 7.50009H14.6768C17.7539 7.50009 19.7865 9.43384 21.0568 12.2004C22.2367 12.1642 23.4008 12.4786 24.4021 13.1038C25.0713 13.5866 25.6144 14.2235 25.9854 14.9606C26.3564 15.6976 26.5444 16.5132 26.5335 17.3383C26.5655 18.0371 26.4517 18.7348 26.1993 19.3871C25.9469 20.0394 25.5615 20.632 25.0676 21.1273C24.5737 21.6225 23.9821 22.0095 23.3305 22.2636C22.6789 22.5177 21.9814 22.6334 21.2827 22.6033H6.68759C5.95969 22.5872 5.246 22.3986 4.60517 22.053C3.96434 21.7074 3.41467 21.2147 3.00132 20.6153C2.58797 20.016 2.32273 19.3271 2.22742 18.6053C2.1321 17.8834 2.20943 17.1493 2.45305 16.4632C3.20115 13.8519 5.19138 13.2873 7.60507 13.2873H8.04266M21.8331 11.5088C21.3792 11.3418 20.9872 11.04 20.7097 10.6439C20.4322 10.2478 20.2824 9.77634 20.2805 9.29269C20.9019 9.9529 21.4248 10.6993 21.8331 11.5088Z" fill="white"/>
<path d="M27.8038 0.554688H27.2957C26.2277 0.637773 25.2053 1.02298 24.348 1.66532C23.4908 2.30765 22.8339 3.18063 22.4542 4.18229C21.3234 4.29233 20.2801 4.83929 19.5464 5.70675C20.1757 5.99765 20.768 6.36249 21.3108 6.7936C21.9505 6.3655 22.7182 6.17105 23.4846 6.24309H24.0068C24.515 4.37989 25.2349 2.81311 27.465 2.62962H27.8744C29.7658 2.62962 30.8103 3.89999 31.5584 5.55146C32.3035 5.50687 33.0451 5.68369 33.6898 6.05963C34.1806 6.42148 34.5445 6.92912 34.7297 7.51009C34.9148 8.09106 34.9117 8.71564 34.7207 9.29473C34.5298 9.87381 34.1608 10.3778 33.6664 10.7347C33.172 11.0916 32.5775 11.2832 31.9678 11.2822H27.3239C28.0363 11.8519 28.6226 12.5633 29.0459 13.3713H31.9678C33.0163 13.355 34.033 13.0084 34.873 12.3807C35.7131 11.7531 36.3337 10.8763 36.6465 9.87539C36.9593 8.87448 36.9483 7.80041 36.6151 6.8061C36.2819 5.81178 35.6435 4.94795 34.7908 4.33758C34.209 3.9465 33.5492 3.68643 32.857 3.57535C32.3471 2.66623 31.6059 1.90803 30.7086 1.37757C29.8113 0.847112 28.7897 0.56323 27.7473 0.554688" fill="white"/>
</svg>
