<?xml version="1.0" encoding="UTF-8"?><svg id="Layer_2" xmlns="http://www.w3.org/2000/svg" viewBox="0 0 1275.35 238.21"><defs><style>.cls-1{fill:#fff;}.cls-1,.cls-2{stroke-width:0px;}.cls-2{fill:#0077c8;}</style></defs><g id="Layer_1-2"><path class="cls-2" d="m343.31,18.44l-11.41,11.28c-4.93-4.93-10.5-6.35-18.93-6.35-9.59,0-14.26,5.31-14.26,11.67,0,2.46.78,4.8,2.72,6.61,1.81,1.68,4.54,2.98,8.43,3.5l11.02,1.69c8.43,1.17,13.61,3.37,17.63,7.26,4.93,4.67,7.13,11.15,7.13,19.45,0,17.89-14.78,28-34.22,28-14,0-24.63-2.98-33.71-12.19l11.67-11.67c5.83,5.83,13.74,7.78,22.17,7.78,10.76,0,16.46-4.15,16.46-11.54,0-3.11-.91-5.7-2.85-7.65-1.82-1.69-3.89-2.46-8.3-3.11l-11.02-1.69c-7.78-1.17-13.74-3.63-17.89-7.65-4.41-4.28-6.61-10.37-6.61-18.15,0-16.46,12.19-28,32.15-28,12.71,0,21.91,3.11,29.82,10.76Z"/><path class="cls-2" d="m442.74,100.76h-18.02v-53.67l-17.63,32.8h-12.19l-17.76-32.8v53.67h-18.02V8.46h17.76l24.11,47.84,23.98-47.84h17.76v92.3Z"/><path class="cls-2" d="m478.77,100.76h-18.02V8.46h18.02v92.3Z"/><path class="cls-2" d="m556.29,24.53h-24.11v76.23h-18.02V24.53h-24.11V8.46h66.25v16.07Z"/><path class="cls-2" d="m634.85,100.76h-18.02v-38.63h-31.37v38.63h-18.02V8.46h18.02v37.59h31.37V8.46h18.02v92.3Z"/><path class="cls-2" d="m710.16,18.44l-11.41,11.28c-4.93-4.93-10.5-6.35-18.93-6.35-9.59,0-14.26,5.31-14.26,11.67,0,2.46.78,4.8,2.72,6.61,1.81,1.68,4.54,2.98,8.43,3.5l11.02,1.69c8.43,1.17,13.61,3.37,17.63,7.26,4.93,4.67,7.13,11.15,7.13,19.45,0,17.89-14.78,28-34.22,28-14,0-24.63-2.98-33.71-12.19l11.67-11.67c5.83,5.83,13.74,7.78,22.17,7.78,10.76,0,16.46-4.15,16.46-11.54,0-3.11-.91-5.7-2.85-7.65-1.82-1.69-3.89-2.46-8.3-3.11l-11.02-1.69c-7.78-1.17-13.74-3.63-17.89-7.65-4.41-4.28-6.61-10.37-6.61-18.15,0-16.46,12.19-28,32.15-28,12.71,0,21.91,3.11,29.82,10.76Z"/><path class="cls-2" d="m770.57,84.68h41.87v16.08h-59.89V8.46h18.02v76.23Z"/><path class="cls-2" d="m884.39,24.53h-42.78v21.65h36.56v16.08h-36.56v22.43h42.78v16.08h-60.8V8.46h60.8v16.07Z"/><path class="cls-2" d="m969.81,100.76h-18.93l-5.44-16.33h-32.67l-5.58,16.33h-18.93l33.71-92.3h14.13l33.71,92.3Zm-52.12-31.5h22.69l-11.28-33.45-11.41,33.45Z"/><path class="cls-2" d="m1010.9,8.46c12.58,0,21.52,4.67,27.87,13.48,5.7,7.91,5.83,17.37,5.83,32.67s-.13,24.76-5.83,32.67c-6.35,8.81-15.3,13.48-27.87,13.48h-33.32V8.46h33.32Zm-15.3,16.07v60.15h13.74c6.09,0,10.5-1.94,13.48-5.7,3.37-4.02,3.76-9.72,3.76-24.37s-.39-20.35-3.76-24.37c-2.98-3.76-7.39-5.71-13.48-5.71h-13.74Z"/><path class="cls-2" d="m1120.31,24.53h-42.78v21.65h36.56v16.08h-36.56v22.43h42.78v16.08h-60.8V8.46h60.8v16.07Z"/><path class="cls-2" d="m1170.61,8.46c18.93,0,29.95,12.83,29.95,28.26,0,12.96-7.91,21.13-16.85,24.24l20.61,39.8h-20.87l-18.02-36.82h-12.96v36.82h-18.02V8.46h36.17Zm-18.15,16.07v24.24h17.11c7.91,0,12.96-4.93,12.96-12.19s-5.06-12.06-12.96-12.06h-17.11Z"/><path class="cls-2" d="m1273.02,18.44l-11.41,11.28c-4.93-4.93-10.5-6.35-18.93-6.35-9.59,0-14.26,5.31-14.26,11.67,0,2.46.78,4.8,2.72,6.61,1.82,1.68,4.54,2.98,8.43,3.5l11.02,1.69c8.43,1.17,13.61,3.37,17.63,7.26,4.93,4.67,7.13,11.15,7.13,19.45,0,17.89-14.78,28-34.22,28-14,0-24.63-2.98-33.71-12.19l11.67-11.67c5.83,5.83,13.74,7.78,22.17,7.78,10.76,0,16.46-4.15,16.46-11.54,0-3.11-.91-5.7-2.85-7.65-1.82-1.69-3.89-2.46-8.3-3.11l-11.02-1.69c-7.78-1.17-13.74-3.63-17.89-7.65-4.41-4.28-6.61-10.37-6.61-18.15,0-16.46,12.19-28,32.15-28,12.71,0,21.91,3.11,29.82,10.76Z"/><path class="cls-2" d="m323.48,132.46c15.3,0,26.71,8.95,26.71,24.11,0,9.72-5.45,17.76-14.39,20.74,9.98,3.5,15.82,11.54,15.82,22.3,0,16.46-10.89,25.15-27.09,25.15h-35v-92.3h33.97Zm-26.96,6.22v35.78h26.19c11.15,0,20.48-5.19,20.48-17.89s-9.33-17.89-20.48-17.89h-26.19Zm0,42v37.85h27.22c12.58,0,20.87-7,20.87-18.93s-8.3-18.93-20.87-18.93h-27.22Z"/><path class="cls-2" d="m383.88,218.54h49v6.22h-56v-92.3h7v86.08Z"/><path class="cls-2" d="m501.85,140.5c8.56,8.56,9.2,15.69,9.2,38.11s-.65,29.56-9.2,38.11c-5.44,5.45-13.22,8.82-22.43,8.82s-16.98-3.37-22.43-8.82c-8.56-8.56-9.21-15.69-9.21-38.11s.65-29.56,9.21-38.11c5.44-5.44,13.22-8.82,22.43-8.82s16.98,3.37,22.43,8.82Zm-39.93,4.54c-6.61,6.61-7.13,14.13-7.13,33.58s.52,26.96,7.13,33.58c4.8,4.8,10.76,7.13,17.5,7.13s12.7-2.33,17.5-7.13c6.61-6.61,7.13-14.13,7.13-33.58s-.52-26.96-7.13-33.58c-4.8-4.8-10.76-7.13-17.5-7.13s-12.71,2.33-17.5,7.13Z"/><path class="cls-2" d="m595.83,158.65h-7c-2.72-12.83-12.06-20.74-24.5-20.74-6.74,0-12.7,2.33-17.5,7.13-6.61,6.61-7.13,14.13-7.13,33.58s.52,26.96,7.13,33.58c4.8,4.8,10.76,7.13,17.5,7.13,7.26,0,14.39-3.11,19.19-8.95,4.02-5.06,5.57-10.37,5.57-18.28v-8.3h-24.76v-6.22h31.76v15.04c0,9.72-2.07,16.21-7.52,22.3-5.96,6.61-14.91,10.63-24.24,10.63s-16.98-3.37-22.43-8.82c-8.56-8.56-9.2-15.69-9.2-38.11s.65-29.56,9.2-38.11c5.44-5.44,13.22-8.82,22.43-8.82,16.08,0,28.78,10.76,31.5,26.96Z"/><circle class="cls-2" cx="119.1" cy="119.1" r="119.1"/><path class="cls-1" d="m170.65,114.12c-1.08,0-2.11.43-2.87,1.19-.76.76-1.19,1.79-1.2,2.87v29.32c0,1.78-1.33,3.07-3.13,3.07h-78.6c-.96,0-1.88.32-2.62.93l-19.35,16.02c-.09.09-.18.18-.27.27-.3.3-.39.22-.64.12-.25-.1-.36-.12-.36-.54v-82.58c0-1.78,1.3-3.1,3.1-3.1h71.5c1.08,0,2.11-.43,2.87-1.19.76-.76,1.19-1.79,1.19-2.87,0-1.08-.42-2.12-1.18-2.89-.76-.77-1.8-1.2-2.88-1.21h-71.5c-6.17,0-11.25,5.09-11.25,11.25v82.6c0,3.71,2.4,6.81,5.38,8.04,2.98,1.24,6.85.74,9.49-1.87l17.97-14.84h77.16c6.16,0,11.29-5.06,11.29-11.23v-29.32c0-1.08-.44-2.12-1.21-2.88-.77-.76-1.81-1.19-2.89-1.18Z"/><path class="cls-1" d="m76.93,124.24c-1.09,0-2.13.43-2.9,1.19-.77.77-1.2,1.81-1.19,2.9,0,1.08.44,2.12,1.21,2.88.77.76,1.81,1.19,2.89,1.18h29.47c1.08,0,2.12-.42,2.89-1.18.77-.76,1.2-1.8,1.21-2.88,0-1.09-.43-2.13-1.19-2.9-.77-.77-1.81-1.2-2.9-1.19h-29.47Z"/><path class="cls-1" d="m147.9,125.06l38.48-38.35c2.74-2.73,4.25-6.38,4.25-10.28s-1.46-7.35-4.1-9.98c-2.66-2.66-6.22-4.11-10.03-4.11h-.13c-3.86.03-7.47,1.53-10.17,4.23l-38.51,38.36c-.43.43-.75.98-.92,1.58l-5.81,20.86c-.23.82-.16,1.69.2,2.46.36.77.97,1.39,1.74,1.75.77.36,1.65.44,2.46.22l20.95-5.81c.6-.17,1.14-.48,1.58-.92Zm23.36-53.4c1.41-1.41,3.24-2.2,5.14-2.22h0c1.92.1,3.69.73,5.06,2.09,1.34,1.34,2.08,3.08,2.08,4.92s-.79,3.74-2.24,5.17l-2.19,2.18-10.01-10,2.14-2.14Zm-41.68,51.54l3.87-13.85.28-.27,31.69-31.59,10.01,10.01-31.88,31.78-13.96,3.92Z"/><path class="cls-1" d="m115.7,106.85c.77-.76,1.2-1.8,1.2-2.88,0-1.09-.43-2.13-1.19-2.9-.77-.77-1.81-1.2-2.9-1.19h-36.79c-1.08,0-2.12.44-2.88,1.21-.76.77-1.19,1.81-1.18,2.89,0,1.08.43,2.11,1.19,2.87.76.76,1.79,1.19,2.87,1.19h36.79c1.08,0,2.12-.42,2.89-1.18Z"/></g></svg>