<svg width="85" height="85" viewBox="0 0 85 85" fill="none" xmlns="http://www.w3.org/2000/svg">
<circle cx="42.5" cy="42.5" r="42.5" transform="rotate(90 42.5 42.5)" fill="#0077C8"/>
<g clip-path="url(#clip0_213_4425)">
<path d="M33.7814 40.8601C34.2199 40.8601 34.5772 40.4955 34.5772 40.048V39.4679C34.5772 39.0204 34.2199 38.6557 33.7814 38.6557C33.3429 38.6557 32.9856 39.0204 32.9856 39.4679V40.048C32.9856 40.4955 33.3429 40.8601 33.7814 40.8601Z" fill="white"/>
<path d="M45.4583 32.5563H46.0104C46.4489 32.5563 46.8062 32.1916 46.8062 31.7441C46.8062 31.2966 46.4489 30.932 46.0104 30.932H45.4583C45.0198 30.932 44.6625 31.2966 44.6625 31.7441C44.6625 32.1916 45.0198 32.5563 45.4583 32.5563Z" fill="white"/>
<path d="M55.2188 42.9817C54.7803 42.9817 54.423 43.3463 54.423 43.7938V44.374C54.423 44.8215 54.7803 45.1861 55.2188 45.1861C55.6573 45.1861 56.0145 44.8215 56.0145 44.374V43.7938C56.0145 43.3463 55.6573 42.9817 55.2188 42.9817Z" fill="white"/>
<path d="M66.376 58.3463C66.2786 58.4955 66.1649 58.5618 66.0025 58.5949C64.7682 58.827 64.1998 56.4734 64.1348 56.1916C64.0049 54.932 63.9399 54.2524 63.2253 54.2856C62.5108 54.3187 62.5108 54.932 62.5108 56.2911V62.7717C62.5108 63.0867 62.3808 63.385 62.1535 63.5839C61.9423 63.7828 61.6663 63.8657 61.3739 63.8159C60.8867 63.7496 60.5132 63.2524 60.5132 62.6889V56.2414C60.4807 55.5121 60.432 54.8822 59.7661 54.8988C59.1003 54.9154 59.1003 55.4955 59.1003 56.2911V64.9762C59.1003 65.2911 58.9703 65.5894 58.743 65.7883C58.5318 65.9872 58.2558 66.0701 57.9634 66.0369C57.4762 65.9706 57.1027 65.4734 57.1027 64.9099V56.2579C57.0702 55.5286 57.0377 54.9154 56.3881 54.9154C56.3881 54.9154 56.3719 54.9154 56.3556 54.9154C55.6898 54.932 55.6898 55.5121 55.6898 56.3077V63.0535C55.6898 63.3684 55.5598 63.6668 55.3325 63.8657C55.1213 64.0646 54.8452 64.1474 54.5529 64.0977C54.0657 64.0314 53.6922 63.5342 53.6922 62.9706V56.2579C53.6597 55.5286 53.6272 54.8988 52.9451 54.9154C52.2793 54.932 52.2793 55.5121 52.2793 56.3077V60.6833C52.2793 61.2469 51.8895 61.7441 51.4185 61.8104C51.1424 61.8436 50.8663 61.7607 50.639 61.5784C50.4116 61.3795 50.2817 61.0811 50.2817 60.7662V49.4458C50.2817 48.617 50.8338 47.2911 51.8083 45.8159C52.3117 45.0535 52.5716 44.1751 52.5716 43.2469V38.3408H54.4555V41.2082C54.4555 41.6557 54.8128 42.0204 55.2513 42.0204C55.6898 42.0204 56.047 41.6557 56.047 41.2082V38.3408H61.2765V43.9762C61.2765 44.7552 62.1372 45.385 62.9655 46.0148C63.1929 46.1972 63.4852 46.4126 63.5664 46.5121C64.5083 47.5728 65.1742 48.7828 65.4665 49.9099C65.564 50.2911 65.6289 50.5894 65.6939 50.838C65.9538 51.8657 66.035 52.1806 66.2786 53.6889C66.2948 53.8049 66.3273 53.9541 66.3598 54.1198C66.5384 55.1309 66.9769 57.4845 66.3922 58.3463M43.5581 58.4789C42.8598 58.4789 42.3238 59.1751 41.593 60.2524C41.4306 60.501 41.2195 60.7994 41.122 60.8988C40.1151 61.8767 38.962 62.5894 37.8902 62.8712C37.5329 62.9706 37.2406 63.0535 36.9969 63.1198C36.0063 63.4016 35.7139 63.4845 34.2848 63.7331C34.1711 63.7496 34.0249 63.7828 33.8625 63.8159C32.9206 64.0148 30.7119 64.4623 29.8836 63.8822C29.7374 63.7828 29.6562 63.6502 29.6238 63.4513C29.3964 62.1419 31.6213 61.5286 31.8974 61.4623C33.0992 61.3298 33.7651 61.2469 33.7164 60.5176C33.6839 59.7883 33.0505 59.7883 31.7837 59.7883H25.6124C25.3363 59.7883 25.0602 59.6557 24.8815 59.4403C24.6704 59.2082 24.5892 58.8933 24.6217 58.5618C24.6866 58.0314 25.1414 57.6502 25.6773 57.6502H31.8325C32.5633 57.6005 33.1479 57.5839 33.1317 56.8878C33.1155 56.2082 32.4983 56.2082 31.8 56.2082H23.4849C23.2088 56.2082 22.9327 56.0756 22.754 55.8601C22.5429 55.6281 22.4617 55.3132 22.4942 54.9817C22.5591 54.4513 23.0139 54.0701 23.5498 54.0701H31.8C32.5308 54.0204 33.1155 54.0038 33.0992 53.3077C33.083 52.6281 32.4658 52.6281 31.7675 52.6281H25.3363C25.0602 52.6281 24.7841 52.4955 24.6054 52.28C24.3943 52.048 24.3131 51.7331 24.3456 51.4016C24.4106 50.8712 24.8653 50.49 25.4012 50.49H31.8162C32.547 50.4403 33.1317 50.4237 33.1155 49.7275C33.0992 49.048 32.4821 49.048 31.7837 49.048H27.6099C27.074 49.048 26.6193 48.6502 26.5543 48.1364C26.5218 47.8215 26.603 47.5065 26.8142 47.2745C27.009 47.059 27.2689 46.9264 27.545 46.9264H38.3449C39.1245 46.9264 40.3912 47.5065 41.7879 48.5342C42.5187 49.0646 43.3795 49.3463 44.2564 49.3463H48.9175V51.3684H46.2053C45.7668 51.3684 45.4095 51.7331 45.4095 52.1806C45.4095 52.6281 45.7668 52.9927 46.2053 52.9927H48.9175V58.5286H43.5581V58.4789ZM26.0671 37.8436C25.8397 37.6612 25.5474 37.4458 25.4662 37.3629C24.5242 36.3021 23.8584 35.0922 23.5661 33.9651C23.4686 33.6005 23.4036 33.2856 23.3387 33.0369C23.0788 32.0093 22.9976 31.6944 22.754 30.1861C22.7378 30.0701 22.7053 29.9209 22.6728 29.7552C22.4942 28.7441 22.0557 26.3905 22.6403 25.5286C22.7378 25.3795 22.8515 25.2966 23.0139 25.28C24.2482 25.0646 24.8328 27.385 24.8815 27.6668C25.0115 28.9264 25.0927 29.606 25.791 29.5728C26.5056 29.5397 26.5056 28.9099 26.5056 27.5673V21.0867C26.5056 20.7717 26.6355 20.4734 26.8629 20.2745C27.074 20.0756 27.3501 19.9927 27.6424 20.0259C28.1296 20.0922 28.5032 20.5894 28.5032 21.153V27.6005C28.5356 28.3298 28.5844 28.9762 29.2502 28.943C29.9161 28.9264 29.9161 28.3463 29.9161 27.5673V18.8657C29.9161 18.5507 30.046 18.2524 30.2734 18.0535C30.4845 17.8546 30.7606 17.7717 31.0529 17.8215C31.5401 17.8878 31.9137 18.385 31.9137 18.9485V27.6005C31.9461 28.3298 31.9949 28.9762 32.6607 28.943C33.3266 28.9264 33.3266 28.3463 33.3266 27.5673V20.7883C33.3266 20.4734 33.4565 20.1751 33.6839 19.9762C33.895 19.7773 34.1711 19.6944 34.4634 19.7441C34.9506 19.8104 35.3242 20.3077 35.3242 20.8712V27.5839C35.3567 28.3132 35.4054 28.9596 36.0712 28.9264C36.7371 28.9099 36.7371 28.3298 36.7371 27.5507V23.1751C36.7371 22.6115 37.1269 22.1143 37.5978 22.048C37.8739 22.0148 38.15 22.0977 38.3774 22.2966C38.6048 22.4955 38.7347 22.7938 38.7347 23.1088V34.4292C38.7347 35.2579 38.1825 36.5839 37.2081 38.059C36.7046 38.8215 36.4448 39.6999 36.4448 40.6281V45.5342H34.5609V42.6668C34.5609 42.2193 34.2036 41.8546 33.7651 41.8546C33.3266 41.8546 32.9693 42.2193 32.9693 42.6668V45.5342H27.7399V39.8988C27.7399 39.1198 26.8791 38.49 26.0508 37.8601M49.1448 47.9375H44.2077C43.6068 47.9375 43.0222 47.7386 42.5187 47.374C41.3494 46.5286 39.6766 45.5176 38.2962 45.5176H37.7927V40.6115C37.7927 39.9651 37.9876 39.3519 38.3287 38.8049C38.8646 37.9927 39.4655 36.9651 39.8066 35.9375H44.8898C45.4907 35.9375 46.0754 36.1364 46.5788 36.501C47.7482 37.3463 49.4209 38.3574 50.8014 38.3574H51.1587V43.2635C51.1587 43.9099 50.98 44.5231 50.6227 45.0701C50.0868 45.8822 49.4859 46.9099 49.1448 47.9375ZM45.5882 25.3961C46.2865 25.3961 46.8224 24.6999 47.5533 23.6226C47.7157 23.374 47.9268 23.0756 48.0242 22.9762C49.0312 21.9983 50.1842 21.2856 51.2561 21.0038C51.6134 20.9043 51.9057 20.8215 52.1493 20.7552C53.14 20.4734 53.4323 20.3905 54.8615 20.1419C54.9752 20.1253 55.1051 20.0922 55.2837 20.059C56.2257 19.8601 58.4344 19.4126 59.2627 19.9927C59.4088 20.0922 59.49 20.2248 59.5225 20.4237C59.7499 21.7331 57.5249 22.3463 57.2488 22.4126C56.047 22.5452 55.3812 22.6281 55.4299 23.3574C55.4624 24.0867 56.0958 24.0867 57.3625 24.0867H63.5339C63.81 24.0867 64.0861 24.2193 64.2647 24.4347C64.4759 24.6668 64.5571 24.9817 64.5246 25.2966C64.4596 25.827 64.0049 26.2082 63.469 26.2082H57.3138C56.583 26.2579 55.9983 26.2911 56.0146 26.9706C56.0308 27.6502 56.6479 27.6502 57.3463 27.6502H65.6289C65.905 27.6502 66.1811 27.7828 66.3598 27.9983C66.5709 28.2303 66.6521 28.5452 66.6196 28.8601C66.5546 29.3905 66.0999 29.7717 65.564 29.7717H57.3138C56.583 29.8215 55.9983 29.8546 56.0146 30.5342C56.0308 31.2137 56.6479 31.2137 57.3463 31.2137H63.7775C64.0536 31.2137 64.3297 31.3463 64.5084 31.5618C64.7195 31.7938 64.8007 32.1088 64.7682 32.4237C64.7032 32.9541 64.2485 33.3353 63.7126 33.3353H57.2976C56.5667 33.385 55.9821 33.4182 55.9983 34.0977C56.0146 34.7773 56.6317 34.7773 57.33 34.7773H61.5039C62.0398 34.7773 62.4945 35.1751 62.5595 35.6889C62.592 36.0204 62.5108 36.3187 62.2996 36.5507C62.1048 36.7662 61.8449 36.8988 61.5688 36.8988H50.7689C49.9731 36.8988 48.7226 36.3187 47.3259 35.3077C46.5951 34.7773 45.7343 34.4955 44.8573 34.4955H40.1963V32.4734H42.9085C43.347 32.4734 43.7043 32.1088 43.7043 31.6612C43.7043 31.2137 43.347 30.8491 42.9085 30.8491H40.1963V25.3132H45.5557L45.5882 25.3961ZM67.5453 53.4734C67.2855 51.9154 67.2043 51.5673 66.9282 50.5065C66.8632 50.2579 66.782 49.943 66.7008 49.5784C66.2786 47.8712 65.2717 46.4624 64.5084 45.6005C64.3297 45.4016 64.0536 45.2027 63.6963 44.9209C63.3715 44.6723 62.6894 44.1751 62.5595 43.9264V38.1419C62.8518 38.0093 63.1117 37.8104 63.339 37.5452C63.7938 37.0148 64.0049 36.3021 63.9074 35.606C63.875 35.3077 63.7775 35.0259 63.6476 34.7773H63.7288C64.9306 34.7773 65.9538 33.8657 66.1162 32.6723C66.1811 32.1585 66.0837 31.6281 65.8563 31.1806C66.9444 31.0646 67.8214 30.2027 67.9676 29.0756C68.0488 28.3629 67.8539 27.6668 67.3829 27.1364C66.9444 26.6226 66.311 26.3242 65.6452 26.3242H65.5965C65.7264 26.0756 65.8238 25.7938 65.8563 25.4955C65.9538 24.7828 65.7426 24.0867 65.2717 23.5563C64.8332 23.0425 64.1998 22.7441 63.5339 22.7441H59.7499C60.6106 22.0646 61.0004 21.1861 60.838 20.2082C60.7406 19.6612 60.4645 19.1972 60.0097 18.8822C58.7105 17.9706 56.3069 18.4679 55.0077 18.7331C54.8615 18.7662 54.7316 18.7828 54.6179 18.8159C53.1238 19.0811 52.7827 19.1806 51.792 19.4624C51.5484 19.5286 51.2561 19.6115 50.9151 19.711C49.2748 20.1585 47.943 21.2193 47.1148 22.0148C46.9199 22.1972 46.725 22.4955 46.4814 22.8601C46.254 23.2082 45.7668 23.8878 45.5394 24.0535H40.0989V23.1419C40.0989 22.4292 39.8066 21.7662 39.2869 21.3021C38.7834 20.8546 38.1175 20.6391 37.4517 20.7386C37.1756 20.7717 36.9157 20.8712 36.6884 21.0038V20.9209C36.6884 19.6612 35.8114 18.6005 34.6583 18.4513C34.1711 18.385 33.6839 18.4844 33.2454 18.7165C33.1317 17.5894 32.3034 16.6612 31.2316 16.5121C30.5657 16.4292 29.8998 16.6281 29.3964 17.0756C28.8767 17.5397 28.5681 18.2193 28.5681 18.9154V18.9651C28.3408 18.8325 28.0809 18.7496 27.8048 18.6999C27.139 18.617 26.4731 18.8159 25.9696 19.2635C25.45 19.7275 25.1414 20.4071 25.1414 21.1032V25.0314C24.2806 23.8712 23.29 23.838 22.7378 23.9375C22.2181 24.0369 21.7958 24.3187 21.5035 24.7662C20.6103 26.0922 21.0813 28.6447 21.3249 30.0204C21.3573 30.1861 21.3736 30.3187 21.3898 30.4347C21.6497 31.9927 21.7309 32.3408 22.007 33.4016C22.0719 33.6502 22.1531 33.9651 22.2343 34.3298C22.6566 36.0535 23.6635 37.4458 24.4268 38.3077C24.6054 38.5065 24.8815 38.722 25.2388 38.9872C25.5636 39.2358 26.2457 39.7496 26.3757 39.9817V45.8491C26.1483 45.9817 25.9372 46.1474 25.7585 46.3629C25.3038 46.8933 25.0927 47.606 25.1739 48.3021C25.2063 48.6005 25.3038 48.8822 25.4337 49.1309H25.3525C24.1507 49.1309 23.1276 50.0425 22.9652 51.2358C22.9002 51.7496 22.9976 52.28 23.2412 52.7275C22.1531 52.8436 21.2761 53.7054 21.13 54.8159C21.0488 55.5286 21.2599 56.2248 21.7146 56.7552C22.1531 57.269 22.7865 57.5673 23.4524 57.5673H23.5011C23.3712 57.8159 23.2737 58.0977 23.2412 58.396C23.16 59.1088 23.3549 59.8049 23.8259 60.3353C24.2644 60.8491 24.8978 61.1474 25.5636 61.1474H29.3477C28.4869 61.827 28.0972 62.7054 28.2596 63.6833C28.357 64.2303 28.6331 64.6944 29.0878 65.0093C29.6562 65.4071 30.4195 65.5397 31.2153 65.5397C32.2547 65.5397 33.3428 65.3242 34.0737 65.1751C34.2198 65.1419 34.366 65.1088 34.4634 65.0922C35.9576 64.827 36.2986 64.7275 37.2893 64.4458C37.5329 64.3795 37.8252 64.2966 38.1663 64.1972C39.8066 63.7496 41.1383 62.6889 41.9665 61.8933C42.1614 61.711 42.3563 61.4126 42.5999 61.048C42.8273 60.6999 43.3145 60.0204 43.5419 59.8546H48.82V60.7662C48.82 61.4789 49.1124 62.1585 49.632 62.6226C50.1355 63.0701 50.8014 63.269 51.4672 63.1861C51.7433 63.153 52.0032 63.0535 52.2305 62.9209V63.0038C52.2305 64.2635 53.1075 65.3242 54.2606 65.4734C54.7478 65.5397 55.2513 65.4403 55.6735 65.2082C55.7872 66.3353 56.6155 67.2635 57.6873 67.4126C57.7848 67.4126 57.8985 67.4292 57.9959 67.4292C58.5481 67.4292 59.1003 67.2303 59.5225 66.8491C60.0422 66.385 60.3508 65.7054 60.3508 65.0093V64.9596C60.5781 65.0922 60.838 65.1751 61.1141 65.2082C61.7799 65.3077 62.4458 65.0922 62.9493 64.6447C63.469 64.1806 63.7775 63.501 63.7775 62.8049V58.8767C64.6383 60.0369 65.6289 60.0701 66.1811 59.9541C66.7008 59.8546 67.1231 59.5728 67.4154 59.1253C68.3086 57.7994 67.8377 55.2469 67.594 53.8712C67.5616 53.7054 67.5453 53.5728 67.5291 53.4568" fill="white"/>
<path d="M43.688 51.3021H43.1359C42.6974 51.3021 42.3401 51.6668 42.3401 52.1143C42.3401 52.5618 42.6974 52.9264 43.1359 52.9264H43.688C44.1265 52.9264 44.4838 52.5618 44.4838 52.1143C44.4838 51.6668 44.1265 51.3021 43.688 51.3021Z" fill="white"/>
</g>
<defs>
<clipPath id="clip0_213_4425">
<rect width="47" height="51" fill="white" transform="translate(21 16.4292)"/>
</clipPath>
</defs>
</svg>
