<svg width="42" height="35" viewBox="0 0 42 35" fill="none" xmlns="http://www.w3.org/2000/svg">
<path d="M35.0573 15.4899C34.7342 15.4899 34.4261 15.6186 34.1987 15.8459C33.9714 16.0733 33.8428 16.3814 33.8398 16.7045V25.4756C33.8398 26.008 33.4419 26.3939 32.9034 26.3939H9.3903C9.10311 26.3939 8.8279 26.4897 8.60653 26.6721L2.81799 31.4645C2.79106 31.4914 2.76414 31.5184 2.73722 31.5453C2.64747 31.635 2.62055 31.6111 2.54576 31.5812C2.47097 31.5513 2.43807 31.5453 2.43807 31.4196V6.7159C2.43807 6.18341 2.82696 5.78853 3.36543 5.78853H24.7546C25.0777 5.78853 25.3858 5.6599 25.6132 5.43254C25.8405 5.20519 25.9692 4.89707 25.9692 4.57399C25.9692 4.2509 25.8435 3.93979 25.6162 3.70944C25.3888 3.4791 25.0777 3.35046 24.7546 3.34747H3.36543C1.51968 3.34747 0 4.87014 0 6.7129V31.4226C0 32.5325 0.717959 33.4598 1.60942 33.8278C2.50089 34.1958 3.6586 34.0492 4.44835 33.2684L9.82406 28.829H32.9064C34.7492 28.829 36.2838 27.3153 36.2838 25.4696V16.6985C36.2838 16.3754 36.1522 16.0643 35.9218 15.837C35.6915 15.6096 35.3804 15.481 35.0573 15.484V15.4899Z" fill="black"/>
<path d="M7.02106 18.5173C6.69499 18.5173 6.38387 18.6459 6.15352 18.8733C5.92318 19.1036 5.79454 19.4147 5.79754 19.7408C5.79754 20.0639 5.92916 20.375 6.15951 20.6023C6.38985 20.8297 6.70097 20.9583 7.02405 20.9553H15.84C16.1631 20.9553 16.4742 20.8297 16.7045 20.6023C16.9349 20.375 17.0635 20.0639 17.0665 19.7408C17.0665 19.4147 16.9379 19.1036 16.7105 18.8733C16.4802 18.6429 16.169 18.5143 15.843 18.5173H7.02704H7.02106Z" fill="black"/>
<path d="M28.2516 18.7626L39.7629 7.29027C40.5826 6.47359 41.0343 5.3817 41.0343 4.21501C41.0343 3.04833 40.5975 2.01627 39.8078 1.2295C39.012 0.433766 37.9471 0 36.8073 0H36.7684C35.6137 0.00897448 34.5338 0.457698 33.7261 1.2654L22.2058 12.7408C22.0772 12.8694 21.9815 13.0339 21.9306 13.2134L20.1926 19.4537C20.1238 19.699 20.1447 19.9592 20.2524 20.1896C20.3601 20.4199 20.5426 20.6054 20.7729 20.7131C21.0033 20.8208 21.2665 20.8447 21.5088 20.7789L27.776 19.0409C27.9555 18.99 28.117 18.8973 28.2487 18.7656L28.2516 18.7626ZM35.2398 2.78807C35.6616 2.36627 36.209 2.12994 36.7774 2.12396C37.3518 2.15388 37.8813 2.34234 38.2911 2.74918C38.692 3.15004 38.9133 3.67056 38.9133 4.221C38.9133 4.77143 38.677 5.33982 38.2432 5.7676L37.5881 6.41975L34.5936 3.42825L35.2338 2.78807H35.2398ZM22.7712 18.2062L23.9289 14.063L24.0127 13.9822L33.4927 4.53211L36.4872 7.5266L26.9503 17.0336L22.7742 18.2062H22.7712Z" fill="black"/>
<path d="M18.6191 13.3151C18.8495 13.0877 18.9781 12.7766 18.9781 12.4536C18.9781 12.1275 18.8495 11.8164 18.6221 11.586C18.3918 11.3557 18.0807 11.227 17.7546 11.23H6.7489C6.42582 11.23 6.1147 11.3617 5.88735 11.592C5.66 11.8223 5.53136 12.1335 5.53435 12.4565C5.53435 12.7796 5.66299 13.0877 5.89034 13.3151C6.11769 13.5425 6.42582 13.6711 6.7489 13.6711H17.7546C18.0777 13.6711 18.3888 13.5454 18.6191 13.3181V13.3151Z" fill="black"/>
</svg>
