<svg width="85" height="85" viewBox="0 0 85 85" fill="none" xmlns="http://www.w3.org/2000/svg">
<circle cx="42.5" cy="42.5" r="42.5" fill="#0077C8"/>
<path d="M48.6114 29.5189C48.6114 32.621 46.0898 35.1357 42.9794 35.1357C39.8689 35.1357 37.3474 32.621 37.3474 29.5189C37.3474 26.4167 39.8689 23.902 42.9794 23.902C46.0898 23.902 48.6114 26.4167 48.6114 29.5189Z" stroke="white" stroke-width="1.5" stroke-miterlimit="10" stroke-linecap="round" stroke-linejoin="round"/>
<path d="M34.6755 28.3709C34.6755 31.3371 32.2644 33.7417 29.2901 33.7417C26.3159 33.7417 23.9048 31.3371 23.9048 28.3709C23.9048 25.4046 26.3159 23 29.2901 23C32.2644 23 34.6755 25.4046 34.6755 28.3709Z" stroke="white" stroke-width="1.5" stroke-miterlimit="10" stroke-linecap="round" stroke-linejoin="round"/>
<path d="M48.6115 59.7349C51.9824 58.9149 53.8323 56.906 53.8323 52.1501C53.8323 45.2213 54.6546 38.2925 43.0206 38.2925C31.3865 38.2925 32.2088 45.1803 32.2088 52.1501C32.2088 56.906 34.0175 58.9559 37.4296 59.7349" stroke="white" stroke-width="1.5" stroke-miterlimit="10" stroke-linecap="round" stroke-linejoin="round"/>
<path d="M37.3887 48.9933V62.1129" stroke="white" stroke-width="1.5" stroke-miterlimit="10" stroke-linecap="round" stroke-linejoin="round"/>
<path d="M33.6475 36.7755C32.5377 36.6116 31.3043 36.5296 29.8244 36.5296C18.1904 36.5296 19.0126 41.5724 19.0126 48.5013C19.0126 53.2571 20.8215 55.307 24.2335 56.086" stroke="white" stroke-width="1.5" stroke-miterlimit="10" stroke-linecap="round" stroke-linejoin="round"/>
<path d="M24.2335 46.4103V59.5299" stroke="white" stroke-width="1.5" stroke-miterlimit="10" stroke-linecap="round" stroke-linejoin="round"/>
<path d="M62.0954 28.3709C62.0954 31.3371 59.6843 33.7417 56.71 33.7417C53.7358 33.7417 51.3247 31.3371 51.3247 28.3709C51.3247 25.4046 53.7358 23 56.71 23C59.6843 23 62.0954 25.4046 62.0954 28.3709Z" stroke="white" stroke-width="1.5" stroke-miterlimit="10" stroke-linecap="round" stroke-linejoin="round"/>
<path d="M52.3525 36.7755C53.4625 36.6116 54.6958 36.5296 56.1758 36.5296C67.8097 36.5296 66.9876 41.5724 66.9876 48.5013C66.9876 53.2571 65.1787 55.307 61.7666 56.086" stroke="white" stroke-width="1.5" stroke-miterlimit="10" stroke-linecap="round" stroke-linejoin="round"/>
<path d="M61.7665 46.4103V59.5299" stroke="white" stroke-width="1.5" stroke-miterlimit="10" stroke-linecap="round" stroke-linejoin="round"/>
<path d="M48.6116 48.9933V62.1129" stroke="white" stroke-width="1.5" stroke-miterlimit="10" stroke-linecap="round" stroke-linejoin="round"/>
</svg>
