<?xml version="1.0" encoding="UTF-8"?>
<svg id="Layer_1" xmlns="http://www.w3.org/2000/svg" version="1.1" viewBox="0 0 220 223">
  <!-- Generator: Adobe Illustrator 29.6.1, SVG Export Plug-In . SVG Version: 2.1.1 Build 9)  -->
  <path d="M84.7,87.2c-8.1,0-14.7,6.6-14.7,14.7s2.1,4.6,4.6,4.6,4.6-2.1,4.6-4.6,2.5-5.5,5.5-5.5,4.6-2.1,4.6-4.6-2.1-4.6-4.6-4.6h0Z"/>
  <path d="M206.8,91.4l-14.1-2.8c-.5-.1-1-.5-1.1-.9-1.7-5.7-4-11.2-6.8-16.3-.2-.4-.2-.9.1-1.4l8-12c2.8-4.2,2.2-9.8-1.3-13.4l-14.4-14.4c-3.6-3.6-9.2-4.1-13.4-1.3l-11.9,8c-.4.3-1,.3-1.4,0-5.2-2.8-10.7-5.1-16.3-6.7-.4-.2-.8-.6-.9-1.1l-2.8-14.1c-1-4.9-5.4-8.5-10.4-8.5h-20.4c-5.1,0-9.4,3.6-10.4,8.5l-2.8,14.1c0,.5-.4.9-.9,1.1-5.7,1.7-11.2,4-16.3,6.8-.4.2-.9.2-1.4,0l-12-8c-4.2-2.8-9.9-2.2-13.4,1.3l-14.4,14.4c-3.6,3.6-4.1,9.2-1.3,13.4l8,12c.3.4.3,1,.1,1.4-2.8,5.2-5.1,10.6-6.7,16.3-.2.5-.6.8-1.1.9l-14.1,2.8c-4.9,1-8.6,5.4-8.6,10.4v20.4c0,5.1,3.6,9.4,8.6,10.4l14.1,2.8c.5.1,1,.5,1.1.9,1.7,5.6,3.9,11.1,6.8,16.4.2.4.2.9-.1,1.4l-8,11.9c-2.8,4.2-2.2,9.8,1.3,13.4l14.4,14.4c3.6,3.6,9.2,4.1,13.4,1.3l12-8c.4-.3,1-.3,1.4-.1,5.2,2.8,10.6,5.1,16.3,6.7.5.1.8.6.9,1.1l2.8,14.1c1,5,5.4,8.5,10.4,8.5h20.4c5.1,0,9.4-3.6,10.4-8.5l2.8-14.1c0-.5.4-.9.9-1.1,5.6-1.7,11.1-3.9,16.4-6.8.4-.2.9-.2,1.4.1l12,8c4.2,2.8,9.8,2.2,13.4-1.3l14.4-14.4c3.6-3.6,4.1-9.2,1.3-13.4l-8-11.9c-.3-.4-.3-1-.1-1.4,2.8-5.2,5.1-10.7,6.7-16.3.1-.5.6-.8,1.1-.9l14.1-2.8c5-1,8.5-5.4,8.5-10.4v-20.4c0-5.1-3.6-9.4-8.6-10.4h-.1ZM183,133.6c-1.5,5-3.5,9.9-6,14.5-1.9,3.4-1.7,7.6.5,10.9l8,11.9c.4.6.3,1.3-.2,1.8l-14.4,14.4c-.5.5-1.2.6-1.8.2l-11.9-8c-3.3-2.2-7.5-2.4-10.9-.5-4.6,2.5-9.5,4.5-14.5,6-3.7,1.1-6.5,4.2-7.3,8.1l-2.8,14.1c-.1.7-.7,1.1-1.4,1.1h-20.4c-.7,0-1.3-.5-1.4-1.2l-2.8-14.1c-.8-3.9-3.6-7-7.3-8-5-1.5-9.9-3.5-14.5-6-1.5-.8-3.2-1.3-5-1.3s-4.1.6-5.9,1.8l-12,8c-.6.4-1.3.3-1.8-.2l-14.4-14.4c-.5-.5-.6-1.2-.2-1.8l8-11.9c2.2-3.3,2.4-7.5.5-10.9-2.5-4.6-4.5-9.5-6-14.5-1.1-3.7-4.2-6.5-8.1-7.3l-14.1-2.8c-.7-.1-1.2-.7-1.2-1.4v-20.4c0-.7.5-1.3,1.2-1.4l14.1-2.8c3.9-.8,7-3.6,8-7.3,1.5-5.1,3.5-10,6-14.5,1.9-3.4,1.6-7.6-.5-10.9l-8-12c-.4-.6-.3-1.3.2-1.8l14.4-14.4c.5-.5,1.2-.6,1.8-.2l12,8c3.3,2.2,7.4,2.4,10.9.5,4.6-2.5,9.5-4.5,14.5-6,3.7-1.1,6.5-4.2,7.3-8.1l2.8-14.1c.1-.7.7-1.2,1.4-1.2h20.4c.7,0,1.3.5,1.4,1.2l2.8,14.1c.8,3.9,3.6,7,7.3,8.1,5,1.5,9.9,3.5,14.5,6,3.4,1.9,7.6,1.6,10.9-.5l12-8c.6-.4,1.3-.3,1.8.2l14.4,14.4c.5.5.5,1.2.2,1.8l-8,12c-2.2,3.3-2.4,7.5-.5,10.9,2.5,4.6,4.5,9.4,6,14.5,1.1,3.7,4.2,6.5,8.1,7.3l14.1,2.8c.7.1,1.1.7,1.1,1.4v20.3c.1.7-.4,1.3-1,1.4l-14.1,2.8c-3.9.8-7,3.6-8.1,7.3h-.1Z"/>
  <path d="M160.1,77c-13.2-13-34.7-13-47.9,0l-2.3,2.3-2.3-2.3c-13.2-13-34.7-13-47.9,0-6.4,6.3-9.9,14.7-9.9,23.7s3.5,17.4,9.9,23.7l46.9,46.3c.9.9,2,1.3,3.2,1.3s2.4-.5,3.2-1.3l46.9-46.3c6.4-6.3,9.9-14.7,9.9-23.7s-3.5-17.4-9.9-23.7h.2ZM160.8,100.7h0c0,6.5-2.6,12.6-7.2,17.1l-43.7,43.1-43.7-43.1c-4.6-4.6-7.2-10.7-7.2-17.2s2.6-12.6,7.2-17.2c4.7-4.6,10.9-7.1,17.5-7.1s12.8,2.5,17.5,7.1l5.5,5.4c1.8,1.8,4.7,1.8,6.5,0l5.5-5.4c9.6-9.5,25.3-9.5,34.9,0,4.6,4.6,7.2,10.7,7.2,17.2h0Z"/>
</svg>