<svg width="185" height="246" viewBox="0 0 185 246" fill="none" xmlns="http://www.w3.org/2000/svg">
<path d="M65.0379 245.408L184.133 193.068C165.511 151.004 154.649 138.337 183.722 98.5055C183.722 98.5055 156.083 78.9424 156.105 78.9318L54.4296 4.9224C44.1271 -2.57436 29.6277 0.731803 23.4694 11.8716C-19.3644 89.2925 -2.3553 187.003 65.0484 245.398" fill="#6B317A"/>
<path d="M65.0379 245.408L184.133 193.068C165.511 151.004 154.649 138.337 183.722 98.5055C183.722 98.5055 156.083 78.9424 156.105 78.9318L54.4296 4.9224C44.1271 -2.57436 29.6277 0.731803 23.4694 11.8716C-19.3644 89.2925 -2.3553 187.003 65.0484 245.398" fill="url(#paint0_linear_4251_9906)" fill-opacity="0.25"/>
<defs>
<linearGradient id="paint0_linear_4251_9906" x1="92.0779" y1="209.811" x2="84.4011" y2="177.955" gradientUnits="userSpaceOnUse">
<stop/>
<stop offset="1" stop-opacity="0"/>
</linearGradient>
</defs>
</svg>
