<svg width="237" height="201" viewBox="0 0 237 201" fill="none" xmlns="http://www.w3.org/2000/svg">
<path d="M236.558 106.19L162.944 0.140625C125.14 26.4003 111.231 46.1214 66.5412 25.2316C66.5201 25.2316 68.0491 21.936 68.0491 21.936L2.12169 162.5C-3.2879 174.03 2.7333 187.602 14.8601 191.519C99.1253 218.715 191.985 183.401 236.548 106.201" fill="#EE7520"/>
<path d="M236.558 106.19L162.944 0.140625C125.14 26.4003 111.231 46.1214 66.5412 25.2316C66.5201 25.2316 68.0491 21.936 68.0491 21.936L2.12169 162.5C-3.2879 174.03 2.7333 187.602 14.8601 191.519C99.1253 218.715 191.985 183.401 236.548 106.201" fill="url(#paint0_linear_4251_9908)" fill-opacity="0.25"/>
<defs>
<linearGradient id="paint0_linear_4251_9908" x1="179.992" y1="49.6145" x2="145.915" y2="62.7803" gradientUnits="userSpaceOnUse">
<stop/>
<stop offset="1" stop-opacity="0"/>
</linearGradient>
</defs>
</svg>
