<svg width="290" height="236" viewBox="0 0 290 236" fill="none" xmlns="http://www.w3.org/2000/svg">
<path d="M47.0033 30.3684L26.1021 47.0487L0.365479 67.3583L41.8761 194.897C45.1739 215.372 77.3677 235.016 77.3677 235.016C93.5568 225.898 110.576 218.023 141.645 194.897C141.624 194.897 141.655 194.918 141.645 194.897C141.645 194.897 240.019 119.298 281.155 87.6786C291.257 79.9186 292.143 65.0935 283.159 56.0595C220.764 -6.70477 122.084 -17.8236 47.0033 30.3684Z" fill="#9D1256"/>
<path d="M47.0033 30.3684L26.1021 47.0487L0.365479 67.3583L41.8761 194.897C45.1739 215.372 77.3677 235.016 77.3677 235.016C93.5568 225.898 110.576 218.023 141.645 194.897C141.624 194.897 141.655 194.918 141.645 194.897C141.645 194.897 240.019 119.298 281.155 87.6786C291.257 79.9186 292.143 65.0935 283.159 56.0595C220.764 -6.70477 122.084 -17.8236 47.0033 30.3684Z" fill="url(#paint0_linear_4251_9911)" fill-opacity="0.25"/>
<defs>
<linearGradient id="paint0_linear_4251_9911" x1="67.6127" y1="98.03" x2="104.972" y2="96.3671" gradientUnits="userSpaceOnUse">
<stop/>
<stop offset="1" stop-opacity="0"/>
</linearGradient>
</defs>
</svg>
