<svg width="184" height="241" viewBox="0 0 184 241" fill="none" xmlns="http://www.w3.org/2000/svg">
<path fill-rule="evenodd" clip-rule="evenodd" d="M-0.000488281 143.352L79.1043 200.932C79.0832 200.943 106.722 220.506 106.722 220.506C103.377 225.088 100.561 229.31 98.2249 233.26L111.593 240.574C113.408 237.204 115.081 234.042 116.651 231.074C133.942 198.381 138.708 189.37 183.942 187.971C183.963 187.971 179.977 60.2308 178.701 19.4198C178.332 7.63772 167.798 -1.30153 156.114 0.414722C79.007 11.765 17.6296 69.3599 -0.000488281 143.352Z" fill="#6B317A"/>
<path fill-rule="evenodd" clip-rule="evenodd" d="M-0.000488281 143.352L79.1043 200.932C79.0832 200.943 106.722 220.506 106.722 220.506C103.377 225.088 100.561 229.31 98.2249 233.26L111.593 240.574C113.408 237.204 115.081 234.042 116.651 231.074C133.942 198.381 138.708 189.37 183.942 187.971C183.963 187.971 179.977 60.2308 178.701 19.4198C178.332 7.63772 167.798 -1.30153 156.114 0.414722C79.007 11.765 17.6296 69.3599 -0.000488281 143.352Z" fill="url(#paint0_linear_4251_9912)" fill-opacity="0.25"/>
<defs>
<linearGradient id="paint0_linear_4251_9912" x1="77.326" y1="191.716" x2="98.699" y2="163.605" gradientUnits="userSpaceOnUse">
<stop/>
<stop offset="1" stop-opacity="0"/>
</linearGradient>
</defs>
</svg>
