<svg width="241" height="190" viewBox="0 0 241 190" fill="none" xmlns="http://www.w3.org/2000/svg">
<path d="M210.629 186.303L240.63 72.3459C196.119 60.6164 187.145 49.1291 174.143 1.58996C174.143 1.5689 177.402 0.737092 177.391 0.726562L15.9472 44.4226C3.63058 47.7603 -2.86515 61.1429 2.00665 72.925C35.8245 154.642 122.852 202.381 210.619 186.303" fill="#EE7520"/>
<path d="M210.629 186.303L240.63 72.3459C196.119 60.6164 187.145 49.1291 174.143 1.58996C174.143 1.5689 177.402 0.737092 177.391 0.726562L15.9472 44.4226C3.63058 47.7603 -2.86515 61.1429 2.00665 72.925C35.8245 154.642 122.852 202.381 210.619 186.303" fill="url(#paint0_linear_4251_9907)" fill-opacity="0.25"/>
<defs>
<linearGradient id="paint0_linear_4251_9907" x1="206.97" y1="133.259" x2="171.238" y2="113.422" gradientUnits="userSpaceOnUse">
<stop/>
<stop offset="1" stop-opacity="0"/>
</linearGradient>
</defs>
</svg>
