<svg width="185" height="241" viewBox="0 0 185 241" fill="none" xmlns="http://www.w3.org/2000/svg">
<path d="M174.132 14.6957L45.6617 0.765625C40.7688 46.4832 46.5791 69.9 1.49917 89.9265C1.47808 89.9265 -0.00878906 86.6309 -0.00878906 86.6309L63.1769 228.437C68.3651 240.072 82.5797 244.421 93.4833 237.829C169.27 192.07 203.373 98.8868 174.142 14.6957" fill="#EE7520"/>
<path d="M174.132 14.6957L45.6617 0.765625C40.7688 46.4832 46.5791 69.9 1.49917 89.9265C1.47808 89.9265 -0.00878906 86.6309 -0.00878906 86.6309L63.1769 228.437C68.3651 240.072 82.5797 244.421 93.4833 237.829C169.27 192.07 203.373 98.8868 174.142 14.6957" fill="url(#paint0_linear_4251_9909)" fill-opacity="0.25"/>
<defs>
<linearGradient id="paint0_linear_4251_9909" x1="86.5976" y1="17.2834" x2="78.2284" y2="57.5435" gradientUnits="userSpaceOnUse">
<stop/>
<stop offset="1" stop-opacity="0"/>
</linearGradient>
</defs>
</svg>
