<svg width="221" height="223" viewBox="0 0 221 223" fill="none" xmlns="http://www.w3.org/2000/svg">
<path d="M96.7804 0.375L0.989502 94.453C33.2783 127.241 36.3364 128.02 23.1973 175.538C23.1973 175.538 141.913 208.063 191.696 221.708C203.981 225.078 216.34 216.865 218.164 204.283C230.913 116.754 180.476 31.2991 96.7804 0.375Z" fill="#9D1256"/>
<path d="M96.7804 0.375L0.989502 94.453C33.2783 127.241 36.3364 128.02 23.1973 175.538C23.1973 175.538 141.913 208.063 191.696 221.708C203.981 225.078 216.34 216.865 218.164 204.283C230.913 116.754 180.476 31.2991 96.7804 0.375Z" fill="url(#paint0_linear_4251_9910)" fill-opacity="0.25"/>
<defs>
<linearGradient id="paint0_linear_4251_9910" x1="54.8236" y1="58.9129" x2="79.6113" y2="91.7163" gradientUnits="userSpaceOnUse">
<stop/>
<stop offset="1" stop-opacity="0"/>
</linearGradient>
</defs>
</svg>
