<svg width="707" height="132" viewBox="0 0 707 132" fill="none" xmlns="http://www.w3.org/2000/svg">
<path d="M190.444 10.2186L184.121 16.4695C181.389 13.7375 178.302 12.9506 173.631 12.9506C168.317 12.9506 165.729 15.8931 165.729 19.4176C165.729 20.7808 166.161 22.0775 167.236 23.0805C168.239 24.0115 169.752 24.7319 171.907 25.0201L178.014 25.9566C182.686 26.605 185.556 27.8241 187.784 29.9798C190.516 32.5677 191.735 36.1586 191.735 40.7581C191.735 50.672 183.545 56.2745 172.772 56.2745C165.014 56.2745 159.123 54.6231 154.091 49.5193L160.558 43.0523C163.789 46.2831 168.172 47.3637 172.844 47.3637C178.807 47.3637 181.965 45.0639 181.965 40.9687C181.965 39.2453 181.461 37.81 180.386 36.7294C179.377 35.7929 178.23 35.3662 175.787 35.006L169.68 34.0695C165.368 33.4211 162.066 32.0579 159.766 29.8302C157.322 27.4584 156.103 24.0836 156.103 19.7722C156.103 10.6508 162.858 4.25586 173.919 4.25586C180.962 4.25586 186.061 5.97929 190.444 10.2186Z" fill="white"/>
<path d="M245.542 55.8366H235.556V26.095L225.786 44.2714H219.031L209.19 26.095V55.8366H199.204V4.68799H209.045L222.406 31.1988L235.695 4.68799H245.537V55.8366H245.542Z" fill="white"/>
<path d="M265.509 55.8366H255.523V4.68799H265.509V55.8366Z" fill="white"/>
<path d="M308.475 13.5933H295.114V55.8366H285.128V13.5933H271.768V4.68799H308.48V13.5933H308.475Z" fill="white"/>
<path d="M352.002 55.8366H342.016V34.4296H324.632V55.8366H314.646V4.68799H324.632V25.5187H342.016V4.68799H352.002V55.8366Z" fill="white"/>
<path d="M393.734 10.2186L387.412 16.4695C384.68 13.7375 381.593 12.9506 376.921 12.9506C371.607 12.9506 369.019 15.8931 369.019 19.4176C369.019 20.7808 369.451 22.0775 370.526 23.0805C371.529 24.0115 373.042 24.7319 375.198 25.0201L381.305 25.9566C385.976 26.605 388.847 27.8241 391.075 29.9798C393.807 32.5677 395.026 36.1586 395.026 40.7581C395.026 50.672 386.835 56.2745 376.062 56.2745C368.304 56.2745 362.414 54.6231 357.382 49.5193L363.849 43.0523C367.08 46.2831 371.463 47.3637 376.134 47.3637C382.097 47.3637 385.256 45.0639 385.256 40.9687C385.256 39.2453 384.752 37.81 383.677 36.7294C382.668 35.7929 381.521 35.3662 379.077 35.006L372.97 34.0695C368.659 33.4211 365.356 32.0579 363.056 29.8302C360.613 27.4584 359.393 24.0836 359.393 19.7722C359.393 10.6508 366.149 4.25586 377.21 4.25586C384.253 4.25586 389.351 5.97929 393.734 10.2186Z" fill="white"/>
<path d="M427.211 46.9258H450.414V55.8366H417.226V4.68799H427.211V46.9313V46.9258Z" fill="white"/>
<path d="M490.286 13.5933H466.579V25.5908H486.839V34.5016H466.579V46.9313H490.286V55.8422H456.593V4.68799H490.286V13.5933Z" fill="white"/>
<path d="M537.621 55.8366H527.131L524.111 46.7872H506.006L502.914 55.8366H492.424L511.105 4.68799H518.935L537.616 55.8366H537.621ZM508.738 38.3807H521.312L515.061 19.8442L508.738 38.3807Z" fill="white"/>
<path d="M560.391 4.68799C567.362 4.68799 572.316 7.2759 575.835 12.158C578.994 16.5414 579.066 21.7837 579.066 30.2623C579.066 38.7409 578.994 43.9832 575.835 48.3666C572.316 53.2487 567.357 55.8366 560.391 55.8366H541.926V4.68799H560.391ZM551.912 13.5933V46.9258H559.526C562.901 46.9258 565.345 45.8507 566.996 43.7671C568.864 41.5394 569.08 38.3807 569.08 30.2623C569.08 22.1439 568.864 18.9852 566.996 16.7575C565.345 14.6739 562.901 13.5933 559.526 13.5933H551.912Z" fill="white"/>
<path d="M621.025 13.5933H597.318V25.5908H617.578V34.5016H597.318V46.9313H621.025V55.8422H587.333V4.68799H621.025V13.5933Z" fill="white"/>
<path d="M648.895 4.68799C659.385 4.68799 665.492 11.7978 665.492 20.3484C665.492 27.5303 661.108 32.0578 656.154 33.7812L667.575 55.8366H656.01L646.024 35.4326H638.842V55.8366H628.856V4.68799H648.9H648.895ZM638.837 13.5933V27.026H648.318C652.702 27.026 655.5 24.294 655.5 20.2709C655.5 16.2477 652.702 13.5877 648.318 13.5877H638.837V13.5933Z" fill="white"/>
<path d="M705.647 10.2186L699.324 16.4695C696.592 13.7375 693.505 12.9506 688.833 12.9506C683.519 12.9506 680.931 15.8931 680.931 19.4176C680.931 20.7808 681.363 22.0775 682.439 23.0805C683.447 24.0115 684.954 24.7319 687.11 25.0201L693.217 25.9566C697.888 26.605 700.759 27.8241 702.987 29.9798C705.719 32.5677 706.938 36.1586 706.938 40.7581C706.938 50.672 698.747 56.2745 687.975 56.2745C680.216 56.2745 674.326 54.6231 669.294 49.5193L675.761 43.0523C678.992 46.2831 683.375 47.3637 688.047 47.3637C694.009 47.3637 697.168 45.0639 697.168 40.9687C697.168 39.2453 696.664 37.81 695.589 36.7294C694.586 35.7929 693.433 35.3662 690.989 35.006L684.882 34.0695C680.571 33.4211 677.268 32.0579 674.968 29.8302C672.525 27.4584 671.306 24.0836 671.306 19.7722C671.306 10.6508 678.061 4.25586 689.122 4.25586C696.165 4.25586 701.263 5.97929 705.647 10.2186Z" fill="white"/>
<path d="M179.454 73.4033C187.933 73.4033 194.256 78.363 194.256 86.764C194.256 92.1504 191.236 96.6058 186.281 98.2572C191.812 100.197 195.048 104.652 195.048 110.615C195.048 119.736 189.013 124.552 180.036 124.552H160.641V73.4033H179.465H179.454ZM164.514 76.8502V96.6779H179.028C185.206 96.6779 190.377 93.8018 190.377 86.764C190.377 79.7262 185.206 76.8502 179.028 76.8502H164.514ZM164.514 100.125V121.1H179.598C186.57 121.1 191.164 117.22 191.164 110.609C191.164 103.998 186.564 100.119 179.598 100.119H164.514V100.125Z" fill="white"/>
<path d="M212.926 121.105H240.08V124.552H209.047V73.4033H212.926V121.105Z" fill="white"/>
<path d="M278.3 77.8589C283.044 82.6024 283.398 86.5536 283.398 98.9777C283.398 111.402 283.038 115.359 278.3 120.097C275.28 123.117 270.974 124.984 265.87 124.984C260.767 124.984 256.461 123.117 253.441 120.097C248.697 115.353 248.337 111.402 248.337 98.9777C248.337 86.5536 248.697 82.5969 253.441 77.8589C256.461 74.8442 260.767 72.9712 265.87 72.9712C270.974 72.9712 275.28 74.8387 278.3 77.8589ZM256.173 80.3747C252.51 84.0377 252.222 88.2049 252.222 98.9833C252.222 109.762 252.51 113.923 256.173 117.592C258.833 120.252 262.135 121.543 265.87 121.543C269.605 121.543 272.914 120.252 275.568 117.592C279.231 113.929 279.519 109.762 279.519 98.9833C279.519 88.2049 279.231 84.0432 275.568 80.3747C272.908 77.7148 269.605 76.4236 265.87 76.4236C262.135 76.4236 258.827 77.7148 256.173 80.3747Z" fill="white"/>
<path d="M330.378 87.9166H326.499C324.992 80.8068 319.816 76.4234 312.922 76.4234C309.187 76.4234 305.884 77.7146 303.224 80.3745C299.561 84.0375 299.273 88.2048 299.273 98.9831C299.273 109.761 299.561 113.923 303.224 117.592C305.884 120.252 309.187 121.543 312.922 121.543C316.945 121.543 320.896 119.819 323.556 116.583C325.784 113.779 326.643 110.837 326.643 106.453V101.854H312.922V98.4068H330.522V106.741C330.522 112.128 329.375 115.724 326.355 119.099C323.052 122.762 318.092 124.99 312.922 124.99C307.752 124.99 303.513 123.122 300.492 120.102C295.749 115.358 295.389 111.407 295.389 98.9831C295.389 86.5589 295.749 82.6023 300.492 77.8642C303.507 74.8496 307.818 72.9766 312.922 72.9766C321.833 72.9766 328.871 78.9393 330.378 87.9166Z" fill="white"/>
<path d="M66.1963 132C102.647 132 132.196 102.451 132.196 66C132.196 29.5492 102.647 0 66.1963 0C29.7455 0 0.196289 29.5492 0.196289 66C0.196289 102.451 29.7455 132 66.1963 132Z" fill="white"/>
<path d="M94.7624 63.2403C94.1639 63.2403 93.5931 63.4786 93.1719 63.8997C92.7508 64.3209 92.5125 64.8917 92.507 65.4901V81.738C92.507 82.7244 91.7699 83.4393 90.7724 83.4393H47.2158C46.6838 83.4393 46.174 83.6166 45.7639 83.9546L35.041 92.8322C34.9911 92.8821 34.9412 92.932 34.8913 92.9818C34.7251 93.1481 34.6752 93.1037 34.5367 93.0483C34.3981 92.9929 34.3372 92.9818 34.3372 92.7491V46.9869C34.3372 46.0005 35.0576 45.269 36.0551 45.269H75.6772C76.2757 45.269 76.8465 45.0307 77.2677 44.6095C77.6888 44.1884 77.9271 43.6176 77.9271 43.0191C77.9271 42.4206 77.6944 41.8443 77.2732 41.4176C76.852 40.9909 76.2757 40.7526 75.6772 40.7471H36.0551C32.6359 40.7471 29.8208 43.5677 29.8208 46.9813V92.7546C29.8208 94.8106 31.1508 96.5284 32.8022 97.21C34.4535 97.8917 36.5981 97.6201 38.0611 96.1738L48.0193 87.9501H90.778C94.1916 87.9501 97.0344 85.1461 97.0344 81.7269V65.4791C97.0344 64.8806 96.7906 64.3042 96.3639 63.8831C95.9372 63.4619 95.3609 63.2236 94.7624 63.2292V63.2403Z" fill="#0077C8"/>
<path d="M42.8262 68.8482C42.2221 68.8482 41.6458 69.0865 41.2191 69.5077C40.7924 69.9344 40.5541 70.5107 40.5597 71.1147C40.5597 71.7132 40.8035 72.2896 41.2302 72.7107C41.6569 73.1319 42.2332 73.3702 42.8317 73.3646H59.1627C59.7612 73.3646 60.3375 73.1319 60.7642 72.7107C61.1909 72.2896 61.4292 71.7132 61.4347 71.1147C61.4347 70.5107 61.1964 69.9344 60.7753 69.5077C60.3486 69.081 59.7723 68.8427 59.1682 68.8482H42.8372H42.8262Z" fill="#0077C8"/>
<path d="M82.1574 69.3031L103.481 48.0512C105 46.5383 105.836 44.5157 105.836 42.3544C105.836 40.1932 105.027 38.2814 103.564 36.824C102.09 35.3499 100.118 34.5464 98.0062 34.5464H97.9342C95.7951 34.563 93.7946 35.3942 92.2984 36.8905L70.9579 58.1479C70.7196 58.3862 70.5422 58.691 70.448 59.0235L67.2284 70.5832C67.1009 71.0376 67.1397 71.5197 67.3392 71.9464C67.5387 72.3731 67.8768 72.7167 68.3035 72.9162C68.7302 73.1157 69.2178 73.16 69.6667 73.0381L81.2762 69.8184C81.6087 69.7242 81.908 69.5524 82.1518 69.3086L82.1574 69.3031ZM95.1024 39.7111C95.8838 38.9298 96.8979 38.492 97.9508 38.4809C99.0148 38.5363 99.9956 38.8854 100.755 39.6391C101.497 40.3817 101.907 41.3459 101.907 42.3655C101.907 43.3852 101.47 44.4381 100.666 45.2305L99.4526 46.4386L93.9055 40.897L95.0914 39.7111H95.1024ZM72.0052 68.2723L74.1498 60.5973L74.305 60.4476L91.8662 42.9419L97.4133 48.489L79.7468 66.1L72.0108 68.2723H72.0052Z" fill="#0077C8"/>
<path d="M64.3102 59.2112C64.7369 58.79 64.9752 58.2137 64.9752 57.6152C64.9752 57.0112 64.7369 56.4349 64.3157 56.0082C63.889 55.5815 63.3127 55.3432 62.7087 55.3487H42.3213C41.7228 55.3487 41.1464 55.5926 40.7253 56.0193C40.3041 56.446 40.0658 57.0223 40.0714 57.6208C40.0714 58.2193 40.3097 58.79 40.7308 59.2112C41.152 59.6324 41.7228 59.8706 42.3213 59.8706H62.7087C63.3072 59.8706 63.8835 59.6379 64.3102 59.2167V59.2112Z" fill="#0077C8"/>
</svg>
