<svg xmlns="http://www.w3.org/2000/svg" xmlns:xlink="http://www.w3.org/1999/xlink" width="16" height="16" viewBox="0 0 16 16">
  <defs>
    <clipPath id="clip-path">
      <rect id="Rectangle_20" data-name="Rectangle 20" width="16" height="16"/>
    </clipPath>
  </defs>
  <g id="social-link" clip-path="url(#clip-path)">
    <path id="Path_77" data-name="Path 77" d="M8.687,1.245a4.232,4.232,0,0,1,6.049.054,4.525,4.525,0,0,1,.052,6.218l-.009.01L12.665,9.7s0,0,0,0a4.3,4.3,0,0,1-1.544,1.02,4.21,4.21,0,0,1-3.577-.263A4.353,4.353,0,0,1,6.158,9.221a.83.83,0,0,1,.16-1.14.779.779,0,0,1,1.109.164,2.754,2.754,0,0,0,.877.782,2.664,2.664,0,0,0,2.263.167,2.722,2.722,0,0,0,.977-.645l2.109-2.167a2.863,2.863,0,0,0-.038-3.929,2.677,2.677,0,0,0-3.823-.038L8.584,3.647a.777.777,0,0,1-1.121,0,.831.831,0,0,1,0-1.152Z" fill-rule="evenodd"/>
    <path id="Path_78" data-name="Path 78" d="M4.878,5.28a4.21,4.21,0,0,1,3.577.263A4.352,4.352,0,0,1,9.842,6.779a.83.83,0,0,1-.16,1.14.779.779,0,0,1-1.109-.164A2.754,2.754,0,0,0,7.7,6.973a2.664,2.664,0,0,0-2.263-.167,2.723,2.723,0,0,0-.977.645L2.347,9.619a2.863,2.863,0,0,0,.038,3.929,2.677,2.677,0,0,0,3.822.039l1.2-1.233a.777.777,0,0,1,1.121,0,.831.831,0,0,1,0,1.152L7.313,14.755A4.232,4.232,0,0,1,1.264,14.7a4.525,4.525,0,0,1-.053-6.218l.01-.01L3.335,6.3h0A4.3,4.3,0,0,1,4.878,5.28Z" fill-rule="evenodd"/>
  </g>
</svg>
