<?xml version="1.0" encoding="UTF-8"?>
<svg id="Layer_1" xmlns="http://www.w3.org/2000/svg" version="1.1" viewBox="0 0 213 219">
  <!-- Generator: Adobe Illustrator 29.6.1, SVG Export Plug-In . SVG Version: 2.1.1 Build 9)  -->
  <path d="M26.3,87.3c.4.3,9.8,7.1,27.6,7.1h.2c3.1,0,6.2-.2,9.4-.7,2.4-.4,4-2.6,3.7-5-.4-2.4-2.6-4-4.9-3.7-2.7.4-5.5.6-8.3.6-7.1.2-14.2-1.3-20.6-4.4v-14.1c0-6.8,5.5-12.3,12.3-12.3h16.7c1.4,0,2.8.2,4.1.7,1.1.4,2.3.4,3.3-.1s1.9-1.4,2.3-2.4c.4-1.1.4-2.3-.1-3.3s-1.4-1.9-2.4-2.3c-.1,0-.2,0-.4-.1,4.2-5.5,5.1-12.9,2.2-19.3-3.1-6.8-9.8-11.1-17.2-11.1h0c-7.4,0-14.1,4.3-17.2,11.1-2.9,6.4-2,13.8,2.1,19.3-8.4,2.9-14.2,10.9-14.3,19.9v16.6c0,1.4.7,2.7,1.8,3.5h-.3ZM53.9,25.7c5.6,0,10.2,4.6,10.2,10.2s-4.5,10.2-10.3,10.3c-5.6,0-10.1-4.6-10.1-10.2s4.6-10.2,10.2-10.2h0Z"/>
  <path d="M143.9,47.4c-1.1.4-2,1.2-2.5,2.3s-.5,2.2-.1,3.3,1.2,2,2.3,2.5,2.2.5,3.3.1c1.3-.5,2.7-.7,4.1-.7h16.7c6.8,0,12.3,5.5,12.3,12.3v14.1c-6.4,3.1-13.5,4.6-20.6,4.4-2.7,0-5.5-.2-8.2-.6-2.4-.4-4.6,1.3-4.9,3.7-.4,2.4,1.3,4.6,3.7,5,3.1.4,6.3.7,9.4.7h.2c17.8,0,27.2-6.8,27.6-7.1,1.1-.8,1.8-2.1,1.8-3.5v-16.6c0-9-5.8-17-14.3-19.9,2.5-3.2,3.8-7.2,3.9-11.3,0-6.2-3-12.1-8.1-15.7s-11.6-4.4-17.5-2.2c-5.8,2.2-10.2,7.1-11.8,13.1-1.4,5.6-.2,11.5,3.3,16.1-.1,0-.2,0-.4.1h-.2ZM169.5,35.9c0,5.6-4.5,10.2-10.3,10.3-5.6,0-10.1-4.6-10.1-10.2s4.6-10.2,10.2-10.2,10.2,4.6,10.2,10.1h0Z"/>
  <path d="M199.5,151.5c.1-.4.3-.8.4-1.1.8-1.9,1.4-3.9,2.1-5.8.3-1,.6-1.9.9-2.9.5-1.6.9-3.1,1.2-4.7.2-.8.4-1.6.5-2.4.5-2.4,1-4.9,1.3-7.3h0c.3-2.6.5-5.2.7-7.7v-1.3c.1-2.5.1-5,0-7.5v-.2c0-2.7-.3-5.3-.6-8,0-.3,0-.7-.1-1-.3-2.2-.6-4.4-1-6.6-.1-.6-.2-1.2-.3-1.8-.5-2.5-1.1-5-1.8-7.4l-.4-1.3-.2.2h0c-.2-.4-.5-.7-.8-.9h0c-.3-.2-.6-.4-1-.6h-.2c-.4-.1-.8-.2-1.2-.2h-.3c-.4,0-.8,0-1.2.1h0c-2.3.7-3.6,3.1-3,5.4,2,6.9,3.2,14.1,3.5,21.4h-32.2v-2.3c0-.6-.2-1.2-.5-1.7-.2-.5-.5-.9-1-1.3-.9-.8-2-1.2-3.2-1.1-1.1,0-2.2.6-3,1.4,0,0-.1.2-.2.3-.2.3-.4.6-.6,1,0,.2-.1.3-.1.5s-.1.3-.1.5h0v2.8H56.3v-2.8h0c0-.2-.1-.3-.1-.5s0-.3-.1-.5c-.1-.4-.4-.7-.6-1,0,0-.1-.2-.2-.3-.8-.9-1.9-1.4-3-1.4s-2.3.4-3.1,1.1c-.4.4-.7.8-.9,1.2-.3.5-.5,1.1-.5,1.8v2.4H15.6c.3-7.2,1.5-14.4,3.5-21.4.7-2.3-.7-4.7-3-5.4h0c-.4-.1-.8-.1-1.2-.2h-.3c-.4,0-.8,0-1.2.2h0c-.3.1-.7.3-1,.5,0,0,0,0-.2.1-.3.2-.6.5-.8.8h0l-.2-.3-.5,1.7c-.7,2.5-1.3,4.9-1.8,7.4,0,.6-.2,1.2-.3,1.7-.4,2.2-.8,4.4-1.1,6.6,0,.3,0,.7,0,1-.3,2.7-.5,5.3-.6,8v9c0,2.6.4,5.1.7,7.6h0c.3,2.6.8,5,1.3,7.4.2.8.4,1.6.6,2.4.4,1.6.8,3.1,1.2,4.7.3,1,.5,1.9.8,2.9.7,2,1.4,4.1,2.2,6.1,0,.3.2.6.3.9,0,.1,0,.2.2.3,1.8,4.5,4,8.8,6.5,13v.2c.2.3.4.7.6,1,.4.7.9,1.4,1.3,2.1.7,1,1.3,2,2,3,.4.6.9,1.3,1.4,1.9.7,1,1.5,2,2.3,3,.2.2.3.4.5.6.4.5.8.9,1.1,1.3.7.8,1.4,1.7,2.1,2.5.6.6,1.2,1.3,1.8,1.9.7.8,1.4,1.5,2.2,2.3s1.3,1.3,2,1.9c.7.7,1.5,1.4,2.2,2.1.7.6,1.5,1.2,2.2,1.9.7.6,1.5,1.2,2.2,1.8.9.7,1.7,1.3,2.6,1.9,1.2.9,2.4,1.7,3.6,2.6,1,.7,2,1.4,3.1,2,.8.5,1.6,1,2.5,1.4.8.5,1.6,1,2.5,1.4.9.5,1.8.9,2.7,1.4.8.4,1.6.8,2.4,1.2.9.4,1.9.8,2.8,1.2.8.4,1.6.7,2.5,1.1s1.9.7,2.9,1.1c.9.3,1.7.6,2.6.9,1,.3,1.9.6,2.9.9.9.3,1.8.5,2.6.8,1,.3,1.9.5,2.9.8.9.2,1.9.4,2.8.6.9.2,1.9.4,2.9.6s2,.3,3,.5c.9.1,1.8.3,2.8.4,1.1.1,2.1.2,3.2.3.6,0,1.2.1,1.9.2h.7c2.1.1,4.2.2,6.4.2h.2c2.1,0,4.2,0,6.4-.2h.7c.6,0,1.3-.1,1.9-.2,1.1-.1,2.1-.2,3.2-.3.9-.1,1.9-.2,2.8-.4,1-.1,1.9-.3,2.9-.5s1.9-.4,2.9-.6c.9-.2,1.8-.4,2.7-.6,1-.2,2-.5,3-.8.9-.2,1.7-.5,2.6-.8,1-.3,2-.6,3-1,.8-.3,1.6-.6,2.5-.9,1-.4,2-.7,2.9-1.1.8-.3,1.6-.7,2.4-1,1-.4,1.9-.8,2.9-1.3.8-.4,1.6-.8,2.4-1.2.9-.5,1.8-.9,2.7-1.4.8-.4,1.6-.9,2.4-1.4.9-.5,1.7-1,2.6-1.5,1-.6,2-1.3,2.9-1.9,1.3-.9,2.5-1.8,3.8-2.7.9-.6,1.7-1.3,2.6-1.9.7-.6,1.5-1.2,2.2-1.8.8-.6,1.5-1.2,2.2-1.9.8-.7,1.5-1.4,2.2-2.1.7-.6,1.4-1.3,2-1.9s1.5-1.5,2.2-2.3c.6-.6,1.2-1.3,1.8-1.9.7-.8,1.4-1.7,2.1-2.5.4-.4.8-.9,1.1-1.3.2-.2.3-.4.5-.6.8-1,1.5-2,2.3-3,.5-.6.9-1.3,1.4-1.9.7-1,1.4-2,2-3,.5-.7.9-1.4,1.3-2.1.2-.3.4-.7.6-1v-.2c2.5-4.2,4.6-8.5,6.5-13,0-.1.1-.2.2-.3h-.4ZM36.1,171.8c-.2-.2-.4-.4-.5-.6-1-1.3-2-2.6-3-3.9-.7-.9-1.3-1.9-1.9-2.8-.2-.3-.4-.7-.6-1-5.4-8.4-9.4-17.7-11.9-27.4v-.3c-.4-1.3-.7-2.7-1-4-.3-1.5-.6-3.1-.8-4.6,0-.9-.2-1.8-.3-2.7-.2-1.7-.4-3.5-.5-5.2v-.8h32.2c.3,18.9,4.1,37.3,11.4,54.8-4.9,2.3-9.7,5-14.3,7.9-1.6-1.5-3.1-3-4.6-4.5,0,0-.1-.2-.2-.2-1.3-1.4-2.6-2.9-3.8-4.4h0l-.2-.3ZM101.1,204.7c-11.6-2.3-22.4-11.8-30.6-27,6.3-2.4,12.8-4.1,19.4-5.2,4.1-.7,8.2-1.2,12.3-1.4v34c-.4,0-.7-.2-1.1-.3h0ZM62.8,181c2.8,5.4,6.1,10.3,10,14.9.1.1.3.3.4.4,1.1,1.3,2.3,2.6,3.6,3.9-8.9-3.1-17.3-7.6-24.9-13.3,1.5-.9,2.9-1.7,4.4-2.5,2.1-1.2,4.3-2.3,6.6-3.4h-.1ZM102.2,162.3c-12.2.5-24.1,3.1-35.5,7.5-6.7-16.4-10.2-33.7-10.5-51.4h46v43.9h0ZM146.4,169.8c-11.4-4.4-23.3-6.9-35.5-7.5v-43.9h46c-.3,17.7-3.8,35-10.5,51.4h0ZM110.9,204.9v-34c7.2.3,14.3,1.5,21.2,3.4,3.5.9,7,2,10.5,3.3-8.3,15.5-19.3,25-31.1,27.1-.2,0-.4.1-.6.1h0ZM161.5,186.9c-7.6,5.7-16,10.2-24.9,13.3,1.2-1.2,2.4-2.5,3.6-3.9.1-.1.3-.3.4-.4,1.2-1.4,2.4-2.9,3.5-4.4,0,0,.1-.2.2-.3,2.4-3.2,4.4-6.6,6.3-10.2,2.5,1.2,4.9,2.4,7.2,3.8,1.3.7,2.5,1.4,3.8,2.1h-.1ZM197.4,124.4c-.1.9-.2,1.8-.3,2.7-.2,1.6-.5,3.1-.8,4.7-.3,1.4-.6,2.7-.9,4v.3c-2.5,9.7-6.5,18.9-11.9,27.4-.2.3-.4.7-.6,1-.6.9-1.3,1.9-1.9,2.8-1,1.4-2,2.7-3,4-.1.2-.3.4-.5.5-1.2,1.5-2.5,3-3.9,4.4l-.2.2c-1.5,1.6-3,3.1-4.6,4.5-4.6-2.9-9.4-5.5-14.3-7.9,7.3-17.5,11.1-35.9,11.4-54.8h32.2v.8c-.1,1.8-.3,3.5-.5,5.2h0l-.2.2Z"/>
  <path d="M75.6,57.8c-.1.3-.3.6-.4.9-.4.8-.7,1.5-1,2.3-.2.4-.3.9-.4,1.3-.2.7-.4,1.5-.6,2.2,0,.4-.2.8-.2,1.3-.2,1.2-.3,2.4-.3,3.6h0v19.8c0,1.4.6,2.7,1.7,3.5,0,0,.4.3,1.1.7,3.2,2,13.5,7.6,31.2,7.6s31.8-7.9,32.3-8.3c1.1-.8,1.7-2.1,1.7-3.5v-19.8h0c0-1.2-.1-2.4-.3-3.6,0-.4-.2-.8-.2-1.2-.1-.8-.3-1.5-.6-2.2-.1-.4-.3-.9-.4-1.3-.3-.8-.6-1.6-1-2.3-.1-.3-.2-.6-.4-.9,0-.1,0-.2-.1-.3l-.2-.2c-2.8-4.9-7.3-8.7-12.9-10.6-.1,0-.3-.2-.4-.2-.2,0-.5-.1-.7-.2h-.1c.3-.4.6-.8.9-1.2.3-.4.6-.8.9-1.3s.2-.5.4-.7c.4-.6.7-1.3,1-1.9,0-.2.1-.4.2-.5.3-.7.6-1.5.8-2.2,0-.2,0-.4.1-.6.2-.8.4-1.6.5-2.3v-.4c.1-.8.2-1.7.2-2.5v-.3c0-.9,0-1.8-.1-2.6h0c-.2-2-.8-3.9-1.5-5.7-.4-1-.9-2-1.5-2.9-.1-.2-.3-.3-.4-.5-.5-.7-.9-1.4-1.5-2-.3-.4-.7-.7-1-1-.4-.4-.8-.8-1.2-1.2-.4-.4-.9-.7-1.4-1.1-.4-.3-.7-.6-1-.8-.5-.3-1.1-.6-1.7-.9-.4-.2-.7-.4-1-.6-.6-.3-1.1-.4-1.7-.7s-.8-.3-1.2-.5c-.5-.2-1.1-.2-1.7-.4-.5,0-.9-.2-1.4-.3-.5,0-1.1,0-1.6,0-.5,0-1,0-1.6,0h0c-.5,0-1.1,0-1.6,0-.5,0-1.1,0-1.6,0-.5,0-1,.2-1.5.3-.5,0-1.1.2-1.6.4-.4,0-.9.3-1.3.5-.5.2-1.1.4-1.6.6-.4.2-.8.4-1.2.7-.5.3-1.1.6-1.6.9-.4.3-.8.6-1.2.9s-.9.6-1.3,1c-.5.4-.9.9-1.3,1.4-.3.3-.6.6-.8.9-.6.7-1.2,1.5-1.7,2.3,0,0-.1,0-.2.2-.6.9-1.1,1.9-1.5,2.9-.8,1.8-1.2,3.7-1.5,5.6v.2c-.1.8-.1,1.7-.1,2.5s0,.3,0,.5c0,.8,0,1.6.2,2.4v.6c.1.8.3,1.5.5,2.3,0,.2,0,.4.1.6.2.7.5,1.5.8,2.2,0,.2.1.4.2.6.3.7.7,1.3,1,1.9.1.2.2.5.4.7.3.4.6.9.9,1.3.3.4.5.8.9,1.2h-.1c-.2,0-.5.1-.7.2-.1,0-.3.2-.4.2-5.6,1.9-10.1,5.7-12.9,10.6,0,0-.2.1-.2.2s0,.2-.1.3h0l-.3-.6ZM81.6,66.6c0-.2,0-.4.1-.6.2-.9.5-1.8.8-2.6h0c1.9-4.4,5.8-7.7,10.5-8.9.3,0,.6-.2.9-.2.9-.2,1.9-.3,2.8-.3h19.8c1,0,1.9.1,2.8.3.3,0,.6.1.9.2,4.7,1.2,8.6,4.5,10.5,8.9h0c.4.8.6,1.7.8,2.6,0,.2,0,.4.1.6.2.9.3,1.8.3,2.7v17.3c-7.8,3.9-16.5,5.8-25.3,5.5h-3.2c-6.5-.2-13-1.6-19-4.1h0c-1-.4-2-.9-3-1.4v-17.3h0c0-.9.1-1.8.3-2.7h-.1ZM93.9,30c0-.2,0-.4.1-.6.2-.8.4-1.5.7-2.2v-.2c.3-.7.6-1.3,1.1-1.9,0,0,.2-.2.2-.3.4-.6.8-1.1,1.3-1.6,0,0,.1,0,.2-.2,1.1-1.1,2.4-2,3.9-2.7.1,0,.2,0,.4,0,.6-.2,1.2-.4,1.9-.6.2,0,.4,0,.6,0,.8-.2,1.6-.2,2.4-.2s1.6,0,2.4.2c.2,0,.4,0,.6,0,.6.2,1.3.3,1.9.6.1,0,.2,0,.4,0,1.5.6,2.8,1.5,3.9,2.7,0,0,.1,0,.2.2.5.5.9,1,1.3,1.6,0,0,.2.2.2.3.4.6.8,1.2,1,1.9v.2c.3.7.5,1.4.7,2.2,0,.2,0,.4.1.6.1.6.2,1.2.2,1.8v1.8c0,.3,0,.6-.1.8,0,.3-.1.7-.2,1,0,.3-.1.6-.2.9,0,.3-.2.5-.3.8s-.3.7-.4,1c-.1.2-.2.4-.4.6-.2.3-.4.7-.6,1-.1.2-.3.3-.4.5-.3.3-.5.6-.8.9l-.5.5c-.3.3-.6.5-.9.8-.2.2-.5.3-.7.5-.3.2-.6.4-.8.5-.3.2-.6.3-.9.5-.2.1-.5.2-.7.3-.4.1-.7.3-1.1.4-.2,0-.5.1-.7.2-.4,0-.7.1-1.1.2-.3,0-.5,0-.8.1h-1.9c-.3,0-.6,0-.9-.1-.3,0-.7-.1-1-.2-.3,0-.5-.1-.8-.2-.4-.1-.7-.2-1.1-.4-.3-.1-.5-.2-.8-.3s-.6-.3-.9-.5c-.3-.2-.6-.3-.8-.5s-.5-.3-.7-.5c-.3-.2-.6-.5-.9-.8-.2-.2-.4-.3-.5-.5-.3-.3-.6-.6-.8-.9-.1-.2-.3-.3-.4-.5-.2-.3-.4-.7-.6-1-.1-.2-.2-.4-.4-.6-.2-.3-.3-.7-.4-1-.1-.3-.2-.5-.3-.8s-.2-.6-.2-.9-.2-.6-.2-1,0-.6-.1-.8v-1.8c0-.6,0-1.2.2-1.8h-.6Z"/>
</svg>