<svg width="34" height="35" viewBox="0 0 34 35" fill="none" xmlns="http://www.w3.org/2000/svg">
<path d="M33.2214 11.5231C32.9203 10.5581 32.5279 9.61523 32.0589 8.7193C31.5554 7.75674 30.4719 7.28286 29.4254 7.56422L27.6089 8.05044C27.5546 8.06525 27.5299 8.05785 27.4904 8.01836L25.5036 6.03152C25.4641 5.99203 25.4567 5.96735 25.4715 5.91305L25.9577 4.09651C26.2391 3.04755 25.7627 1.96405 24.8026 1.46302C23.9043 0.994074 22.9614 0.601643 21.9989 0.300532C20.9647 -0.0252609 19.859 0.404192 19.316 1.34702L18.3757 2.97598C18.3485 3.02534 18.3238 3.03768 18.2695 3.03768H15.4608C15.4065 3.03768 15.3818 3.02534 15.3547 2.97598L14.4143 1.34702C13.8713 0.40666 12.7705 -0.0227928 11.7315 0.300532C10.7689 0.601643 9.8236 0.994074 8.92767 1.46302C7.9651 1.96652 7.49122 3.05002 7.77259 4.09651L8.25881 5.91305C8.27362 5.96735 8.26621 5.99203 8.22672 6.03152L6.24235 8.01836C6.20286 8.05785 6.17818 8.06278 6.12388 8.05044L4.30981 7.56422C3.26333 7.28286 2.17982 7.75674 1.67385 8.7193C1.20491 9.61523 0.812476 10.5605 0.511365 11.5231C0.185572 12.5597 0.617495 13.663 1.55785 14.2059L3.18681 15.1463C3.23617 15.1735 3.24852 15.1981 3.24852 15.2697C3.24852 15.8917 3.75448 16.3976 4.37645 16.3976C4.99842 16.3976 5.50438 15.8917 5.50438 15.2697V15.2549C5.50438 14.396 5.06012 13.6235 4.31475 13.194L2.68578 12.2537C2.66357 12.2413 2.65863 12.2265 2.66604 12.2018C2.92766 11.3676 3.26826 10.5482 3.6755 9.76826C3.68537 9.74851 3.69771 9.73864 3.72733 9.74605L5.5414 10.2323C6.37069 10.4544 7.23207 10.2249 7.83923 9.61524L9.82607 7.62839C10.4332 7.02124 10.6652 6.16233 10.4431 5.33057L9.95688 3.51403C9.95194 3.49429 9.95935 3.47454 9.97662 3.46467C10.7541 3.05743 11.5735 2.71683 12.4102 2.4552C12.4398 2.44533 12.4522 2.4552 12.4645 2.47495L13.4048 4.10391C13.8343 4.84929 14.6044 5.29355 15.4657 5.29355H18.2745C19.1334 5.29355 19.9059 4.84929 20.3353 4.10391L21.2757 2.47495C21.288 2.45274 21.3028 2.4478 21.3275 2.4552C22.1618 2.71683 22.9812 3.05743 23.7611 3.46467C23.7833 3.47701 23.7907 3.48935 23.7833 3.5165L23.2971 5.33304C23.075 6.1648 23.3045 7.0237 23.9117 7.63086L25.8985 9.6177C26.5057 10.2249 27.3646 10.4569 28.1963 10.2323L30.0104 9.74605C30.04 9.73864 30.0524 9.74604 30.0622 9.76826C30.4695 10.5457 30.8076 11.3651 31.0717 12.2018C31.0791 12.2265 31.0742 12.2389 31.0519 12.2537L29.4205 13.194C28.6751 13.6235 28.2309 14.396 28.2309 15.2697C28.2309 15.8917 28.7368 16.3976 29.3588 16.3976C29.9808 16.3976 30.4867 15.8917 30.4867 15.25C30.4867 15.1981 30.4991 15.1759 30.546 15.1463L32.1749 14.2059C33.1153 13.663 33.5448 12.5597 33.219 11.5231H33.2214Z" fill="black"/>
<path d="M11.0355 15.7337C11.5909 12.9669 14.0417 10.9604 16.8628 10.9604C19.6838 10.9604 22.1347 12.9694 22.69 15.7337C22.7961 16.2619 23.2601 16.6445 23.7957 16.6445C24.1363 16.6445 24.4547 16.4939 24.6719 16.2298C24.8866 15.9682 24.9706 15.6301 24.9064 15.3018C24.1462 11.4787 20.7624 8.70203 16.8628 8.70203C12.9631 8.70203 9.57933 11.4787 8.81915 15.3018C8.75251 15.6301 8.83889 15.9682 9.05362 16.2298C9.27081 16.4939 9.5892 16.6445 9.9298 16.6445C10.4654 16.6445 10.9294 16.2619 11.0355 15.7337Z" fill="black"/>
<path d="M29.1071 19.0509C28.7961 19.0509 28.5 19.1817 28.2902 19.4112C28.0804 19.6408 27.9743 19.9493 28.0014 20.2603C28.036 20.6576 28.0532 20.438 28.0532 20.591C28.0532 26.8798 22.9294 31.9937 16.6332 31.9937C14.2589 31.9937 11.9882 31.278 10.0655 29.9254C9.75456 29.7058 9.35226 29.6613 8.98945 29.8119L6.22268 30.9966L7.40984 28.215C7.56287 27.8571 7.51597 27.4499 7.28397 27.1241C5.93884 25.2261 5.22802 22.9678 5.22802 20.5935C5.22802 20.4404 5.2453 20.6527 5.27985 20.2627C5.307 19.9517 5.20334 19.6432 4.99355 19.4137C4.78376 19.1842 4.48512 19.0533 4.1766 19.0533C3.60153 19.0533 3.11778 19.5025 3.07088 20.0751C3.03386 20.554 3.01411 20.396 3.01411 20.5935C3.01411 23.2121 3.74715 25.737 5.1367 27.9016L3.10297 32.67C2.92279 33.0871 3.01658 33.5659 3.33991 33.8892C3.65336 34.2002 4.15686 34.2965 4.55916 34.1237L9.3103 32.0875C11.4921 33.4771 14.0195 34.2126 16.6332 34.2126C24.1536 34.2126 30.2696 28.104 30.2696 20.5935C30.2696 20.3985 30.2499 20.554 30.2128 20.0751C30.166 19.5025 29.6822 19.0558 29.1071 19.0558V19.0509Z" fill="black"/>
<path d="M10.4011 22.0743H23.6821C24.2917 22.0743 24.7878 21.5782 24.7878 20.9686C24.7878 20.359 24.2917 19.8629 23.6821 19.8629H10.4011C9.7915 19.8629 9.29541 20.359 9.29541 20.9686C9.29541 21.5782 9.7915 22.0743 10.4011 22.0743Z" fill="black"/>
</svg>
