<?xml version="1.0" encoding="UTF-8"?>
<svg id="Layer_1" xmlns="http://www.w3.org/2000/svg" version="1.1" viewBox="0 0 220.5 219.2">
  <!-- Generator: Adobe Illustrator 29.6.1, SVG Export Plug-In . SVG Version: 2.1.1 Build 9)  -->
  <path d="M35.5,184.8c16.6,16.6,38.4,27.1,61.7,29.8s46.9-2.5,67-14.7c2.3-1.5,3-4.5,1.6-6.8s-4.4-3.1-6.8-1.7c-22.7,13.8-50.2,17.5-75.7,10.2-25.6-7.3-46.9-25-58.8-48.8-11.9-23.8-13.3-51.4-3.9-76.3,1,.2,1.9.3,2.9.3,7.3,0,13.8-4.4,16.6-11.1,2.8-6.7,1.2-14.4-4-19.6-7-7-18.4-6.9-25.4.1s-6.9,18.4,0,25.4.4.3.7.5h0c-7.5,19.1-9.3,39.9-5,59.9,4.2,20,14.3,38.4,28.9,52.7h.1ZM17.9,53.2c1.9-1.9,4.5-2.7,7.1-2.2s4.8,2.3,5.8,4.7.8,5.2-.7,7.4-3.9,3.5-6.6,3.6h0c-3.2,0-6.1-1.9-7.3-4.9-1.2-2.9-.6-6.4,1.7-8.6h0Z"/>
  <path d="M183.5,35.6c-16.6-16.6-38.4-27.1-61.7-29.8-23.3-2.7-46.9,2.4-67,14.7-2.4,1.4-3.1,4.5-1.7,6.9,1.4,2.4,4.5,3.1,6.9,1.7,22.7-13.8,50.2-17.5,75.7-10.2,25.6,7.3,46.9,25,58.8,48.8s13.3,51.4,3.8,76.3c-1-.2-2-.3-3-.3-7.3,0-13.8,4.4-16.5,11.2-2.7,6.7-1.2,14.4,4,19.5h0c7,7,18.4,6.9,25.4-.1s6.9-18.4-.1-25.4c-.2-.2-.4-.3-.6-.5,7.5-19.1,9.3-39.9,5-60-4.2-20-14.3-38.4-28.9-52.8h0ZM201,167.2h0c-1.9,1.9-4.5,2.7-7.1,2.2s-4.8-2.3-5.8-4.7c-1-2.4-.8-5.2.7-7.4s3.9-3.5,6.6-3.6h0c3.2,0,6.1,1.9,7.3,4.9,1.2,2.9.6,6.4-1.7,8.6h0Z"/>
  <path d="M88.3,159.7h.3c35.6-8.6,59.6-30.5,64-58.8,2.6-19.9-2.2-40.1-13.3-56.8-.9-1.4-2.3-2.2-3.9-2.3-1.6,0-3.1.6-4.2,1.8-9.1,10.4-19.6,19.6-31,27.4-17,12.4-31.7,23-30.6,48.2.6,11.7,3.8,23.2,9.3,33.6-2.6,6.5-5,13.5-7.2,21.1-.8,2.7.8,5.4,3.4,6.2,2.7.8,5.4-.8,6.2-3.4,1.7-5.9,3.6-11.4,5.5-16.6.3,0-.3,0,0,0l.8-2.2c0-.2.1-.3.2-.5l.5,2.4h0ZM84.2,140.6h0c-2.7-6.9-4.2-14.3-4.6-21.7-.8-19.8,10.1-27.7,26.5-39.7,10.1-7,19.6-14.9,28.1-23.8,7.5,13.4,10.4,28.8,8.5,44.1-5,31.5-35.8,44.5-51.2,49.1,7.7-18.4,18.9-35,33.1-49,2-1.8,2.2-4.9.4-6.9-1.8-2.1-4.8-2.4-6.9-.7-14.4,13.8-25.9,30.4-33.9,48.6h0Z"/>
</svg>