<svg width="45" height="64" viewBox="0 0 45 64" fill="none" xmlns="http://www.w3.org/2000/svg">
<g clip-path="url(#clip0_2644_5380)">
<g clip-path="url(#clip1_2644_5380)">
<path d="M8.61002 32.1247H23.3792C24.0581 32.1247 24.6045 31.5762 24.6045 30.8948C24.6045 30.2135 24.0581 29.665 23.3792 29.665H8.61002C7.93116 29.665 7.38477 30.2135 7.38477 30.8948C7.38477 31.5762 7.93116 32.1247 8.61002 32.1247Z" fill="#0077C8"/>
<path d="M12.9645 49.1757H4.91756C3.55985 49.1757 2.4505 48.0789 2.4505 46.6995V17.3004C2.4505 15.9376 3.55985 14.8241 4.91756 14.8241H19.6868V22.2362C19.6868 23.599 20.7961 24.7125 22.1538 24.7125H29.5385V46.6995C29.5385 48.0622 28.4291 49.1757 27.0714 49.1757H19.753V51.652H27.0714C29.7868 51.652 31.989 49.4416 31.989 46.7161V22.2528L23.3791 12.3645H4.91756C2.20214 12.3645 0 14.5748 0 17.3004V46.6995C0 49.425 2.20214 51.6353 4.91756 51.6353H12.9645V49.1591V49.1757ZM22.1538 15.0236L28.5781 22.2362H22.1538V15.0236Z" fill="#0077C8"/>
<path d="M35.6975 0H17.2359C14.5205 0 12.3184 2.21034 12.3184 4.93586V8.64191C12.3184 9.32329 12.8648 9.87172 13.5436 9.87172C14.2225 9.87172 14.7689 9.32329 14.7689 8.64191V4.93586C14.7689 3.5731 15.8782 2.45962 17.2359 2.45962H32.0051V9.87172C32.0051 11.2345 33.1145 12.348 34.4722 12.348H41.8568V34.335C41.8568 35.6977 40.7475 36.8112 39.3898 36.8112H35.6975C35.0186 36.8112 34.4722 37.3596 34.4722 38.041C34.4722 38.7224 35.0186 39.2708 35.6975 39.2708H39.3898C42.1052 39.2708 44.3073 37.0605 44.3073 34.335V9.88834L35.6975 0ZM34.4722 9.88834V2.65905L40.8965 9.87172H34.4722V9.88834Z" fill="#0077C8"/>
<path d="M8.61002 39.5368H23.3792C24.0581 39.5368 24.6045 38.9883 24.6045 38.307C24.6045 37.6256 24.0581 37.0771 23.3792 37.0771H8.61002C7.93116 37.0771 7.38477 37.6256 7.38477 38.307C7.38477 38.9883 7.93116 39.5368 8.61002 39.5368Z" fill="#0077C8"/>
<path d="M8.61002 24.7125H13.5276C14.2064 24.7125 14.7528 24.1641 14.7528 23.4827C14.7528 22.8014 14.2064 22.2529 13.5276 22.2529H8.61002C7.93116 22.2529 7.38477 22.8014 7.38477 23.4827C7.38477 24.1641 7.93116 24.7125 8.61002 24.7125Z" fill="#0077C8"/>
<path fill-rule="evenodd" clip-rule="evenodd" d="M8.97427 54.1118C8.29542 54.1118 7.74902 54.6602 7.74902 55.3416C7.74902 55.6906 7.88148 55.9897 8.11329 56.2224L15.4979 63.6345C15.7131 63.8506 16.0277 64.0001 16.3754 64.0001C16.7232 64.0001 17.0212 63.8672 17.253 63.6345L24.6376 56.2224C24.8529 56.0064 25.0019 55.6906 25.0019 55.3416C25.0019 54.6602 24.4555 54.1118 23.7766 54.1118C23.4455 54.1118 23.1309 54.2447 22.8991 54.4774L17.6173 59.7789V44.722C17.6173 44.0406 17.0709 43.4756 16.392 43.4756C15.7131 43.4756 15.1668 44.024 15.1668 44.7054V59.7789L9.88493 54.4774C9.66969 54.2614 9.3551 54.1118 9.00739 54.1118" fill="#0077C8"/>
</g>
</g>
<defs>
<clipPath id="clip0_2644_5380">
<rect width="45" height="64" fill="white"/>
</clipPath>
<clipPath id="clip1_2644_5380">
<rect width="44.3077" height="64" fill="white"/>
</clipPath>
</defs>
</svg>
