<svg width="21" height="22" viewBox="0 0 21 22" fill="none" xmlns="http://www.w3.org/2000/svg">
<path fill-rule="evenodd" clip-rule="evenodd" d="M9.14048 17.6279C4.40063 17.6279 0.558228 13.8406 0.558228 9.16868C0.558228 4.49679 4.40063 0.709473 9.14048 0.709473C13.8803 0.709473 17.7227 4.49679 17.7227 9.16868C17.7227 11.4913 16.773 13.5953 15.2355 15.124L20.5579 20.3701L19.6243 21.2903L14.2342 15.9775C12.8095 17.0147 11.0476 17.6279 9.14048 17.6279ZM9.14048 16.3265C13.1511 16.3265 16.4024 13.1218 16.4024 9.16868C16.4024 5.21554 13.1511 2.01089 9.14048 2.01089C5.12984 2.01089 1.87857 5.21554 1.87857 9.16868C1.87857 13.1218 5.12984 16.3265 9.14048 16.3265Z" fill="white"/>
</svg>
