<svg width="33" height="21" viewBox="0 0 33 21" fill="none" xmlns="http://www.w3.org/2000/svg">
<path d="M18.8567 7.39453L24.4133 20.732L26.386 14.9239L32.1941 12.9511L18.8567 7.39453Z" fill="#BCC2C7"/>
<path fill-rule="evenodd" clip-rule="evenodd" d="M29.7926 8.38471L16.4463 1.92769L3.1918 8.3849L16.4435 14.8407L19.9709 13.1348L20.425 14.2247L16.4416 16.1512L0.5 8.3849L16.4445 0.617188L32.5 8.3849L28.7037 10.2209L27.2491 9.61484L29.7926 8.38471ZM21.0338 12.6207L25.8304 10.3009L27.2851 10.907L21.4879 13.7106L21.0338 12.6207Z" fill="#BCC2C7"/>
<path fill-rule="evenodd" clip-rule="evenodd" d="M26.2996 14.8367C26.5298 14.6065 26.903 14.6065 27.1332 14.8367L31.8489 19.5524C32.0791 19.7826 32.0791 20.1558 31.8489 20.386C31.6187 20.6162 31.2454 20.6162 31.0153 20.386L26.2996 15.6703C26.0694 15.4401 26.0694 15.0669 26.2996 14.8367Z" fill="#BCC2C7"/>
</svg>
