<svg width="32" height="28" viewBox="0 0 32 28" fill="none" xmlns="http://www.w3.org/2000/svg">
<path d="M2.3234e-10 27.6184L5.26091e-07 21.6033C2.0831 21.3063 3.57103 20.5637 4.53818 19.3755C5.50533 18.1873 5.95171 16.5536 5.95171 14.4L1.15582e-06 14.4L2.34388e-06 0.810281L13.6145 0.810282L13.6145 12.5435C13.9121 21.6776 7.21645 27.767 2.3234e-10 27.6184ZM18.3759 27.6184L18.3759 21.6033C20.459 21.3063 21.9469 20.5637 22.9141 19.3755C23.8812 18.1873 24.3276 16.5536 24.3276 14.4L18.3759 14.4L18.3759 0.810282L31.9904 0.810284L31.9904 12.5435C32.288 21.6776 25.5924 27.767 18.3759 27.6184Z" fill="white"/>
</svg>
