<svg width="28" height="31" viewBox="0 0 28 31" fill="none" xmlns="http://www.w3.org/2000/svg">
<path d="M12.2111 0.992188C10.8572 0.992187 9.5336 1.39366 8.40781 2.14589C7.28201 2.89812 6.40456 3.96733 5.88642 5.21825C5.36827 6.46916 5.23269 7.84561 5.49684 9.17357C5.76099 10.5015 6.413 11.7213 7.37041 12.6788C8.32782 13.6362 9.54763 14.2882 10.8756 14.5523C12.2036 14.8165 13.58 14.6809 14.8309 14.1628C16.0819 13.6446 17.151 12.7672 17.9033 11.6414C18.6555 10.5156 19.057 9.19198 19.057 7.838C19.057 6.93899 18.8799 6.04882 18.5359 5.21825C18.1918 4.38767 17.6876 3.63299 17.0519 2.99729C16.4162 2.36159 15.6615 1.85731 14.8309 1.51328C14.0004 1.16924 13.1102 0.992188 12.2111 0.992188ZM12.2111 14.2322C10.9459 14.235 9.70828 13.8623 8.65491 13.1614C7.60154 12.4605 6.77978 11.4629 6.29366 10.2948C5.80753 9.12663 5.6789 7.84054 5.92402 6.59927C6.16915 5.35799 6.77701 4.21735 7.67069 3.3217C8.56437 2.42604 9.70365 1.81564 10.9444 1.56777C12.1851 1.3199 13.4715 1.44572 14.6407 1.92926C15.8099 2.41281 16.8094 3.23233 17.5126 4.28414C18.2158 5.33596 18.5912 6.57276 18.5912 7.838C18.5912 9.5314 17.9195 11.1557 16.7234 12.3544C15.5273 13.5531 13.9045 14.2285 12.2111 14.2322Z" fill="white"/>
<path d="M12.2111 0.554688C10.7672 0.55469 9.35572 0.98301 8.15534 1.7855C6.95496 2.58799 6.01963 3.72854 5.46772 5.06281C4.9158 6.39708 4.77211 7.86511 5.05483 9.28107C5.33756 10.697 6.03398 11.9973 7.05597 13.0173C8.07796 14.0373 9.37958 14.7312 10.7961 15.0112C12.2126 15.2912 13.6803 15.1447 15.0135 14.5902C16.3467 14.0357 17.4855 13.0981 18.2857 11.8962C19.0858 10.6943 19.5114 9.28198 19.5086 7.83807H19.057C19.0566 9.42187 18.5071 10.9566 17.5021 12.1806C16.4971 13.4047 15.0987 14.2425 13.5453 14.5512C11.9919 14.8598 10.3795 14.6203 8.98281 13.8735C7.58616 13.1266 6.4917 11.9186 5.88588 10.4552C5.28006 8.99184 5.20037 7.3637 5.6604 5.84817C6.12042 4.33265 7.0917 3.02349 8.40873 2.14381C9.72577 1.26412 11.3071 0.868331 12.8832 1.02383C14.4594 1.17933 15.9329 1.87649 17.0526 2.99658C17.6895 3.6315 18.1945 4.38614 18.5385 5.21706C18.8825 6.04799 19.0587 6.93876 19.057 7.83807H19.5086C19.5049 5.90509 18.7344 4.05258 17.3663 2.68708C15.9981 1.32158 14.1441 0.554684 12.2111 0.554688ZM12.2111 1.45803C10.9453 1.45524 9.70708 1.82824 8.6534 2.52977C7.59973 3.23129 6.77799 4.22976 6.29228 5.39872C5.80657 6.56767 5.67874 7.85453 5.92501 9.09619C6.17128 10.3379 6.78055 11.4785 7.67564 12.3735C8.57073 13.2686 9.71136 13.8779 10.953 14.1242C12.1947 14.3705 13.4815 14.2426 14.6504 13.7569C15.8194 13.2712 16.8179 12.4495 17.5194 11.3958C18.2209 10.3421 18.5939 9.10391 18.5912 7.83807C18.5874 6.14712 17.914 4.52654 16.7184 3.33085C15.5227 2.13517 13.902 1.46176 12.2111 1.45803ZM12.2111 13.7806C11.0358 13.7806 9.88688 13.432 8.90964 12.7791C7.93241 12.1261 7.17074 11.198 6.72097 10.1122C6.2712 9.02634 6.15351 7.83149 6.3828 6.67876C6.61209 5.52604 7.17807 4.4672 8.00914 3.63613C8.84021 2.80506 9.89906 2.23909 11.0518 2.0098C12.2045 1.7805 13.3993 1.89817 14.4852 2.34794C15.571 2.79771 16.4991 3.5594 17.1521 4.53664C17.8051 5.51387 18.1536 6.66276 18.1536 7.83807C18.1499 9.41297 17.5226 10.9223 16.409 12.036C15.2953 13.1496 13.786 13.7769 12.2111 13.7806Z" fill="white"/>
<path d="M20.6237 15.8696H15.0483L14.9777 16.4342C14.9589 16.5875 14.9259 16.7387 14.8789 16.8858C14.7878 17.2501 14.6502 17.6012 14.4695 17.9304C14.2745 18.3535 13.9619 18.7115 13.5689 18.9618C13.176 19.2121 12.7193 19.3441 12.2535 19.3419C11.7802 19.3446 11.3158 19.2135 10.9137 18.9637C10.5116 18.714 10.1883 18.3558 9.98091 17.9304C9.79703 17.6093 9.65023 17.2684 9.54334 16.9141L9.45866 16.5612V16.4201V16.0531V15.8555H3.89728C3.59491 15.8624 3.30277 15.9663 3.06389 16.1518C2.82501 16.3373 2.65204 16.5946 2.57046 16.8858L0.12854 26.7665L1.15894 27.0064H1.38479L3.64322 17.8034C3.69074 17.603 3.80428 17.4244 3.96558 17.2964C4.12688 17.1684 4.32656 17.0984 4.53248 17.0976H7.68016C7.86502 17.0979 8.04534 17.1549 8.19679 17.2609C8.34824 17.3669 8.4635 17.5168 8.52705 17.6904C8.73991 18.5266 9.22528 19.268 9.9065 19.7975C10.5877 20.327 11.4259 20.6145 12.2888 20.6145C13.1516 20.6145 13.9898 20.327 14.671 19.7975C15.3522 19.268 15.8376 18.5266 16.0504 17.6904C16.1145 17.5183 16.2304 17.3703 16.382 17.2666C16.5337 17.163 16.7137 17.1089 16.8973 17.1117H19.9603C20.1631 17.1164 20.3591 17.1861 20.5192 17.3107C20.6793 17.4352 20.7951 17.608 20.8496 17.8034L21.4989 20.3864L22.5293 20.1041H22.741L21.9082 16.9282C21.8249 16.6418 21.6529 16.3892 21.4171 16.2067C21.1812 16.0241 20.8936 15.9209 20.5955 15.9119" fill="white"/>
<path d="M22.1285 22.5547L23.2148 25.0596L25.9328 25.3186L23.8861 27.1258L24.4797 29.7908L22.1285 28.4027L19.7774 29.7908L20.371 27.1258L18.3243 25.3186L21.0423 25.0596L22.1285 22.5547Z" stroke="white"/>
</svg>
