<svg width="25" height="30" viewBox="0 0 25 30" fill="none" xmlns="http://www.w3.org/2000/svg">
<path d="M24.4857 10.3095L22.2414 13.1325L23.4977 12.9631C21.2392 18.4963 13.6171 22.3215 4.44221 22.3215C3.56707 22.3215 2.67786 22.3215 1.7886 22.2227L0.560547 22.0956V23.7048L1.66153 23.8036C2.55078 23.8883 3.44004 23.9165 4.31518 23.9165C14.2805 23.9165 22.4814 19.3855 23.8505 13.0196L24.6975 13.6971L24.4716 10.2812L24.4857 10.3095Z" fill="white"/>
<path d="M14.2523 23.2383C13.7159 23.4218 13.1795 23.6053 12.6149 23.7605V27.3881H10.6953V24.2404L9.07202 24.551V27.7128C9.072 28.0585 9.20839 28.3903 9.45152 28.6361C9.69466 28.8818 10.0249 29.0218 10.3706 29.0255H12.9537C13.2994 29.0218 13.6297 28.8818 13.8728 28.6361C14.1159 28.3903 14.2523 28.0585 14.2523 27.7128V23.2383Z" fill="white"/>
<path d="M12.9537 3.10938H10.3706C10.0249 3.11309 9.69466 3.25305 9.45152 3.49883C9.20839 3.7446 9.072 4.07638 9.07202 4.4221V21.3603C9.62251 21.2756 10.173 21.1626 10.6953 21.0497V4.74674H12.6149V20.5416C13.1795 20.3722 13.73 20.1887 14.2523 19.977V4.45033C14.2523 4.10461 14.1159 3.77284 13.8728 3.52706C13.6297 3.28128 13.2994 3.14133 12.9537 3.13761" fill="white"/>
<path d="M20.8299 19.3984C20.3123 19.87 19.7654 20.3084 19.1926 20.7111V27.3876H17.4282V21.7416L16.5389 22.2073L15.8049 22.5602V27.6558C15.8049 28.0015 15.9413 28.3333 16.1844 28.5791C16.4275 28.8248 16.7578 28.9648 17.1035 28.9685H19.5172C19.8654 28.9685 20.1992 28.8302 20.4454 28.584C20.6916 28.3378 20.8299 28.004 20.8299 27.6558V19.3984Z" fill="white"/>
<path d="M19.5173 0.781518H17.1036C16.9319 0.781507 16.7619 0.81555 16.6034 0.881691C16.4449 0.947832 16.3011 1.04477 16.1803 1.16685C16.0596 1.28894 15.9642 1.43376 15.8998 1.59294C15.8354 1.75213 15.8031 1.9225 15.805 2.09422V19.2724C16.3609 19.0091 16.9027 18.717 17.4282 18.3972V2.3483H19.1926V17.1692C19.7819 16.6944 20.3297 16.1702 20.83 15.6024V2.02366C20.83 1.67551 20.6917 1.34161 20.4455 1.09543C20.1993 0.849253 19.8655 0.710938 19.5173 0.710938" fill="white"/>
<path d="M7.54765 24.7773L5.92441 24.9185V27.431H4.37174V24.9185H4.07533C3.62365 24.9185 3.18606 24.9185 2.73438 24.9185V27.7415C2.73438 28.0897 2.87269 28.4236 3.11887 28.6697C3.36505 28.9159 3.69892 29.0542 4.04707 29.0542H6.24903C6.59473 29.0505 6.92501 28.9106 7.16815 28.6648C7.41128 28.419 7.54767 28.0873 7.54765 27.7415V24.7773Z" fill="white"/>
<path d="M6.29127 9.8275H4.08931C3.74359 9.82748 3.41184 9.96384 3.16606 10.207C2.92028 10.4501 2.78033 10.7804 2.77661 11.1261V21.656H4.25873H4.41397V11.4084H5.96665V21.5995C6.51714 21.5995 7.05351 21.5995 7.58988 21.4725V11.0837C7.58988 10.7393 7.45306 10.409 7.20952 10.1655C6.96599 9.92196 6.63568 9.78516 6.29127 9.78516" fill="white"/>
</svg>
