<svg xmlns="http://www.w3.org/2000/svg" xmlns:xlink="http://www.w3.org/1999/xlink" width="18" height="18" viewBox="0 0 18 18">
  <defs>
    <clipPath id="clip-path">
      <rect id="Rectangle_19" data-name="Rectangle 19" width="18" height="18" transform="translate(0.5 0.666)"/>
    </clipPath>
  </defs>
  <g id="icon-external-link" transform="translate(-0.5 -0.666)" clip-path="url(#clip-path)">
    <path id="Path_75" data-name="Path 75" d="M16.092,9.739l-.027-.077a.487.487,0,0,0-.19-.453c-.031-.013-.065-.022-.095-.037a.567.567,0,0,0-.876.566c0,.069-.006.137-.006.206v6.8a.712.712,0,0,1-.225.572l-.044.031a1.867,1.867,0,0,1-.432.107q-5.006.009-10.011,0H2.368a.63.63,0,0,1-.674-.669q.016-5.922,0-11.844a.656.656,0,0,1,.681-.687c1.8.012,3.6.006,5.4.005.537,0,1.074,0,1.612-.006a1.4,1.4,0,0,0,.331-.047.539.539,0,0,0,.338-.658l-.142-.3c-.026-.024-.048-.061-.078-.069-.148-.04-.3-.073-.448-.108a.525.525,0,0,0-.056-.006q-3.543,0-7.085,0a2.013,2.013,0,0,0-.411.067,1.6,1.6,0,0,0-.98.645A1.483,1.483,0,0,0,.5,4.66q-.005,6.2,0,12.4a.8.8,0,0,0,.027.178,1.762,1.762,0,0,0,.7,1.072,1.478,1.478,0,0,0,.86.343q6.12,0,12.239,0a1.014,1.014,0,0,0,.261,0,1.841,1.841,0,0,0,1.385-1.208l.043-.138c.027-.147.029-.2.058-.425l.02-.366q.008-2.791,0-5.582c0-.4,0-.8-.006-1.2Z"/>
    <path id="Path_76" data-name="Path 76" d="M18.5,1.371c0-.473-.213-.7-.713-.7-1.737-.006-3.474,0-5.212,0-.467,0-.672.2-.671.662a.544.544,0,0,0,.531.536H16.4C15.392,2.894,14.41,3.9,13.415,4.9q-2.758,2.768-5.529,5.524a.6.6,0,1,0,.848.845q4.21-4.206,8.415-8.416c.036-.036.078-.066.149-.125v.241c0,1.255,0,2.511,0,3.767a.6.6,0,0,0,.815.484.647.647,0,0,0,.382-.661q.007-2.6,0-5.191Z"/>
  </g>
</svg>
