<svg xmlns="http://www.w3.org/2000/svg" width="19" height="19" viewBox="0 0 19 19">
  <g id="icon-download" transform="translate(-3 -2.5)">
    <path id="Path_14" data-name="Path 14" d="M3.5,14.5A.5.5,0,0,1,4,15v4a1.5,1.5,0,0,0,1.5,1.5h14A1.5,1.5,0,0,0,21,19V15a.5.5,0,0,1,1,0v4a2.5,2.5,0,0,1-2.5,2.5H5.5A2.5,2.5,0,0,1,3,19V15A.5.5,0,0,1,3.5,14.5Z" fill-rule="evenodd"/>
    <path id="Path_15" data-name="Path 15" d="M7.146,9.646a.5.5,0,0,1,.707,0L12.5,14.293l4.646-4.646a.5.5,0,0,1,.707.707l-5,5a.5.5,0,0,1-.707,0l-5-5A.5.5,0,0,1,7.146,9.646Z" fill-rule="evenodd"/>
    <path id="Path_16" data-name="Path 16" d="M12.5,2.5A.5.5,0,0,1,13,3V15a.5.5,0,0,1-1,0V3A.5.5,0,0,1,12.5,2.5Z" fill-rule="evenodd"/>
  </g>
</svg>
