<svg width="25" height="25" viewBox="0 0 25 25" fill="none" xmlns="http://www.w3.org/2000/svg">
<g id="Icon/zap">
<path id="Vector (Stroke)" fill-rule="evenodd" clip-rule="evenodd" d="M14.1288 2.42907C14.3324 2.51746 14.4534 2.72949 14.4258 2.94974L13.4961 10.3877H21.9297C22.1237 10.3877 22.3002 10.5 22.3825 10.6756C22.4648 10.8513 22.438 11.0588 22.3138 11.2078L12.3138 23.2078C12.1717 23.3783 11.9342 23.4348 11.7306 23.3464C11.527 23.258 11.406 23.046 11.4336 22.8257L12.3633 15.3877H3.92969C3.73568 15.3877 3.55919 15.2755 3.4769 15.0998C3.39461 14.9241 3.42138 14.7167 3.54558 14.5676L13.5456 2.56763C13.6877 2.39711 13.9252 2.34069 14.1288 2.42907ZM4.99721 14.3877H12.9297C13.0731 14.3877 13.2096 14.4493 13.3045 14.5568C13.3994 14.6643 13.4436 14.8074 13.4258 14.9497L12.6374 21.2575L20.8622 11.3877H12.9297C12.7863 11.3877 12.6498 11.3261 12.5549 11.2186C12.4599 11.1111 12.4158 10.968 12.4336 10.8257L13.222 4.51795L4.99721 14.3877Z" fill="white"/>
</g>
</svg>
