<svg width="25" height="28" viewBox="0 0 25 28" fill="none" xmlns="http://www.w3.org/2000/svg">
<path d="M20.3353 0.554775H16.6513C16.5383 0.552924 16.4268 0.580606 16.3278 0.635068C16.2287 0.689531 16.1456 0.768889 16.0867 0.86531C15.6673 1.36267 15.1336 1.7509 14.5313 1.99674C13.929 2.24259 13.2761 2.33871 12.6285 2.27682C11.9836 2.33164 11.3349 2.23223 10.7361 1.98679C10.1372 1.74136 9.6053 1.35693 9.18437 0.86531C9.1244 0.769837 9.04107 0.691211 8.94228 0.636877C8.84349 0.582544 8.73251 0.554294 8.61977 0.554775H4.93569C4.76216 0.554735 4.59552 0.622673 4.4715 0.744051C4.34749 0.865428 4.27597 1.03057 4.27228 1.20406V6.15849C4.27138 7.25391 3.95733 8.32624 3.36712 9.24907C2.77691 10.1719 1.93517 10.9067 0.941121 11.367C0.824625 11.4165 0.725143 11.499 0.654924 11.6043C0.584705 11.7097 0.546814 11.8332 0.545898 11.9598V26.9219C0.545898 27.009 0.563044 27.0953 0.596384 27.1758C0.629723 27.2562 0.678611 27.3294 0.740214 27.391C0.801818 27.4526 0.874933 27.5015 0.955422 27.5348C1.03591 27.5681 1.12219 27.5853 1.20931 27.5853H24.0617C24.2352 27.5816 24.4004 27.5101 24.5218 27.3861C24.6431 27.262 24.7111 27.0954 24.711 26.9219V11.9598C24.7131 11.8344 24.6781 11.7112 24.6102 11.6057C24.5424 11.5002 24.4449 11.4171 24.3299 11.367C23.3343 10.9074 22.4906 10.1731 21.898 9.2504C21.3053 8.32773 20.9885 7.25507 20.9846 6.15849V1.20406C20.981 1.03299 20.9115 0.869913 20.7905 0.748918C20.6695 0.627924 20.5064 0.558377 20.3353 0.554775ZM11.104 17.493V11.5928L17.0183 1.86747H19.6719V6.10202C19.674 7.37733 20.0215 8.62826 20.6777 9.72183C21.3338 10.8154 22.274 11.7107 23.3983 12.3127V17.4365L11.104 17.493ZM1.84447 17.493V12.3692C2.96878 11.7672 3.90901 10.8719 4.56515 9.7783C5.22129 8.68473 5.56885 7.4338 5.57089 6.15849V1.92395H8.22455L11.8521 7.88054L9.87599 11.1129L9.77718 11.4658V17.5494L1.84447 17.493ZM12.6143 3.61778C13.2722 3.62321 13.9277 3.53768 14.5622 3.36368L12.6143 6.55371L10.6806 3.36368C11.3103 3.53746 11.9611 3.623 12.6143 3.61778ZM11.104 18.8198H23.3983V20.4289H11.104V18.8198ZM1.84447 18.8198H9.73483V20.4289H1.90094L1.84447 18.8198ZM13.0519 26.2585C12.7968 26.2603 12.5438 26.2117 12.3076 26.1154C12.0713 26.019 11.8565 25.8768 11.6754 25.6971C11.4943 25.5173 11.3506 25.3035 11.2526 25.068C11.1545 24.8325 11.104 24.5798 11.104 24.3247V21.7557H23.3983V26.2585H13.0519ZM1.84447 26.2585V21.7557H9.77718V24.3247C9.77613 25.023 10.0043 25.7023 10.4265 26.2585H1.84447Z" fill="white"/>
<path d="M18.0487 12.6789H15.2256C15.1314 12.6651 15.0352 12.6717 14.9438 12.6983C14.8523 12.7249 14.7676 12.7709 14.6955 12.8332C14.6234 12.8955 14.5655 12.9726 14.5259 13.0592C14.4862 13.1458 14.4657 13.24 14.4657 13.3353C14.4657 13.4306 14.4862 13.5247 14.5259 13.6114C14.5655 13.698 14.6234 13.7751 14.6955 13.8374C14.7676 13.8997 14.8523 13.9457 14.9438 13.9723C15.0352 13.9989 15.1314 14.0055 15.2256 13.9916H18.0487C18.1429 14.0055 18.2391 13.9989 18.3306 13.9723C18.422 13.9457 18.5067 13.8997 18.5788 13.8374C18.6509 13.7751 18.7088 13.698 18.7484 13.6114C18.7881 13.5247 18.8086 13.4306 18.8086 13.3353C18.8086 13.24 18.7881 13.1458 18.7484 13.0592C18.7088 12.9726 18.6509 12.8955 18.5788 12.8332C18.5067 12.7709 18.422 12.7249 18.3306 12.6983C18.2391 12.6717 18.1429 12.6651 18.0487 12.6789Z" fill="white"/>
<path d="M18.0487 9.74535H15.2256C15.1314 9.73149 15.0352 9.73806 14.9438 9.76469C14.8523 9.79131 14.7676 9.83732 14.6955 9.8996C14.6234 9.96188 14.5655 10.039 14.5259 10.1256C14.4862 10.2123 14.4657 10.3064 14.4657 10.4017C14.4657 10.497 14.4862 10.5911 14.5259 10.6778C14.5655 10.7644 14.6234 10.8415 14.6955 10.9037C14.7676 10.966 14.8523 11.012 14.9438 11.0387C15.0352 11.0653 15.1314 11.0719 15.2256 11.058H18.0487C18.1429 11.0719 18.2391 11.0653 18.3306 11.0387C18.422 11.012 18.5067 10.966 18.5788 10.9037C18.6509 10.8415 18.7088 10.7644 18.7484 10.6778C18.7881 10.5911 18.8086 10.497 18.8086 10.4017C18.8086 10.3064 18.7881 10.2123 18.7484 10.1256C18.7088 10.039 18.6509 9.96188 18.5788 9.8996C18.5067 9.83732 18.422 9.79131 18.3306 9.76469C18.2391 9.73806 18.1429 9.73149 18.0487 9.74535Z" fill="white"/>
</svg>
