<svg width="85" height="85" viewBox="0 0 85 85" fill="none" xmlns="http://www.w3.org/2000/svg">
<circle cx="42.5" cy="42.5" r="42.5" fill="#0077C8"/>
<g clip-path="url(#clip0_213_4422)">
<path d="M53.4355 17.8159C52.9383 17.4965 52.4234 17.1948 51.8907 16.9286L51.1094 18.4549C51.5888 18.7033 52.0683 18.9695 52.5122 19.2712L53.4355 17.8159Z" fill="white"/>
<path d="M55.1224 21.5962L56.3476 20.4071C55.9392 19.9812 55.4953 19.573 55.0336 19.1825L53.9504 20.5136C54.3589 20.8508 54.7673 21.2235 55.1224 21.5962Z" fill="white"/>
<path d="M50.115 15.9169C49.5823 15.704 49.014 15.5087 48.4458 15.3313L47.9486 16.9818C48.4636 17.1415 48.9963 17.319 49.4935 17.5142L50.115 15.9169Z" fill="white"/>
<path d="M46.5636 14.6569C45.9953 14.5326 45.4094 14.4261 44.8234 14.3551L44.5925 16.0589C45.1252 16.1299 45.6757 16.2364 46.2084 16.3429L46.5636 14.6569Z" fill="white"/>
<path d="M58.4607 27.3997L60.0943 26.885C59.9168 26.2993 59.7037 25.7314 59.4906 25.199L57.928 25.8734C58.1233 26.3703 58.3186 26.885 58.4784 27.3997" fill="white"/>
<path d="M59.1533 30.7717L60.8402 30.5765C60.7691 29.9731 60.6804 29.3874 60.5738 28.8195L58.9047 29.1567C59.0112 29.6714 59.1 30.2216 59.1533 30.7717Z" fill="white"/>
<path d="M57.1289 24.2938L58.6028 23.4419C58.3009 22.9273 57.9635 22.4126 57.6084 21.9334L56.2411 22.9628C56.5607 23.3887 56.8448 23.8501 57.1112 24.3116" fill="white"/>
<path d="M54.8206 47.2416L56.2766 48.1467C56.5963 47.632 56.8981 47.1351 57.1645 46.6559L55.6906 45.804C55.4243 46.2654 55.1402 46.7446 54.8383 47.2593" fill="white"/>
<path d="M56.543 44.1712L58.0524 44.9521C58.3187 44.4197 58.5673 43.8872 58.7982 43.3548L57.2356 42.6627C57.0225 43.1596 56.7739 43.6565 56.5253 44.1712" fill="white"/>
<path d="M60.9823 32.582V32.5287L59.2776 32.582V32.6352C59.2776 32.8837 59.2776 33.1322 59.2776 33.3629C59.2776 33.6469 59.2776 33.9308 59.2776 34.2148L60.9823 34.2858C60.9823 33.9663 61 33.6646 61 33.3629C61 33.0967 61 32.8482 61 32.582" fill="white"/>
<path d="M52.885 50.2409L54.3056 51.1993C54.6252 50.7379 54.9271 50.2587 55.2467 49.7617L53.8261 48.8211C53.5065 49.3003 53.2046 49.7795 52.885 50.2409Z" fill="white"/>
<path d="M48.4103 60.4458L50.0972 60.6588C50.1682 60.1796 50.257 59.6472 50.3991 59.0792L48.7477 58.6533C48.5878 59.2922 48.4813 59.8779 48.4103 60.4281" fill="white"/>
<path d="M53.2757 52.7611L51.8551 51.8204C51.4822 52.3884 51.1981 52.8498 50.9318 53.2935L52.3878 54.1986C52.6364 53.7727 52.9205 53.329 53.2934 52.7788" fill="white"/>
<path d="M51.4822 55.7604L49.9728 54.9618C49.671 55.5475 49.4224 56.0976 49.2271 56.6123L50.8252 57.2157C51.0028 56.7543 51.2158 56.2751 51.4822 55.7427" fill="white"/>
<path d="M57.928 39.8585C57.342 39.8585 56.8626 39.3793 56.8626 38.7937C56.8626 38.208 57.342 37.7288 57.928 37.7288C58.514 37.7288 58.9934 38.208 58.9934 38.7937C58.9934 39.3793 58.514 39.8585 57.928 39.8585ZM48.8897 39.823C48.8897 40.0893 48.6766 40.3022 48.4103 40.3022H42.8523V31.4106H48.6233C48.7654 31.4106 48.8897 31.5349 48.8897 31.6769V39.8053V39.823ZM35.3056 60.7653C34.986 58.0499 33.2458 55.1038 31.2392 51.7317C28.2205 46.6204 24.4561 40.249 24.7046 32.6352C24.9355 25.7846 27.8832 20.8508 33.4589 17.9757C36.5486 16.3784 39.6561 15.8814 41.1299 15.7217V22.6788C40.8458 22.3061 40.3131 22.2174 39.9402 22.5013C39.6205 22.7498 39.4252 23.1225 39.4252 23.5129L39.3897 24.986C39.3897 25.0925 39.3009 25.199 39.1589 25.27C39.1233 25.27 39.0878 25.27 39.0701 25.2877C38.928 25.3232 38.7682 25.2877 38.6794 25.1635L37.9691 23.9566C37.7738 23.5839 37.3832 23.3355 36.9392 23.3177C35.4832 23.1757 34.0981 23.9921 33.4944 25.3232C33.3168 25.6959 33.3346 26.1396 33.5476 26.5123L34.2402 27.7546C34.3112 27.9144 34.2402 28.0741 34.1514 28.1806C34.0804 28.2693 33.9205 28.3758 33.7607 28.2871C33.7607 28.2871 33.7607 28.2871 33.743 28.2871L32.4645 27.5772C32.4645 27.5772 32.4645 27.5772 32.4467 27.5772C32.1804 27.4352 31.8607 27.3997 31.5056 27.4707C31.4346 27.4707 31.3813 27.5062 31.328 27.5239C29.9962 28.1273 29.1794 29.5116 29.3215 31.0024C29.3215 31.3751 29.5346 31.7301 29.8542 31.9786C29.8719 31.9963 29.9075 32.0141 29.9252 32.0318L31.1682 32.7772C31.2925 32.8482 31.3458 33.0257 31.2925 33.1677C31.2925 33.2032 31.2925 33.2209 31.2747 33.2564C31.2392 33.3451 31.1504 33.4871 30.9729 33.5049L29.5523 33.5404C29.1439 33.5404 28.7888 33.7178 28.5402 34.055C27.6878 35.2619 27.6878 36.8769 28.5402 38.1193C28.5402 38.1193 28.5402 38.137 28.5579 38.137C28.8065 38.4742 29.1617 38.6517 29.5523 38.6517L31.0084 38.6872C31.1149 38.6872 31.2215 38.7759 31.2747 38.9179C31.2747 38.9534 31.2747 38.9711 31.2925 39.0066C31.328 39.1486 31.2925 39.3261 31.1682 39.3971L29.9785 40.107C29.6056 40.3022 29.3747 40.7104 29.357 41.1364C29.2149 42.6094 30.0318 44.0115 31.3458 44.6149C31.7187 44.7924 32.1448 44.7746 32.5177 44.5617L33.7607 43.8695C33.9205 43.7985 34.0804 43.8695 34.1869 43.9582C34.2579 44.047 34.3645 44.2067 34.2757 44.3664C34.2757 44.3664 34.2757 44.3664 34.2757 44.3842L33.5832 45.6798C33.5832 45.6798 33.5832 45.6798 33.5832 45.6975C33.4411 45.9815 33.4056 46.2832 33.4766 46.6381C33.4766 46.6914 33.5121 46.7624 33.5299 46.8156C34.1159 48.1644 35.5009 48.9808 36.9747 48.8388C37.3476 48.8388 37.685 48.6259 37.9336 48.3064C37.9336 48.2887 37.9691 48.2532 37.9869 48.2354L38.7327 46.9931C38.8037 46.8689 38.9635 46.8156 39.1233 46.8511C39.1589 46.8511 39.1766 46.8511 39.2121 46.8689C39.3009 46.9044 39.443 46.9931 39.4607 47.1706V48.5904C39.4785 48.9986 39.6738 49.3713 39.9934 49.6197C40.1532 49.744 40.3308 49.7972 40.5084 49.7972C40.757 49.7972 40.9878 49.6907 41.1654 49.4955V60.7653H35.3233H35.3056ZM51.0028 63.2322C51.0028 63.6404 50.6654 63.9776 50.257 63.9776H33.743C33.3346 63.9776 32.9972 63.6404 32.9972 63.2322C32.9972 62.824 33.3346 62.4691 33.743 62.4691H50.2747C50.6832 62.4691 51.0205 62.8063 51.0205 63.2322M50.2747 67.2077H33.743C33.3346 67.2077 32.9972 66.8705 32.9972 66.4623C32.9972 66.0541 33.3346 65.7169 33.743 65.7169H50.2747C50.6832 65.7169 51.0205 66.0541 51.0205 66.4623C51.0205 66.8705 50.6832 67.2077 50.2747 67.2077ZM41.1654 41.1541V42.4142C38.0757 41.9882 35.6607 39.3084 35.6607 36.0605C35.6607 32.8127 38.0579 30.1328 41.1654 29.7069V41.1364V41.1541ZM41.1654 47.0641C41.1121 46.1767 40.5084 45.4313 39.6205 45.2006C39.585 45.2006 39.5318 45.1828 39.4962 45.1828C38.6439 44.9876 37.7561 45.3603 37.2944 46.1057L36.6729 47.1706C36.0691 47.1706 35.5009 46.8511 35.199 46.3364L35.785 45.2361C36.2467 44.4374 36.0869 43.4613 35.4121 42.7691V42.7337C35.4121 42.7337 35.3766 42.7337 35.3589 42.7159C34.6841 42.077 33.743 41.9528 32.9617 42.361L31.8962 42.9644C31.3813 42.6627 31.0794 42.0947 31.0794 41.4913L32.0916 40.8879C32.8196 40.4265 33.1747 39.5391 32.9972 38.6872C32.9972 38.6517 32.9972 38.6162 32.9794 38.563C32.7486 37.6401 31.9495 37.0012 31.0617 37.0012H29.8542C29.5701 36.4332 29.5701 35.8121 29.8542 35.2796H31.0794C31.0794 35.2796 31.0794 35.2619 31.0972 35.2441C31.985 35.2086 32.7486 34.5697 32.9972 33.6823C32.9972 33.6291 33.0149 33.5936 33.0149 33.5581C33.2103 32.7062 32.8374 31.8188 32.1093 31.3397L31.0617 30.7007C31.0617 30.0796 31.3813 29.5294 31.8962 29.2099L32.9972 29.8134C33.7785 30.2748 34.7551 30.1328 35.4299 29.4407V29.4052C35.4299 29.4052 35.4654 29.4052 35.4832 29.3874C36.1046 28.6953 36.2467 27.7546 35.8383 26.9737L35.2346 25.8911C35.5364 25.3764 36.1046 25.057 36.7084 25.057L37.3121 26.0863C37.3121 26.0863 37.3121 26.0863 37.3121 26.1041C37.7738 26.8317 38.6617 27.2044 39.4962 27.0092C39.5318 27.0092 39.5673 27.0092 39.6205 26.9915C40.5261 26.743 41.1654 25.9444 41.1654 25.057V23.8146L41.1832 28.0386C37.1346 28.4645 33.9916 31.9253 33.9916 36.1138C33.9916 40.3022 37.1523 43.763 41.1832 44.189V47.0996L41.1654 47.0641ZM48.6944 50.0989C48.1084 50.0989 47.6289 49.6197 47.6289 49.0341C47.6289 48.4484 48.1084 47.9692 48.6944 47.9692C49.2803 47.9692 49.7598 48.4484 49.7598 49.0341C49.7598 49.6197 49.2803 50.0989 48.6944 50.0989ZM47.1673 21.7204C47.7532 21.7204 48.2327 22.1996 48.2327 22.7853C48.2327 23.371 47.7532 23.8501 47.1673 23.8501C46.5813 23.8501 46.1018 23.371 46.1018 22.7853C46.1018 22.1996 46.5813 21.7204 47.1673 21.7204ZM53.6841 25.8911C54.2701 25.8911 54.7495 26.3703 54.7495 26.956C54.7495 27.5417 54.2701 28.0208 53.6841 28.0208C53.0981 28.0208 52.6187 27.5417 52.6187 26.956C52.6187 26.3703 53.0981 25.8911 53.6841 25.8911ZM57.9635 35.9718C56.7383 35.9718 55.6906 36.7882 55.3355 37.9063H50.6299V34.3745H53.6841C54.1458 34.3745 54.5364 33.9841 54.5364 33.5226V29.6359C55.6374 29.2809 56.4542 28.2161 56.4542 26.9915C56.4542 25.4474 55.2112 24.2051 53.7018 24.2051C52.1925 24.2051 50.9318 25.4474 50.9318 26.9915C50.9318 28.2338 51.7308 29.2809 52.8495 29.6359V32.6707H50.6476V31.6946C50.6476 30.5943 49.7598 29.7069 48.6766 29.7069H48.0374V25.4652C49.1383 25.1102 49.9551 24.0454 49.9551 22.8208C49.9551 21.2767 48.7121 20.0344 47.185 20.0344C45.6579 20.0344 44.4149 21.2945 44.4149 22.8208C44.4149 24.0631 45.214 25.1102 46.3327 25.4652V29.7069H42.8878V14.7988L42.9411 13.9647C42.3374 13.9292 42 13.9292 41.9822 13.9292C41.7869 13.9292 37.3476 14.0712 32.7663 16.4139C28.4869 18.5968 23.3196 23.1757 23 32.582C22.7336 40.7104 26.6402 47.3125 29.7832 52.6014C31.6299 55.7249 33.2458 58.4581 33.5832 60.7653C32.3046 60.8363 31.2747 61.9189 31.2747 63.2322C31.2747 63.8534 31.5056 64.4035 31.8785 64.8472C31.5056 65.2732 31.2747 65.8411 31.2747 66.4623C31.2747 67.8288 32.3757 68.9292 33.7252 68.9292H50.257C51.6065 68.9292 52.7075 67.8288 52.7075 66.4623C52.7075 65.8411 52.4766 65.2732 52.1037 64.8472C52.4766 64.4213 52.7075 63.8534 52.7075 63.2322C52.7075 61.8656 51.6065 60.7653 50.257 60.7653H42.8523V42.0237H44.5925V44.7924C44.5925 45.2716 44.9654 45.6443 45.4448 45.6443H47.8243V46.3897C46.7233 46.7624 45.9065 47.8095 45.9065 49.0341C45.9065 50.5781 47.1495 51.8205 48.6589 51.8205C50.1682 51.8205 51.429 50.5781 51.429 49.0341C51.429 47.7917 50.6299 46.7446 49.5112 46.3897V44.7924C49.5112 44.3132 49.1383 43.9405 48.6589 43.9405H46.2794V42.0237H48.4103C49.6177 42.0237 50.5944 41.0299 50.5944 39.823V39.6456H55.3C55.6551 40.7637 56.7028 41.5801 57.928 41.5801C59.4551 41.5801 60.6981 40.3377 60.6981 38.7937C60.6981 37.2496 59.4551 36.0073 57.9458 36.0073" fill="white"/>
</g>
<defs>
<clipPath id="clip0_213_4422">
<rect width="38" height="55" fill="white" transform="translate(23 13.9292)"/>
</clipPath>
</defs>
</svg>
