<svg width="85" height="85" viewBox="0 0 85 85" fill="none" xmlns="http://www.w3.org/2000/svg">
<circle cx="42.5" cy="42.5" r="42.5" fill="#0077C8"/>
<path d="M62.9409 43.014C62.9409 41.6384 64.5173 40.5379 66.5665 40.3414L67 39.7912C66.8424 38.8086 66.6454 37.826 66.4089 36.8828L65.8178 36.5291C63.8473 37.1186 61.9557 36.6863 61.4434 35.4679C60.8917 34.2495 61.9163 32.5988 63.7291 31.6161L63.9262 30.8694C63.4532 30.0441 62.9015 29.2187 62.2709 28.4327L61.5222 28.2754C59.9064 29.5724 58.0542 29.8869 57.069 28.9043C56.0837 27.9217 56.4384 26.0352 57.6995 24.4631L57.6207 23.7163C56.8325 23.1268 56.005 22.6159 55.1773 22.0656L54.5074 22.2621C53.5222 24.0701 51.9064 25.0919 50.6453 24.5416C49.3842 23.9914 48.9508 22.1442 49.5813 20.2183L49.2266 19.5895C48.2414 19.3537 47.2562 19.1572 46.3103 19L45.7586 19.4323C45.5616 21.476 44.4581 23.0482 43.0788 23.0482C41.6995 23.0482 40.5567 21.5547 40.3596 19.5109L39.7685 19.0786C38.7833 19.2358 37.798 19.4323 36.8522 19.6681L36.4975 20.3363C37.0886 22.3014 36.6552 24.1879 35.4335 24.6596C34.2119 25.1312 32.5566 24.1879 31.5714 22.38L30.9014 22.1835C30.0345 22.6551 29.2463 23.2447 28.4187 23.8342L28.3399 24.581C29.6404 26.1924 29.9556 28.0789 28.9705 29.0222C27.9852 29.9654 26.0936 29.6511 24.5172 28.3934L23.7685 28.4719C23.1773 29.258 22.5861 30.0834 22.1133 30.948L22.3103 31.6161C24.1231 32.5988 25.1478 34.2495 24.5961 35.4679C24.0443 36.6863 22.1921 37.1579 20.2216 36.5291L19.5911 36.8828C19.3547 37.8653 19.1576 38.8479 19 39.7912L19.4335 40.3807C21.5222 40.5379 23.0985 41.6384 23.0985 43.014C23.0985 44.3896 21.601 45.49 19.5517 45.6866L19.1182 46.2368C19.2758 47.2194 19.4729 48.2019 19.7094 49.1452L20.3399 49.4989C22.3103 48.9094 24.2019 49.3418 24.7143 50.5601C25.266 51.8178 24.2414 53.4292 22.3891 54.4118L22.1921 55.1586C22.665 56.0233 23.2561 56.8486 23.8472 57.6346L24.5172 57.7132C26.133 56.4163 28.0246 56.1018 28.9705 57.0844C29.9163 58.067 29.601 59.9535 28.3005 61.5256L28.3793 62.1938C29.1675 62.7833 29.995 63.3728 30.8621 63.8445L31.532 63.648C32.5172 61.8401 34.1724 60.8182 35.3941 61.3291C36.6158 61.8008 37.0886 63.7266 36.4581 65.6917L36.8128 66.3206C37.798 66.5564 38.7833 66.7529 39.7291 66.9101L40.2808 66.4777C40.4778 64.434 41.5813 62.8619 42.9606 62.8619C44.3399 62.8619 45.4434 64.434 45.6404 66.4777L46.1922 66.9101C47.1773 66.7529 48.1626 66.5564 49.1084 66.3206L49.4631 65.6917C48.8719 63.7266 49.3054 61.8401 50.5271 61.3291C51.7882 60.7789 53.4039 61.8008 54.3892 63.648L55.0592 63.8445C55.9261 63.3728 56.7537 62.7833 57.5419 62.1938L57.6207 61.5256C56.3203 59.9535 56.005 58.0277 56.9902 57.0844C57.9754 56.1411 59.867 56.4556 61.4434 57.7525L62.1134 57.674C62.7045 56.8879 63.2956 56.0625 63.7685 55.1979L63.5715 54.5297C61.7587 53.5472 60.734 51.9357 61.2464 50.678C61.7192 49.4203 63.6503 48.988 65.6207 49.6169L66.2119 49.2631C66.4483 48.2806 66.6454 47.298 66.803 46.3547L66.3695 45.7652C64.4779 45.49 62.9409 44.3503 62.9409 43.014ZM43.0394 59.8749C33.7389 59.8749 26.133 52.3287 26.133 43.014C26.133 33.6992 33.6995 26.1531 43.0394 26.1531C52.3793 26.1531 59.9459 33.6992 59.9459 43.014C59.9459 52.3287 52.34 59.8749 43.0394 59.8749Z" stroke="white" stroke-width="1.5" stroke-miterlimit="10" stroke-linecap="round" stroke-linejoin="round"/>
<path d="M50.2512 36.7648L41.2265 51.8964L35.4729 46.8264" stroke="white" stroke-width="1.5" stroke-miterlimit="10" stroke-linecap="round" stroke-linejoin="round"/>
</svg>
