<svg width="85" height="85" viewBox="0 0 85 85" fill="none" xmlns="http://www.w3.org/2000/svg">
<circle cx="42.5" cy="42.5" r="42.5" fill="#0077C8"/>
<g clip-path="url(#clip0_1338_845)">
<path d="M19.9484 52.9091L28.6557 56.0895C28.9454 56.195 29.2034 56.3592 29.4217 56.5785C29.6401 56.7968 29.8043 57.0539 29.9107 57.3444L33.0911 66.0527C33.2607 66.5173 33.6513 66.8593 34.134 66.9657C34.2387 66.9892 34.3433 67 34.448 67C34.826 67 35.1905 66.8512 35.4648 66.5769L36.2534 65.7883C37.0076 65.0341 37.4055 63.9902 37.3441 62.9247C37.3441 62.9157 37.3432 62.9057 37.3423 62.8967L36.6377 54.9229L46.8337 45.8474L56.8231 65.4798C57.036 65.8993 57.4411 66.1943 57.9058 66.2683C58.3704 66.3423 58.8468 66.188 59.1797 65.8551L61.1673 63.8675C62.1778 62.857 62.5739 61.372 62.2012 59.9916L55.9407 36.8387L63.246 29.5335C65.5566 27.2229 66.8892 24.1517 66.9993 20.8857C67.0164 20.3822 66.8215 19.8896 66.466 19.535C66.1106 19.1787 65.618 18.9838 65.1145 19.0009C61.8485 19.1101 58.7773 20.4436 56.4667 22.7542L49.1614 30.0595L26.0077 23.7998C24.6273 23.4263 23.1423 23.8224 22.1318 24.8338L20.1442 26.8214C19.8113 27.1543 19.657 27.6307 19.731 28.0953C19.8049 28.56 20.1 28.9651 20.5186 29.178L40.1519 39.1674L31.0764 49.3634L23.1026 48.6588C23.0935 48.6588 23.0836 48.6569 23.0746 48.6569C22.0091 48.5956 20.9661 48.9935 20.2109 49.7477L19.4224 50.5363C19.0723 50.8863 18.9271 51.3844 19.0345 51.8671C19.1409 52.3506 19.4829 52.7404 19.9475 52.91L19.9484 52.9091ZM21.4876 51.0217C21.8755 50.6337 22.4106 50.4271 22.9591 50.4551L31.3696 51.1985C31.6538 51.2238 31.9335 51.1128 32.123 50.8999L42.2775 39.4922C42.4633 39.2829 42.5418 38.9996 42.4904 38.7253C42.439 38.4501 42.2621 38.2155 42.0131 38.0883L21.742 27.775L23.4075 26.1095C23.9624 25.5547 24.778 25.3363 25.5368 25.542L49.1939 31.9388C49.5061 32.0227 49.839 31.9343 50.0673 31.706L57.7416 24.0317C59.7274 22.0459 62.3673 20.9001 65.1741 20.8063C65.1777 20.8063 65.1822 20.8063 65.1894 20.8126C65.1948 20.818 65.1948 20.8225 65.1948 20.8261C65.101 23.6329 63.9552 26.2728 61.9694 28.2586L54.2951 35.9329C54.0668 36.1612 53.9775 36.4941 54.0623 36.8063L60.4591 60.4634C60.6639 61.2213 60.4464 62.0369 59.8916 62.5927L58.2261 64.2582L47.9119 43.9871C47.7846 43.738 47.5501 43.5612 47.2749 43.5098C46.9997 43.4583 46.7164 43.5368 46.508 43.7227L35.1003 53.8772C34.8874 54.0667 34.7764 54.3464 34.8017 54.6306L35.5442 63.0411C35.5722 63.5887 35.3665 64.1246 34.9776 64.5126L34.5906 64.8996L31.6051 56.7255C31.4084 56.1869 31.1026 55.7078 30.6975 55.3027C30.2915 54.8967 29.8133 54.5918 29.2747 54.3942L21.1005 51.4087L21.4876 51.0217Z" fill="white"/>
</g>
<defs>
<clipPath id="clip0_1338_845">
<rect width="48" height="48" fill="white" transform="translate(19 19)"/>
</clipPath>
</defs>
</svg>
