<?xml version="1.0" encoding="UTF-8"?>
<svg id="Layer_1" xmlns="http://www.w3.org/2000/svg" version="1.1" viewBox="0 0 1920 400">
  <!-- Generator: Adobe Illustrator 29.6.1, SVG Export Plug-In . SVG Version: 2.1.1 Build 9)  -->
  <defs>
    <style>
      .st0 {
        fill: #fff;
      }

      .st1 {
        fill: #0077c8;
      }
    </style>
  </defs>
  <path class="st0" d="M471.7,182c-19.4,0-34.1-4.1-46.7-16.9l16.2-16.2c8.1,8.1,19,10.8,30.9,10.8s22.6-5.6,22.6-15.8-1.3-8.3-4-10.8c-2.5-2.3-5.4-3.6-11.3-4.5l-15.5-2.2c-11-1.6-19-5-24.8-10.6-6.1-6.1-9.2-14.4-9.2-25.1,0-22.8,16.9-38.8,44.5-38.8s30.4,4.3,41.3,14.9l-15.8,15.6c-8.1-7.7-17.8-8.8-26.2-8.8-13.3,0-19.8,7.4-19.8,16.2s1.1,6.7,3.8,9.2c2.5,2.3,6.6,4.3,11.9,5l15.1,2.2c11.7,1.6,19,4.8,24.4,9.9,6.8,6.5,9.9,15.8,9.9,27.1,0,24.8-20.6,38.8-47.4,38.8h0Z"/>
  <path class="st0" d="M586.1,182c-26.2,0-47.1-17.8-47.1-44.9V53h25v83.2c0,14.7,8.6,23.5,22.1,23.5s22.3-8.8,22.3-23.5V53h24.8v84.1c0,27.1-20.8,44.9-47.1,44.9h0Z"/>
  <path class="st0" d="M694.6,182c-19.4,0-34.1-4.1-46.7-16.9l16.2-16.2c8.1,8.1,19,10.8,30.9,10.8s22.6-5.6,22.6-15.8-1.3-8.3-4-10.8c-2.5-2.3-5.4-3.6-11.3-4.5l-15.5-2.2c-11-1.6-19-5-24.8-10.6-6.1-6.1-9.2-14.4-9.2-25.1,0-22.8,16.9-38.8,44.5-38.8s30.3,4.3,41.3,14.9l-15.8,15.6c-8.1-7.7-17.8-8.8-26.2-8.8-13.3,0-19.8,7.4-19.8,16.2s1.1,6.7,3.8,9.2c2.5,2.3,6.6,4.3,11.8,5l15.1,2.2c11.7,1.6,19,4.8,24.4,9.9,6.8,6.5,9.9,15.8,9.9,27.1,0,24.8-20.7,38.8-47.4,38.8h0Z"/>
  <path class="st0" d="M812.8,75.3v105.6h-25v-105.6h-33.4v-22.3h91.8v22.3h-33.4Z"/>
  <path class="st0" d="M926.8,180.9l-7.5-22.6h-45.4l-7.7,22.6h-26l46.5-127.9h19.6l46.7,127.9h-26.1ZM897,90.7l-16.2,46.5h31.8s-15.6-46.5-15.6-46.5Z"/>
  <path class="st0" d="M967.1,180.9V53h25v127.9h-25Z"/>
  <path class="st0" d="M1095.9,180.9l-50.7-78.5v78.5h-25V53h22.3l50.7,78.3V53h25v127.9h-22.3,0Z"/>
  <path class="st0" d="M1219.1,180.9l-7.5-22.6h-45.4l-7.7,22.6h-26l46.5-127.9h19.6l46.7,127.9h-26.1ZM1189.3,90.7l-16.2,46.5h31.8s-15.6-46.5-15.6-46.5Z"/>
  <path class="st0" d="M1312.9,180.9h-53.5V53h51.4c25,0,39.5,14,39.5,35.9s-9.3,23.3-15.8,26.4c7.7,3.6,17.6,11.7,17.6,28.7s-16.3,36.8-39.2,36.8h0ZM1308.7,75.3h-24.4v29.4h24.4c10.6,0,16.5-5.9,16.5-14.7s-5.9-14.7-16.5-14.7h0ZM1310.3,127.2h-26v31.4h26c11.3,0,16.7-7.2,16.7-15.8s-5.4-15.6-16.7-15.6Z"/>
  <path class="st0" d="M1375.9,180.9V53h25v127.9h-25Z"/>
  <path class="st0" d="M1429.1,180.9V53h25v105.6h58v22.3h-83,0Z"/>
  <path class="st0" d="M1530.8,180.9V53h25v127.9h-25Z"/>
  <path class="st0" d="M1632.8,75.3v105.6h-25v-105.6h-33.4v-22.3h91.8v22.3h-33.4Z"/>
  <path class="st0" d="M1733.7,128.5v52.4h-24.8v-52.4l-38.4-75.4h27.1l23.9,51.5,23.5-51.5h27.1l-38.4,75.4h0Z"/>
  <path class="st0" d="M505.4,319.7h-59.6l-11.1,31.1h-10.4l47.1-127.9h8.6l47.1,127.9h-10.4l-11.1-31.1h0ZM448.9,311h53.5l-26.8-75.2-26.8,75.2h0Z"/>
  <path class="st0" d="M582.9,350.7h-9.7v-119.3h-38.1v-8.6h86v8.6h-38.3v119.3h0Z"/>
  <path class="st0" d="M724,351.8c-18.9,0-30.9-5.2-42.6-16.9l6.8-6.8c11.5,11.5,21,15.1,36.3,15.1s32.9-9.7,32.9-26.4-2.2-13.8-7-18c-4.8-3.8-7.9-5.4-18.5-6.8l-14.9-2.3c-9.7-1.4-17.2-4.5-22.8-9.3-6.6-5.6-10.1-13.5-10.1-23.5,0-21.6,15.1-35,39.7-35s25.9,4.3,36.8,13.8l-6.3,6.3c-7.5-7.2-16-11.9-31.1-11.9s-29.6,10.1-29.6,26.4,2.2,12.9,6.7,16.7c4.5,3.8,11.8,6.6,19,7.9l13.8,2.2c12,1.6,17.6,4,22.8,8.4,7,5.8,11.1,14.5,11.1,24.8,0,21.7-16.3,35.4-43.1,35.4h0Z"/>
  <path class="st0" d="M895.2,245.3l-38.8,87.5h-9.7l-39.5-87.5v105.4h-9.7v-127.9h9.7l44.5,98.6,43.5-98.6h9.7v127.9h-9.7v-105.4Z"/>
  <path class="st0" d="M944.5,222.9h9.7v127.9h-9.7v-127.9h0Z"/>
  <path class="st0" d="M1027.1,350.7h-9.7v-119.3h-38.1v-8.6h86v8.6h-38.3v119.3h0Z"/>
  <path class="st0" d="M1166.8,290.6h-66.6v60.2h-9.7v-127.9h9.7v59.1h66.6v-59.1h9.7v127.9h-9.7v-60.2Z"/>
  <path class="st0" d="M1248,351.8c-18.9,0-30.9-5.2-42.6-16.9l6.8-6.8c11.5,11.5,21,15.1,36.3,15.1s32.9-9.7,32.9-26.4-2.2-13.8-7-18c-4.8-3.8-7.9-5.4-18.5-6.8l-14.9-2.3c-9.7-1.4-17.2-4.5-22.8-9.3-6.6-5.6-10.1-13.5-10.1-23.5,0-21.6,15.1-35,39.7-35s25.9,4.3,36.8,13.8l-6.3,6.3c-7.5-7.2-16-11.9-31.1-11.9s-29.6,10.1-29.6,26.4,2.2,12.9,6.7,16.7c4.5,3.8,11.8,6.6,19,7.9l13.8,2.2c12,1.6,17.6,4,22.8,8.4,7,5.8,11.1,14.5,11.1,24.8,0,21.7-16.3,35.4-43.1,35.4h0Z"/>
  <circle class="st0" cx="203.9" cy="200" r="163.9"/>
  <path class="st1" d="M129.9,274.8c16.6,16.6,38.4,27.1,61.7,29.8s46.9-2.5,67-14.7c2.3-1.5,3-4.5,1.6-6.8-1.4-2.3-4.4-3.1-6.8-1.7-22.7,13.8-50.2,17.5-75.7,10.2-25.6-7.3-46.9-25-58.8-48.8-11.9-23.8-13.3-51.4-3.9-76.3,1,.2,1.9.3,2.9.3,7.3,0,13.8-4.4,16.6-11.1,2.8-6.7,1.2-14.4-4-19.6-7-7-18.4-6.9-25.4.1-7,7-6.9,18.4.1,25.4.2.2.4.3.7.5h0c-7.5,19.1-9.3,39.9-5,59.9,4.2,20,14.3,38.4,28.9,52.7h0ZM112.3,143.2c1.9-1.9,4.5-2.7,7.1-2.2,2.6.5,4.8,2.3,5.8,4.7,1,2.4.8,5.2-.7,7.4-1.5,2.2-3.9,3.5-6.6,3.6h0,0c-3.2,0-6.1-1.9-7.3-4.9-1.2-2.9-.6-6.4,1.7-8.6h0Z"/>
  <path class="st1" d="M277.9,125.5c-16.6-16.6-38.4-27.1-61.7-29.8-23.3-2.7-46.9,2.4-67,14.7-2.4,1.4-3.1,4.5-1.7,6.9,1.4,2.4,4.5,3.1,6.9,1.7,22.7-13.8,50.2-17.5,75.7-10.2,25.6,7.3,46.9,25,58.8,48.8,11.9,23.8,13.3,51.4,3.8,76.3-1-.2-2-.3-3-.3-7.3,0-13.8,4.4-16.5,11.2-2.7,6.7-1.2,14.4,4,19.5h0,0c7,7,18.4,6.9,25.4-.1,7-7,6.9-18.4-.1-25.4-.2-.2-.4-.3-.6-.5,7.5-19.1,9.3-39.9,5-60-4.2-20-14.3-38.4-28.9-52.8h0ZM295.4,257.1h0c-1.9,1.9-4.5,2.7-7.1,2.2-2.6-.5-4.8-2.3-5.8-4.7-1-2.4-.8-5.2.7-7.4,1.5-2.2,3.9-3.5,6.6-3.6h0c3.2,0,6.1,1.9,7.3,4.9,1.2,2.9.6,6.4-1.7,8.6h0Z"/>
  <path class="st1" d="M182.7,249.7h.3c35.6-8.6,59.6-30.5,64-58.8,2.6-19.9-2.2-40.1-13.3-56.8-.9-1.4-2.3-2.2-3.9-2.3-1.6,0-3.1.6-4.2,1.8-9.1,10.4-19.6,19.6-31,27.4-17,12.4-31.7,23-30.6,48.2.6,11.7,3.8,23.2,9.3,33.6-2.6,6.5-5,13.5-7.2,21.1-.8,2.7.8,5.4,3.4,6.2,2.7.8,5.4-.8,6.2-3.4,1.7-5.9,3.6-11.4,5.5-16.6.3,0-.3,0,0,0l.8-2.2c0-.2.1-.3.2-.5l.5,2.4h0ZM178.6,230.5h0c-2.7-6.9-4.2-14.3-4.6-21.7-.8-19.8,10.1-27.7,26.5-39.7,10.1-7,19.6-14.9,28.1-23.8,7.5,13.4,10.4,28.8,8.5,44.1-5,31.5-35.8,44.5-51.2,49.1,7.7-18.4,18.9-35,33.1-49,2-1.8,2.2-4.9.4-6.9-1.8-2.1-4.8-2.4-6.9-.7-14.4,13.8-25.9,30.4-33.9,48.6h0Z"/>
</svg>