<svg width="48" height="48" viewBox="0 0 48 48" fill="none" xmlns="http://www.w3.org/2000/svg">
<circle cx="24" cy="24" r="24" fill="#0077C8"/>
<path fill-rule="evenodd" clip-rule="evenodd" d="M25.4989 10.9267C25.7534 11.0372 25.9046 11.3022 25.8702 11.5776L24.708 20.875H35.25C35.4925 20.875 35.7131 21.0153 35.816 21.2349C35.9189 21.4546 35.8854 21.7138 35.7301 21.9002L23.2301 36.9002C23.0525 37.1133 22.7556 37.1838 22.5011 37.0733C22.2466 36.9629 22.0954 36.6978 22.1298 36.4225L23.292 27.125H12.75C12.5075 27.125 12.2869 26.9847 12.184 26.7651C12.0812 26.5455 12.1146 26.2862 12.2699 26.0999L24.7699 11.0999C24.9475 10.8868 25.2444 10.8162 25.4989 10.9267ZM14.0844 25.875H24C24.1793 25.875 24.3499 25.952 24.4686 26.0864C24.5872 26.2208 24.6424 26.3997 24.6202 26.5776L23.6346 34.4623L33.9156 22.125H24C23.8207 22.125 23.6501 22.0481 23.5315 21.9137C23.4128 21.7793 23.3576 21.6004 23.3798 21.4225L24.3654 13.5378L14.0844 25.875Z" fill="white"/>
</svg>
