<svg width="31" height="30" viewBox="0 0 31 30" fill="none" xmlns="http://www.w3.org/2000/svg">
<path d="M17.173 0.554688H13.9007C13.7898 0.559855 13.6841 0.602072 13.6018 0.674187C13.5195 0.746301 13.4656 0.843809 13.4494 0.95005L13.0404 4.01775C11.6878 4.31272 10.3989 4.83414 9.2322 5.55842L6.74984 3.66325C6.66118 3.60926 6.55841 3.58089 6.45363 3.58144C6.39653 3.57927 6.33975 3.59056 6.28815 3.61431C6.23656 3.63806 6.1917 3.67361 6.15745 3.71784L3.84434 5.95387C3.76768 6.02801 3.72461 6.12848 3.72461 6.23331C3.72461 6.33813 3.76768 6.43869 3.84434 6.51283L5.79073 8.96697C5.05878 10.1035 4.52066 11.3465 4.19695 12.6482L1.03756 13.0436C0.926524 13.0567 0.824087 13.108 0.748975 13.1881C0.673862 13.2683 0.631108 13.3718 0.62854 13.4799V16.643C0.633886 16.7503 0.67758 16.8525 0.752181 16.9321C0.826783 17.0116 0.927653 17.0637 1.03756 17.0793L4.19695 17.4747C4.50209 18.7822 5.04147 20.0281 5.79073 21.156L3.84434 23.5965C3.76681 23.6729 3.72339 23.7757 3.72339 23.8828C3.72339 23.9899 3.76681 24.0927 3.84434 24.1692L6.15745 26.4052C6.19657 26.4475 6.24436 26.4814 6.29777 26.5049C6.35119 26.5284 6.40908 26.5408 6.46775 26.5415C6.57046 26.5427 6.67032 26.5089 6.74984 26.446L9.28863 24.5645C10.4612 25.2687 11.7417 25.7887 13.0827 26.1052L13.4917 29.1592C13.5053 29.2666 13.5583 29.3657 13.6412 29.4383C13.7241 29.5109 13.8313 29.5522 13.9431 29.5547H17.173C17.2848 29.5522 17.392 29.5109 17.4748 29.4383C17.5577 29.3657 17.6108 29.2666 17.6243 29.1592L18.0333 26.1052C19.386 25.8102 20.6748 25.2888 21.8415 24.5645L24.3239 26.4052L24.6483 26.487L25.015 26.3642L27.2717 24.1692C27.3492 24.0927 27.3927 23.9899 27.3927 23.8828C27.3927 23.7757 27.3492 23.6729 27.2717 23.5965L25.3253 21.156C26.099 20.0356 26.6801 18.8017 27.046 17.502L30.2195 17.1066C30.3284 17.0886 30.4278 17.0358 30.5019 16.9567C30.5761 16.8776 30.6207 16.7768 30.6285 16.6703V13.5072C30.6042 13.4004 30.5489 13.3026 30.4689 13.2253C30.3889 13.1479 30.2877 13.0944 30.1772 13.0709L27.0037 12.6755C26.6986 11.368 26.1592 10.1221 25.4099 8.99427L27.314 6.58099C27.3919 6.48856 27.4344 6.373 27.4344 6.25378C27.4344 6.13456 27.3919 6.019 27.314 5.92657L25.0432 3.74505C25.0041 3.70276 24.9563 3.66883 24.9029 3.64535C24.8495 3.62188 24.7916 3.60942 24.7329 3.60874C24.6326 3.60847 24.5344 3.63693 24.4508 3.69054L21.9261 5.58572C20.7504 4.87817 19.4646 4.35796 18.118 4.04504L17.7089 0.977345C17.6903 0.872139 17.6357 0.775988 17.5539 0.704311C17.4721 0.632634 17.3677 0.589598 17.2576 0.581983M9.37325 6.49919L9.64124 6.41738C10.841 5.63247 12.1948 5.0942 13.6187 4.83585C13.7143 4.8142 13.8008 4.7646 13.8664 4.69388C13.932 4.62317 13.9735 4.53469 13.9854 4.44041L14.4367 1.5091H16.9332L17.3422 4.48135C17.3608 4.5731 17.4046 4.65831 17.4692 4.72792C17.5338 4.79753 17.6166 4.84892 17.7089 4.87671C19.1518 5.15281 20.5232 5.7044 21.7428 6.49919C21.8247 6.54336 21.917 6.56659 22.0108 6.56659C22.1046 6.56659 22.1968 6.54336 22.2787 6.49919L24.7329 4.6586L26.496 6.36288L24.5919 8.73522C24.5235 8.80798 24.4856 8.90278 24.4856 9.00109C24.4856 9.09941 24.5235 9.1942 24.5919 9.26697C25.4223 10.4416 25.9937 11.7689 26.2703 13.1663C26.2969 13.2554 26.3497 13.3351 26.4223 13.3956C26.495 13.4561 26.5843 13.4949 26.6793 13.5072L29.7541 13.9026V16.2749L26.6793 16.6703C26.5855 16.6857 26.4978 16.7255 26.4257 16.7856C26.3536 16.8457 26.2998 16.9237 26.2703 17.0112C25.9847 18.406 25.4141 19.7316 24.5919 20.9106C24.5436 20.9914 24.5182 21.0831 24.5182 21.1764C24.5182 21.2698 24.5436 21.3615 24.5919 21.4423L26.496 23.801L24.7752 25.5598L22.3211 23.7192C22.2879 23.6872 22.2482 23.6622 22.2045 23.6457C22.1608 23.6293 22.114 23.6218 22.0672 23.6238C21.9645 23.6226 21.8646 23.6563 21.7851 23.7192C20.5655 24.514 19.1941 25.0656 17.7513 25.3417C17.6556 25.3633 17.5691 25.4128 17.5035 25.4836C17.4379 25.5543 17.3964 25.6428 17.3845 25.737L16.9332 28.6684H14.3521L13.9431 25.6825C13.9195 25.5929 13.8739 25.5101 13.81 25.4413C13.7461 25.3724 13.666 25.3196 13.5764 25.2872C12.1387 25.016 10.7718 24.4689 9.55661 23.6783C9.46437 23.6533 9.36676 23.6533 9.27451 23.6783C9.187 23.6537 9.09406 23.6537 9.00655 23.6783L6.55238 25.5598L4.78933 23.8419L6.65109 21.4832C6.71988 21.4026 6.75752 21.3014 6.75752 21.1969C6.75752 21.0924 6.71988 20.9912 6.65109 20.9106C5.83662 19.7471 5.27963 18.4334 5.015 17.0521C4.98845 16.963 4.93561 16.8833 4.86297 16.8228C4.79034 16.7623 4.70102 16.7235 4.60596 16.7112L1.57353 16.2749V13.8617L4.66239 13.4662C4.75415 13.4449 4.83866 13.4011 4.90783 13.339C4.97699 13.2769 5.02848 13.1987 5.05731 13.1118C5.34863 11.7187 5.9188 10.3941 6.73574 9.21238C6.7842 9.13409 6.80979 9.04456 6.80979 8.95333C6.80979 8.86209 6.7842 8.77256 6.73574 8.69427L4.78933 6.32193L6.55238 4.61766L9.00655 6.41738L9.37325 6.49919Z" fill="white"/>
<path d="M15.6282 6.55469C13.9502 6.55475 12.3096 7.05152 10.9134 7.98239C9.51718 8.91326 8.42772 10.2366 7.78233 11.7856C7.13694 13.3346 6.9645 15.04 7.28672 16.6869C7.60895 18.3338 8.41143 19.8484 9.59304 21.0399C10.7747 22.2315 12.2825 23.0465 13.9266 23.3825C15.5707 23.7185 17.2775 23.5604 18.8319 22.928C20.3862 22.2956 21.7186 21.2172 22.6611 19.8288C23.6037 18.4404 24.1141 16.8042 24.1282 15.1261C24.1377 14.0039 23.9248 12.8909 23.5018 11.8513C23.0789 10.8118 22.4543 9.86631 21.6641 9.06943C20.8738 8.27255 19.9336 7.64009 18.8976 7.20846C17.8617 6.77684 16.7505 6.55465 15.6282 6.55469ZM15.6282 22.6261C14.1308 22.6261 12.6669 22.182 11.4218 21.3501C10.1767 20.5181 9.20622 19.3357 8.63316 17.9522C8.06009 16.5687 7.91015 15.0463 8.20229 13.5776C8.49444 12.1089 9.21555 10.7598 10.2744 9.70088C11.3333 8.642 12.6824 7.92088 14.1511 7.62873C15.6198 7.33659 17.1422 7.48649 18.5257 8.05956C19.9092 8.63262 21.0917 9.60314 21.9236 10.8483C22.7556 12.0934 23.1997 13.5572 23.1997 15.0547C23.1959 17.0616 22.397 18.9853 20.9779 20.4044C19.5588 21.8235 17.6352 22.6224 15.6282 22.6261Z" fill="white"/>
<path d="M15.6604 8.17973C15.4693 8.17809 15.2817 8.22836 15.1195 8.32475C14.9574 8.42113 14.8273 8.55964 14.7446 8.72397L9.77533 17.7468C9.67941 17.8927 9.62854 18.0614 9.62854 18.2337C9.62854 18.4059 9.67941 18.5747 9.77533 18.7206C9.86526 18.8635 9.99316 18.9811 10.1461 19.0616C10.299 19.142 10.4715 19.1826 10.6461 19.179H20.6297C20.8048 19.1856 20.9786 19.1465 21.1321 19.0657C21.2855 18.9849 21.4129 18.8655 21.5004 18.7206C21.5845 18.5709 21.6285 18.4036 21.6285 18.2337C21.6285 18.0638 21.5845 17.8965 21.5004 17.7468L16.4861 8.72397C16.3968 8.56468 16.2652 8.43057 16.1045 8.33506C15.9438 8.23955 15.7596 8.18597 15.5703 8.17973M10.6011 18.3053V18.2051L15.5703 9.18228L20.5396 18.2051V18.3053H10.6011Z" fill="white"/>
<path d="M15.6285 16.4298C15.5639 16.4281 15.4997 16.4403 15.4401 16.4656C15.3806 16.4909 15.327 16.5287 15.2831 16.5766C15.2347 16.6225 15.196 16.6779 15.1694 16.7394C15.1429 16.8009 15.129 16.8672 15.1286 16.9342C15.128 17.0001 15.1415 17.0654 15.1682 17.1255C15.1948 17.1857 15.234 17.2393 15.2831 17.2828C15.327 17.3306 15.3806 17.3684 15.4401 17.3937C15.4997 17.419 15.5639 17.4313 15.6285 17.4295C15.7596 17.4295 15.8854 17.3776 15.9789 17.285C16.0724 17.1924 16.1262 17.0664 16.1285 16.9342C16.1262 16.8008 16.0743 16.6732 15.9831 16.5766C15.9371 16.5289 15.8819 16.4914 15.8209 16.4661C15.7599 16.4409 15.6945 16.4285 15.6285 16.4298Z" fill="white"/>
<path d="M16.1285 11.4297H15.1285V12.4598L15.3029 15.4297H15.945L16.1285 12.4598V11.4297Z" fill="white"/>
</svg>
