<?xml version="1.0" encoding="UTF-8"?>
<svg id="Layer_1" xmlns="http://www.w3.org/2000/svg" version="1.1" viewBox="0 0 1500 400">
  <!-- Generator: Adobe Illustrator 29.6.1, SVG Export Plug-In . SVG Version: 2.1.1 Build 9)  -->
  <defs>
    <style>
      .st0 {
        fill: #fff;
      }

      .st1 {
        fill: #0077c8;
      }
    </style>
  </defs>
  <circle class="st0" cx="203.9" cy="200" r="163.9"/>
  <path class="st0" d="M486,126.5h-24.6v48.1h-25V46.8h49.6c26.4,0,42.2,18.1,42.2,39.9s-15.8,39.9-42.2,39.9ZM484.8,69.1h-23.4v35h23.4c11.3,0,18.5-7,18.5-17.4s-7.2-17.6-18.5-17.6Z"/>
  <path class="st0" d="M549.3,174.7V46.8h84.2v22.3h-59.3v30h50.5v22.3h-50.5v31.1h59.3v22.3h-84.2Z"/>
  <path class="st0" d="M735.4,161.7c-9,9-19.9,14-34.5,14s-25.7-5-34.7-14c-12.9-12.9-12.6-28.9-12.6-51s-.4-38.1,12.6-51c9-9,20.1-14,34.7-14s25.5,5,34.5,14c12.9,12.9,12.8,28.9,12.8,51s.2,38.1-12.8,51ZM716.9,74.8c-3.6-4.1-9.2-6.8-16-6.8s-12.6,2.7-16.2,6.8c-4.8,5.4-6.1,11.3-6.1,35.9s1.3,30.5,6.1,35.9c3.6,4.1,9.3,6.8,16.2,6.8s12.4-2.7,16-6.8c4.8-5.4,6.3-11.3,6.3-35.9s-1.4-30.5-6.3-35.9Z"/>
  <path class="st0" d="M823.2,126.5h-24.6v48.1h-25V46.8h49.6c26.4,0,42.2,18.1,42.2,39.9s-15.8,39.9-42.2,39.9ZM821.9,69.1h-23.3v35h23.3c11.3,0,18.5-7,18.5-17.4s-7.2-17.6-18.5-17.6Z"/>
  <path class="st0" d="M886.4,174.7V46.8h25v105.6h58v22.3h-83,0Z"/>
  <path class="st0" d="M989.7,174.7V46.8h84.2v22.3h-59.3v30h50.5v22.3h-50.5v31.1h59.3v22.3h-84.2Z"/>
  <path class="st0" d="M1217.5,161.7c-9,9-19.9,14-34.5,14s-25.7-5-34.7-14c-12.9-12.9-12.6-28.9-12.6-51s-.4-38.1,12.6-51c9-9,20.1-14,34.7-14s25.5,5,34.5,14c12.9,12.9,12.8,28.9,12.8,51s.2,38.1-12.8,51ZM1199,74.8c-3.6-4.1-9.2-6.8-16-6.8s-12.6,2.7-16.2,6.8c-4.8,5.4-6.1,11.3-6.1,35.9s1.3,30.5,6.1,35.9c3.6,4.1,9.3,6.8,16.2,6.8s12.4-2.7,16-6.8c4.8-5.4,6.3-11.3,6.3-35.9s-1.4-30.5-6.3-35.9Z"/>
  <path class="st0" d="M1280.7,69.1v31.4h50.5v22.3h-50.5v51.9h-25V46.8h84.2v22.3h-59.3Z"/>
  <path class="st0" d="M473.3,345.6c-18.9,0-30.9-5.2-42.6-16.9l6.8-6.8c11.5,11.5,21,15.1,36.3,15.1s32.9-9.7,32.9-26.4-2.2-13.8-7-18c-4.9-3.8-7.9-5.4-18.5-6.8l-14.9-2.3c-9.7-1.4-17.2-4.5-22.8-9.3-6.6-5.6-10.1-13.5-10.1-23.5,0-21.6,15.1-35,39.7-35s25.9,4.3,36.8,13.8l-6.3,6.3c-7.5-7.2-16-11.9-31.1-11.9s-29.6,10.1-29.6,26.4,2.2,12.9,6.6,16.7,11.9,6.6,19,7.9l13.8,2.2c12,1.6,17.6,4,22.8,8.4,7,5.8,11.1,14.5,11.1,24.8,0,21.7-16.3,35.4-43.1,35.4h0Z"/>
  <path class="st0" d="M644.5,239.1l-38.8,87.5h-9.7l-39.5-87.5v105.4h-9.7v-127.9h9.7l44.5,98.6,43.5-98.6h9.7v127.9h-9.7v-105.4h0Z"/>
  <path class="st0" d="M693.7,216.6h9.7v127.9h-9.7v-127.9Z"/>
  <path class="st0" d="M776.3,344.5h-9.7v-119.3h-38.1v-8.6h86v8.6h-38.3v119.3h0Z"/>
  <path class="st0" d="M916.1,284.3h-66.6v60.2h-9.7v-127.9h9.7v59.1h66.6v-59.1h9.7v127.9h-9.7v-60.2h0Z"/>
  <path class="st0" d="M997.3,345.6c-18.9,0-30.9-5.2-42.6-16.9l6.8-6.8c11.5,11.5,21,15.1,36.3,15.1s32.9-9.7,32.9-26.4-2.2-13.8-7-18c-4.8-3.8-7.9-5.4-18.5-6.8l-14.9-2.3c-9.7-1.4-17.2-4.5-22.8-9.3-6.6-5.6-10.1-13.5-10.1-23.5,0-21.6,15.1-35,39.7-35s25.9,4.3,36.8,13.8l-6.3,6.3c-7.5-7.2-16-11.9-31.1-11.9s-29.6,10.1-29.6,26.4,2.2,12.9,6.7,16.7c4.5,3.8,11.8,6.6,19,7.9l13.8,2.2c12,1.6,17.6,4,22.8,8.4,7,5.8,11.1,14.5,11.1,24.8,0,21.7-16.3,35.4-43.1,35.4h0Z"/>
  <path class="st1" d="M123.6,175.5c.4.3,9.8,7.1,27.6,7.1h.2c3.1,0,6.2-.2,9.4-.7,2.4-.4,4-2.6,3.7-5-.4-2.4-2.6-4-4.9-3.7-2.7.4-5.5.6-8.3.6-7.1.2-14.2-1.3-20.6-4.4v-14.1c0-6.8,5.5-12.3,12.3-12.3h16.7c1.4,0,2.8.2,4.1.7,1.1.4,2.3.4,3.3-.1s1.9-1.4,2.3-2.4c.4-1.1.4-2.3-.1-3.3s-1.4-1.9-2.4-2.3c-.1,0-.2,0-.4-.1,4.2-5.5,5.1-12.9,2.2-19.3-3.1-6.8-9.8-11.1-17.2-11.1h0c-7.4,0-14.1,4.3-17.2,11.1-2.9,6.4-2,13.8,2.1,19.3-8.4,2.9-14.2,10.9-14.3,19.9v16.6c0,1.4.7,2.7,1.8,3.5h0ZM151.2,113.9c5.6,0,10.2,4.6,10.2,10.2,0,5.6-4.5,10.2-10.3,10.3-5.6,0-10.1-4.6-10.1-10.2,0-5.6,4.6-10.2,10.2-10.2h0Z"/>
  <path class="st1" d="M241.2,135.6c-1.1.4-2,1.2-2.5,2.3s-.5,2.2-.1,3.3c.4,1.1,1.2,2,2.3,2.5s2.2.5,3.3.1c1.3-.5,2.7-.7,4.1-.7h16.7c6.8,0,12.3,5.5,12.3,12.3v14.1c-6.4,3.1-13.5,4.6-20.6,4.4-2.7,0-5.5-.2-8.2-.6-2.4-.4-4.6,1.3-4.9,3.7-.4,2.4,1.3,4.6,3.7,5,3.1.4,6.3.7,9.4.7h.2c17.8,0,27.2-6.8,27.6-7.1,1.1-.8,1.8-2.1,1.8-3.5v-16.6c0-9-5.8-17-14.3-19.9,2.5-3.2,3.8-7.2,3.9-11.3,0-6.2-3-12.1-8.1-15.7-5.1-3.6-11.6-4.4-17.5-2.2-5.8,2.2-10.2,7.1-11.8,13.1-1.4,5.6-.2,11.5,3.3,16.1-.1,0-.2,0-.4.1h0ZM266.8,124.1c0,5.6-4.5,10.2-10.3,10.3-5.6,0-10.1-4.6-10.1-10.2,0-5.6,4.6-10.2,10.2-10.2s10.2,4.6,10.2,10.1Z"/>
  <path class="st1" d="M296.7,239.7c.1-.4.3-.8.4-1.1.8-1.9,1.4-3.9,2.1-5.8.3-1,.6-1.9.9-2.9.5-1.6.9-3.1,1.2-4.7.2-.8.4-1.6.5-2.4.5-2.4,1-4.9,1.3-7.3,0,0,0,0,0-.1.3-2.5.5-5.1.7-7.6,0-.4,0-.9,0-1.3.1-2.5.1-5,0-7.5v-.2c0-2.7-.3-5.3-.6-8,0-.3,0-.7-.1-1-.3-2.2-.6-4.4-1-6.6-.1-.6-.2-1.2-.3-1.8-.5-2.5-1.1-5-1.8-7.4l-.4-1.3-.2.2s0,0,0,0c-.2-.4-.5-.7-.8-.9,0,0,0,0,0,0-.3-.2-.6-.4-1-.6,0,0-.1,0-.2,0-.4-.1-.8-.2-1.2-.2h-.3c-.4,0-.8,0-1.2.1h0c-2.3.7-3.6,3.1-3,5.4,2,6.9,3.2,14.1,3.5,21.4h-32.2v-.3c0-.7,0-1.4,0-2,0-.6-.2-1.2-.5-1.7-.2-.5-.5-.9-1-1.3-.9-.8-2-1.2-3.2-1.1-1.1,0-2.2.6-3,1.4,0,0-.1.2-.2.3-.2.3-.4.6-.6,1,0,.2-.1.3-.1.5,0,.2-.1.3-.1.5h0v.9c0,.6,0,1.3,0,1.9h-100.7c0-.6,0-1.3,0-1.9v-.9s0,0,0,0c0-.2-.1-.3-.1-.5,0-.2,0-.3-.1-.5-.1-.4-.4-.7-.6-1,0,0-.1-.2-.2-.3-.8-.9-1.9-1.4-3-1.4-1.1,0-2.3.4-3.1,1.1-.4.4-.7.8-.9,1.2-.3.5-.5,1.1-.5,1.8,0,.6,0,1.3,0,2v.4h-32.2c.3-7.2,1.5-14.4,3.5-21.4.7-2.3-.7-4.7-3-5.4h0c-.4-.1-.8-.1-1.2-.2h-.3c-.4,0-.8,0-1.2.2,0,0,0,0,0,0-.3.1-.7.3-1,.5,0,0-.1,0-.2.1-.3.2-.6.5-.8.8,0,0,0,0,0,0l-.2-.3-.5,1.7c-.7,2.5-1.3,4.9-1.8,7.4-.1.6-.2,1.2-.3,1.7-.4,2.2-.8,4.4-1.1,6.6,0,.3,0,.7-.1,1-.3,2.7-.5,5.3-.6,8v.2c0,2.5,0,5,0,7.5,0,.4,0,.9,0,1.3.1,2.6.4,5.1.7,7.6,0,0,0,0,0,.1.3,2.5.8,4.9,1.3,7.3.2.8.4,1.6.6,2.4.4,1.6.8,3.1,1.2,4.7.3,1,.5,1.9.8,2.9.7,2,1.4,4.1,2.2,6.1.1.3.2.6.3.9,0,.1.1.2.2.3,1.8,4.5,4,8.8,6.5,13,0,0,0,.2,0,.2.2.3.4.7.6,1,.4.7.9,1.4,1.3,2.1.7,1,1.3,2,2,3,.4.6.9,1.3,1.4,1.9.7,1,1.5,2,2.3,3,.2.2.3.4.5.6.4.5.8.9,1.1,1.3.7.8,1.4,1.7,2.1,2.5.6.6,1.2,1.3,1.8,1.9.7.8,1.4,1.5,2.2,2.3s1.3,1.3,2,1.9c.7.7,1.5,1.4,2.2,2.1.7.6,1.5,1.2,2.2,1.9.7.6,1.5,1.2,2.2,1.8.9.7,1.7,1.3,2.6,1.9,1.2.9,2.4,1.7,3.6,2.6,1,.7,2,1.4,3.1,2,.8.5,1.6,1,2.5,1.4.8.5,1.6,1,2.5,1.4.9.5,1.8.9,2.7,1.4.8.4,1.6.8,2.4,1.2.9.4,1.9.8,2.8,1.2.8.4,1.6.7,2.5,1.1.9.4,1.9.7,2.9,1.1.9.3,1.7.6,2.6.9,1,.3,1.9.6,2.9.9.9.3,1.8.5,2.6.8,1,.3,1.9.5,2.9.8.9.2,1.9.4,2.8.6.9.2,1.9.4,2.9.6,1,.2,2,.3,3,.5.9.1,1.8.3,2.8.4,1.1.1,2.1.2,3.2.3.6,0,1.2.1,1.9.2.2,0,.4,0,.7,0,2.1.1,4.2.2,6.4.2h.2c2.1,0,4.2,0,6.4-.2.2,0,.4,0,.7,0,.6,0,1.3-.1,1.9-.2,1.1-.1,2.1-.2,3.2-.3.9-.1,1.9-.2,2.8-.4,1-.1,1.9-.3,2.9-.5,1-.2,1.9-.4,2.9-.6.9-.2,1.8-.4,2.7-.6,1-.2,2-.5,3-.8.9-.2,1.7-.5,2.6-.8,1-.3,2-.6,3-1,.8-.3,1.6-.6,2.5-.9,1-.4,2-.7,2.9-1.1.8-.3,1.6-.7,2.4-1,1-.4,1.9-.8,2.9-1.3.8-.4,1.6-.8,2.4-1.2.9-.5,1.8-.9,2.7-1.4.8-.4,1.6-.9,2.4-1.4.9-.5,1.7-1,2.6-1.5,1-.6,2-1.3,2.9-1.9,1.3-.9,2.5-1.8,3.8-2.7.9-.6,1.7-1.3,2.6-1.9.7-.6,1.5-1.2,2.2-1.8.8-.6,1.5-1.2,2.2-1.9.8-.7,1.5-1.4,2.2-2.1.7-.6,1.4-1.3,2-1.9s1.5-1.5,2.2-2.3c.6-.6,1.2-1.3,1.8-1.9.7-.8,1.4-1.7,2.1-2.5.4-.4.8-.9,1.1-1.3.2-.2.3-.4.5-.6.8-1,1.5-2,2.3-3,.5-.6.9-1.3,1.4-1.9.7-1,1.4-2,2-3,.5-.7.9-1.4,1.3-2.1.2-.3.4-.7.6-1,0,0,0-.2,0-.2,2.5-4.2,4.6-8.5,6.5-13,0-.1.1-.2.2-.3h0ZM133.3,260c-.2-.2-.4-.4-.5-.6-1-1.3-2-2.6-3-3.9-.7-.9-1.3-1.9-1.9-2.8-.2-.3-.4-.7-.6-1-5.4-8.4-9.4-17.7-11.9-27.4v-.3c-.4-1.3-.7-2.7-1-4-.3-1.5-.6-3.1-.8-4.6-.1-.9-.2-1.8-.3-2.7-.2-1.7-.4-3.5-.5-5.2,0-.3,0-.6,0-.8h32.2c.3,18.9,4.1,37.3,11.4,54.8-4.9,2.3-9.7,5-14.3,7.9-1.6-1.5-3.1-3-4.6-4.5,0,0-.1-.2-.2-.2-1.3-1.4-2.6-2.9-3.8-4.4h0ZM198.4,292.9c-11.6-2.3-22.4-11.8-30.6-27,6.3-2.4,12.8-4.1,19.4-5.2,4.1-.7,8.2-1.2,12.3-1.4v34c-.4,0-.7-.2-1.1-.3h0ZM160,269.2c2.8,5.4,6.1,10.3,10,14.9.1.1.3.3.4.4,1.1,1.3,2.3,2.6,3.6,3.9-8.9-3.1-17.3-7.6-24.9-13.3,1.5-.9,2.9-1.7,4.4-2.5,2.1-1.2,4.3-2.3,6.6-3.4h0ZM199.5,250.5c-12.2.5-24.1,3.1-35.5,7.5-6.7-16.4-10.2-33.7-10.5-51.4h46v43.9h0ZM243.7,258c-11.4-4.4-23.3-6.9-35.5-7.5v-43.9h46c-.3,17.7-3.8,35-10.5,51.4h0ZM208.2,293.1v-34c7.2.3,14.3,1.5,21.2,3.4,3.5.9,7,2,10.5,3.3-8.3,15.5-19.3,25-31.1,27.1-.2,0-.4.1-.6.1h0ZM258.8,275.1c-7.6,5.7-16,10.2-24.9,13.3,1.2-1.2,2.4-2.5,3.6-3.9.1-.1.3-.3.4-.4,1.2-1.4,2.4-2.9,3.5-4.4,0,0,.1-.2.2-.3,2.4-3.2,4.4-6.6,6.3-10.2,2.5,1.2,4.9,2.4,7.2,3.8,1.3.7,2.5,1.4,3.8,2.1h0ZM294.6,212.6c-.1.9-.2,1.8-.3,2.7-.2,1.6-.5,3.1-.8,4.7-.3,1.4-.6,2.7-.9,4,0,.1,0,.2,0,.3-2.5,9.7-6.5,18.9-11.9,27.4-.2.3-.4.7-.6,1-.6.9-1.3,1.9-1.9,2.8-1,1.4-2,2.7-3,4-.1.2-.3.4-.5.5-1.2,1.5-2.5,3-3.9,4.4,0,0-.1.1-.2.2-1.5,1.6-3,3.1-4.6,4.5-4.6-2.9-9.4-5.5-14.3-7.9,7.3-17.5,11.1-35.9,11.4-54.8h32.2c0,.3,0,.6,0,.8-.1,1.8-.3,3.5-.5,5.2h0Z"/>
  <path class="st1" d="M172.8,146c-.1.3-.3.6-.4.9-.4.8-.7,1.5-1,2.3-.2.4-.3.9-.4,1.3-.2.7-.4,1.5-.6,2.2,0,.4-.2.8-.2,1.3-.2,1.2-.3,2.4-.3,3.6h0v19.8c0,1.4.6,2.7,1.7,3.5,0,0,.4.3,1.1.7,3.2,2,13.5,7.6,31.2,7.6s31.8-7.9,32.3-8.3c1.1-.8,1.7-2.1,1.7-3.5v-19.8h0c0-1.2-.1-2.4-.3-3.6,0-.4-.2-.8-.2-1.2-.1-.8-.3-1.5-.6-2.2-.1-.4-.3-.9-.4-1.3-.3-.8-.6-1.6-1-2.3-.1-.3-.2-.6-.4-.9,0-.1,0-.2-.1-.3,0,0-.1-.1-.2-.2-2.8-4.9-7.3-8.7-12.9-10.6-.1,0-.3-.2-.4-.2-.2,0-.5-.1-.7-.2,0,0,0,0-.1,0,.3-.4.6-.8.9-1.2.3-.4.6-.8.9-1.3s.2-.5.4-.7c.4-.6.7-1.3,1-1.9,0-.2.1-.4.2-.5.3-.7.6-1.5.8-2.2,0-.2,0-.4.1-.6.2-.8.4-1.6.5-2.3,0-.2,0-.3,0-.4.1-.8.2-1.7.2-2.5,0-.1,0-.2,0-.3,0-.9,0-1.8-.1-2.6,0,0,0,0,0-.1-.2-1.9-.8-3.8-1.5-5.6-.4-1-.9-2-1.5-2.9-.1-.2-.3-.3-.4-.5-.5-.7-.9-1.4-1.5-2-.3-.4-.7-.7-1-1-.4-.4-.8-.8-1.2-1.2-.4-.4-.9-.7-1.4-1.1-.4-.3-.7-.6-1-.8-.5-.3-1.1-.6-1.7-.9-.4-.2-.7-.4-1-.6-.6-.3-1.1-.4-1.7-.7-.4-.2-.8-.3-1.2-.5-.5-.2-1.1-.2-1.7-.4-.5-.1-.9-.2-1.4-.3-.5,0-1.1,0-1.6-.1-.5,0-1-.1-1.6-.1h0c-.5,0-1.1,0-1.6.1-.5,0-1.1,0-1.6.1-.5,0-1,.2-1.5.3-.5.1-1.1.2-1.6.4-.4.1-.9.3-1.3.5-.5.2-1.1.4-1.6.6-.4.2-.8.4-1.2.7-.5.3-1.1.6-1.6.9-.4.3-.8.6-1.2.9-.4.3-.9.6-1.3,1-.5.4-.9.9-1.3,1.4-.3.3-.6.6-.8.9-.6.7-1.2,1.5-1.7,2.3,0,0-.1.1-.2.2-.6.9-1.1,1.9-1.5,2.9-.8,1.8-1.2,3.7-1.5,5.6,0,0,0,.1,0,.2-.1.8-.1,1.7-.1,2.5s0,.3,0,.5c0,.8,0,1.6.2,2.4,0,.2,0,.4,0,.6.1.8.3,1.5.5,2.3,0,.2,0,.4.1.6.2.7.5,1.5.8,2.2,0,.2.1.4.2.6.3.7.7,1.3,1,1.9.1.2.2.5.4.7.3.4.6.9.9,1.3.3.4.5.8.9,1.2,0,0,0,0-.1,0-.2,0-.5.1-.7.2-.1,0-.3.2-.4.2-5.6,1.9-10.1,5.7-12.9,10.6,0,0-.2.1-.2.2s0,.2-.1.3h0ZM178.9,154.8c0-.2,0-.4.1-.6.2-.9.5-1.8.8-2.6,0,0,0,0,0,0,1.9-4.4,5.8-7.7,10.5-8.9.3,0,.6-.2.9-.2.9-.2,1.9-.3,2.8-.3h19.8c1,0,1.9.1,2.8.3.3,0,.6.1.9.2,4.7,1.2,8.6,4.5,10.5,8.9,0,0,0,0,0,0,.4.8.6,1.7.8,2.6,0,.2,0,.4.1.6.2.9.3,1.8.3,2.7v17.3c-7.8,3.9-16.5,5.8-25.3,5.5h0c-1.1,0-2.1,0-3.2,0-6.5-.2-13-1.6-19-4.1,0,0,0,0,0,0-1-.4-2-.9-3-1.4v-17.3h0c0-.9.1-1.8.3-2.7h0ZM191.2,118.2c0-.2,0-.4.1-.6.2-.8.4-1.5.7-2.2,0,0,0,0,0-.2.3-.7.6-1.3,1.1-1.9,0-.1.2-.2.2-.3.4-.6.8-1.1,1.3-1.6,0,0,.1-.1.2-.2,1.1-1.1,2.4-2,3.9-2.7.1,0,.2,0,.4-.1.6-.2,1.2-.4,1.9-.6.2,0,.4,0,.6-.1.8-.2,1.6-.2,2.4-.2s1.6,0,2.4.2c.2,0,.4,0,.6.1.6.2,1.3.3,1.9.6.1,0,.2,0,.4.1,1.5.6,2.8,1.5,3.9,2.7,0,0,.1.1.2.2.5.5.9,1,1.3,1.6,0,.1.2.2.2.3.4.6.8,1.2,1,1.9,0,0,0,.1,0,.2.3.7.5,1.4.7,2.2,0,.2,0,.4.1.6.1.6.2,1.2.2,1.8,0,.2,0,.4,0,.7,0,.4,0,.7,0,1.1,0,.3,0,.6-.1.8,0,.3-.1.7-.2,1,0,.3-.1.6-.2.9,0,.3-.2.5-.3.8-.1.3-.3.7-.4,1-.1.2-.2.4-.4.6-.2.3-.4.7-.6,1-.1.2-.3.3-.4.5-.3.3-.5.6-.8.9-.2.2-.3.3-.5.5-.3.3-.6.5-.9.8-.2.2-.5.3-.7.5-.3.2-.6.4-.8.5-.3.2-.6.3-.9.5-.2.1-.5.2-.7.3-.4.1-.7.3-1.1.4-.2,0-.5.1-.7.2-.4,0-.7.1-1.1.2-.3,0-.5,0-.8.1-.3,0-.7,0-1,0s-.6,0-.9,0c-.3,0-.6,0-.9-.1-.3,0-.7-.1-1-.2-.3,0-.5-.1-.8-.2-.4-.1-.7-.2-1.1-.4-.3-.1-.5-.2-.8-.3-.3-.1-.6-.3-.9-.5-.3-.2-.6-.3-.8-.5-.2-.2-.5-.3-.7-.5-.3-.2-.6-.5-.9-.8-.2-.2-.4-.3-.5-.5-.3-.3-.6-.6-.8-.9-.1-.2-.3-.3-.4-.5-.2-.3-.4-.7-.6-1-.1-.2-.2-.4-.4-.6-.2-.3-.3-.7-.4-1-.1-.3-.2-.5-.3-.8-.1-.3-.2-.6-.2-.9,0-.3-.2-.6-.2-1,0-.3,0-.6-.1-.8,0-.4,0-.7,0-1.1,0-.2,0-.4,0-.7,0-.6,0-1.2.2-1.8h0Z"/>
</svg>