<?xml version="1.0" encoding="UTF-8"?>
<svg id="Layer_1" xmlns="http://www.w3.org/2000/svg" version="1.1" viewBox="0 0 1200 400">
  <!-- Generator: Adobe Illustrator 29.6.1, SVG Export Plug-In . SVG Version: 2.1.1 Build 9)  -->
  <defs>
    <style>
      .st0 {
        fill: #fff;
      }

      .st1 {
        fill: #0077c8;
      }
    </style>
  </defs>
  <path class="st0" d="M436.2,179.2V51.3h25v105.6h58v22.3h-83,0Z"/>
  <path class="st0" d="M539.5,179.2V51.3h25v127.9h-25Z"/>
  <path class="st0" d="M619.3,73.6v31.4h50.5v22.3h-50.5v51.9h-25V51.3h84.2v22.3h-59.3,0Z"/>
  <path class="st0" d="M700.3,179.2V51.3h84.2v22.3h-59.3v30h50.5v22.3h-50.5v31.1h59.3v22.3h-84.2Z"/>
  <path class="st0" d="M923.4,179.2l-7.5-22.6h-45.4l-7.7,22.6h-26l46.5-127.9h19.6l46.7,127.9h-26.1ZM893.6,89l-16.2,46.5h31.8s-15.6-46.5-15.6-46.5Z"/>
  <path class="st0" d="M1014.1,73.6v105.6h-25v-105.6h-33.4v-22.3h91.8v22.3h-33.4Z"/>
  <path class="st0" d="M473.1,350.1c-18.9,0-30.9-5.2-42.6-16.9l6.8-6.8c11.5,11.5,21,15.1,36.3,15.1s32.9-9.7,32.9-26.4-2.2-13.8-7-18c-4.9-3.8-7.9-5.4-18.5-6.8l-14.9-2.3c-9.7-1.4-17.2-4.5-22.8-9.3-6.6-5.6-10.1-13.5-10.1-23.5,0-21.6,15.1-35,39.7-35s25.9,4.3,36.8,13.8l-6.3,6.3c-7.5-7.2-16-11.9-31.1-11.9s-29.6,10.1-29.6,26.4,2.2,12.9,6.6,16.7,11.9,6.6,19,7.9l13.8,2.2c12,1.6,17.6,4,22.8,8.4,7,5.8,11.1,14.5,11.1,24.8,0,21.7-16.3,35.4-43.1,35.4h0Z"/>
  <path class="st0" d="M644.2,243.6l-38.8,87.5h-9.7l-39.5-87.5v105.4h-9.7v-127.9h9.7l44.5,98.6,43.5-98.6h9.7v127.9h-9.7v-105.4Z"/>
  <path class="st0" d="M693.5,221.1h9.7v127.9h-9.7v-127.9Z"/>
  <path class="st0" d="M776.1,349h-9.7v-119.3h-38.1v-8.6h86v8.6h-38.3v119.3h0Z"/>
  <path class="st0" d="M915.8,288.9h-66.6v60.2h-9.7v-127.9h9.7v59.1h66.6v-59.1h9.7v127.9h-9.7v-60.2h0Z"/>
  <path class="st0" d="M997,350.1c-18.9,0-30.9-5.2-42.6-16.9l6.8-6.8c11.5,11.5,21,15.1,36.3,15.1s32.9-9.7,32.9-26.4-2.2-13.8-7-18c-4.8-3.8-7.9-5.4-18.5-6.8l-14.9-2.3c-9.7-1.4-17.2-4.5-22.8-9.3-6.6-5.6-10.1-13.5-10.1-23.5,0-21.6,15.1-35,39.7-35s25.9,4.3,36.8,13.8l-6.3,6.3c-7.5-7.2-16-11.9-31.1-11.9s-29.6,10.1-29.6,26.4,2.2,12.9,6.7,16.7c4.5,3.8,11.8,6.6,19,7.9l13.8,2.2c12,1.6,17.6,4,22.8,8.4,7,5.8,11.1,14.5,11.1,24.8,0,21.7-16.3,35.4-43.1,35.4h0Z"/>
  <circle class="st0" cx="203.7" cy="200" r="163.9"/>
  <g>
    <path class="st1" d="M178.7,171.2c-8.1,0-14.7,6.6-14.7,14.7s2.1,4.6,4.6,4.6,4.6-2.1,4.6-4.6,2.5-5.5,5.5-5.5,4.6-2.1,4.6-4.6-2.1-4.6-4.6-4.6h0Z"/>
    <path class="st1" d="M300.8,175.4l-14.1-2.8c-.5-.1-1-.5-1.1-.9-1.7-5.7-4-11.2-6.8-16.3-.2-.4-.2-.9.1-1.4l8-12c2.8-4.2,2.2-9.8-1.3-13.4l-14.4-14.4c-3.6-3.6-9.2-4.1-13.4-1.3l-11.9,8c-.4.3-1,.3-1.4.1-5.2-2.8-10.7-5.1-16.3-6.7-.4-.2-.8-.6-.9-1.1l-2.8-14.1c-1-4.9-5.4-8.5-10.4-8.5h-20.4c-5.1,0-9.4,3.6-10.4,8.5l-2.8,14.1c0,.5-.4.9-.9,1.1-5.7,1.7-11.2,4-16.3,6.8-.4.2-.9.2-1.4-.1l-12-8c-4.2-2.8-9.9-2.2-13.4,1.3l-14.4,14.4c-3.6,3.6-4.1,9.2-1.3,13.4l8,12c.3.4.3,1,.1,1.4-2.8,5.2-5.1,10.6-6.7,16.3-.2.5-.6.8-1.1.9l-14.1,2.8c-4.9,1-8.6,5.4-8.6,10.4v20.4c0,5.1,3.6,9.4,8.6,10.4l14.1,2.8c.5.1,1,.5,1.1.9,1.7,5.6,3.9,11.1,6.8,16.4.2.4.2.9-.1,1.4l-8,11.9c-2.8,4.2-2.2,9.8,1.3,13.4l14.4,14.4c3.6,3.6,9.2,4.1,13.4,1.3l12-8c.4-.3,1-.3,1.4-.1,5.2,2.8,10.6,5.1,16.3,6.7.5.1.8.6.9,1.1l2.8,14.1c1,5,5.4,8.5,10.4,8.5h20.4c5.1,0,9.4-3.6,10.4-8.5l2.8-14.1c0-.5.4-.9.9-1.1,5.6-1.7,11.1-3.9,16.4-6.8.4-.2.9-.2,1.4.1l12,8c4.2,2.8,9.8,2.2,13.4-1.3l14.4-14.4c3.6-3.6,4.1-9.2,1.3-13.4l-8-11.9c-.3-.4-.3-1-.1-1.4,2.8-5.2,5.1-10.7,6.7-16.3.1-.5.6-.8,1.1-.9l14.1-2.8c5-1,8.5-5.4,8.5-10.4v-20.4c0-5.1-3.6-9.4-8.6-10.4h0ZM277,217.6c-1.5,5-3.5,9.9-6,14.5-1.9,3.4-1.7,7.6.5,10.9l8,11.9c.4.6.3,1.3-.2,1.8l-14.4,14.4c-.5.5-1.2.6-1.8.2l-11.9-8c-3.3-2.2-7.5-2.4-10.9-.5-4.6,2.5-9.5,4.5-14.5,6-3.7,1.1-6.5,4.2-7.3,8.1l-2.8,14.1c-.1.7-.7,1.1-1.4,1.1h-20.4c-.7,0-1.3-.5-1.4-1.2l-2.8-14.1c-.8-3.9-3.6-7-7.3-8-5-1.5-9.9-3.5-14.5-6-1.5-.8-3.2-1.3-5-1.3s-4.1.6-5.9,1.8l-12,8c-.6.4-1.3.3-1.8-.2l-14.4-14.4c-.5-.5-.6-1.2-.2-1.8l8-11.9c2.2-3.3,2.4-7.5.5-10.9-2.5-4.6-4.5-9.5-6-14.5-1.1-3.7-4.2-6.5-8.1-7.3l-14.1-2.8c-.7-.1-1.2-.7-1.2-1.4v-20.4c0-.7.5-1.3,1.2-1.4l14.1-2.8c3.9-.8,7-3.6,8-7.3,1.5-5.1,3.5-10,6-14.5,1.9-3.4,1.6-7.6-.5-10.9l-8-12c-.4-.6-.3-1.3.2-1.8l14.4-14.4c.5-.5,1.2-.6,1.8-.2l12,8c3.3,2.2,7.4,2.4,10.9.5,4.6-2.5,9.5-4.5,14.5-6,3.7-1.1,6.5-4.2,7.3-8.1l2.8-14.1c.1-.7.7-1.2,1.4-1.2h20.4c.7,0,1.3.5,1.4,1.2l2.8,14.1c.8,3.9,3.6,7,7.3,8.1,5,1.5,9.9,3.5,14.5,6,3.4,1.9,7.6,1.6,10.9-.5l12-8c.6-.4,1.3-.3,1.8.2l14.4,14.4c.5.5.5,1.2.2,1.8l-8,12c-2.2,3.3-2.4,7.5-.5,10.9,2.5,4.6,4.5,9.4,6,14.5,1.1,3.7,4.2,6.5,8.1,7.3l14.1,2.8c.7.1,1.1.7,1.1,1.4v20.3c.1.7-.4,1.3-1,1.4l-14.1,2.8c-3.9.8-7,3.6-8.1,7.3h0Z"/>
    <path class="st1" d="M254.1,161c-13.2-13-34.7-13-47.9,0l-2.3,2.3-2.3-2.3c-13.2-13-34.7-13-47.9,0-6.4,6.3-9.9,14.7-9.9,23.7s3.5,17.4,9.9,23.7l46.9,46.3c.9.9,2,1.3,3.2,1.3s2.4-.5,3.2-1.3l46.9-46.3c6.4-6.3,9.9-14.7,9.9-23.7s-3.5-17.4-9.9-23.7h0ZM254.8,184.7h0c0,6.5-2.6,12.6-7.2,17.1l-43.7,43.1-43.7-43.1c-4.6-4.6-7.2-10.7-7.2-17.2s2.6-12.6,7.2-17.2c4.7-4.6,10.9-7.1,17.5-7.1s12.8,2.5,17.5,7.1l5.5,5.4c1.8,1.8,4.7,1.8,6.5,0l5.5-5.4c9.6-9.5,25.3-9.5,34.9,0,4.6,4.6,7.2,10.7,7.2,17.2h0Z"/>
  </g>
</svg>