<svg width="85" height="85" viewBox="0 0 85 85" fill="none" xmlns="http://www.w3.org/2000/svg">
<circle cx="42.5" cy="42.5" r="42.5" fill="#0077C8"/>
<g clip-path="url(#clip0_1338_851)">
<path d="M55.77 19.1775C52.2952 17.1283 47.7599 16 43 16C38.2401 16 33.6039 17.1293 30.1548 19.1795C28.603 20.1019 27.3134 21.1993 26.4261 22.3525C25.4934 23.5656 25 24.843 25 26.0466V50.1857C25 54.686 28.6336 58.3472 33.1001 58.3472H34.167L28.5 67.4738C28.2101 67.9405 28.3506 68.5558 28.8143 68.8479C28.9776 68.9506 29.1587 69 29.3383 69C29.6679 69 29.9905 68.834 30.1781 68.5318L33.1481 63.7484H52.8514L55.8214 68.5318C56.0095 68.8345 56.3316 69 56.6612 69C56.8403 69 57.0219 68.9511 57.1852 68.8479C57.6484 68.5558 57.7894 67.9405 57.4995 67.4738L51.8325 58.3472H52.8999C57.3664 58.3472 61 54.686 61 50.1857V26.0466C61 24.843 60.4953 23.5631 59.5407 22.3455C58.6406 21.1973 57.3367 20.1019 55.7695 19.1775H55.77ZM34.3867 61.754L36.5022 58.3472H49.4983L51.6138 61.754H34.3867ZM59.0206 50.1857C59.0206 53.5861 56.2747 56.3528 52.8999 56.3528H33.1001C29.7253 56.3528 26.9794 53.5861 26.9794 50.1857V26.0466C26.9794 24.4037 28.5817 22.4303 31.1608 20.8971C34.3095 19.0254 38.5137 17.9944 43 17.9944C47.4863 17.9944 51.594 19.0259 54.7699 20.8986C57.3916 22.4448 59.0206 24.4172 59.0206 26.0466V50.1857Z" fill="white"/>
<path d="M55.2469 24.2432H30.753C29.4961 24.2432 28.4733 25.2737 28.4733 26.5402V36.6919C28.4733 37.9583 29.4961 38.9889 30.753 38.9889H55.2469C56.5038 38.9889 57.5266 37.9583 57.5266 36.6919V26.5402C57.5266 25.2737 56.5038 24.2432 55.2469 24.2432ZM42.134 37.2439H30.753C30.4512 37.2439 30.2052 36.9961 30.2052 36.6919V26.5402C30.2052 26.236 30.4512 25.9882 30.753 25.9882H42.134V37.2439ZM55.7947 36.6919C55.7947 36.9961 55.5487 37.2439 55.2469 37.2439H43.8659V25.9882H55.2469C55.5487 25.9882 55.7947 26.236 55.7947 26.5402V36.6919Z" fill="white"/>
<path d="M33.2412 46.6173C31.3192 46.6173 29.7555 48.1929 29.7555 50.1294C29.7555 52.0659 31.3192 53.6414 33.2412 53.6414C35.1632 53.6414 36.7269 52.0659 36.7269 50.1294C36.7269 48.1929 35.1632 46.6173 33.2412 46.6173ZM33.2412 51.8969C32.2743 51.8969 31.4875 51.1041 31.4875 50.1299C31.4875 49.1556 32.2743 48.3629 33.2412 48.3629C34.2081 48.3629 34.9949 49.1556 34.9949 50.1299C34.9949 51.1041 34.2081 51.8969 33.2412 51.8969Z" fill="white"/>
<path d="M52.7594 46.6173C50.8374 46.6173 49.2737 48.1929 49.2737 50.1294C49.2737 52.0659 50.8374 53.6414 52.7594 53.6414C54.6814 53.6414 56.2451 52.0659 56.2451 50.1294C56.2451 48.1929 54.6814 46.6173 52.7594 46.6173ZM52.7594 51.8969C51.7924 51.8969 51.0056 51.1041 51.0056 50.1299C51.0056 49.1556 51.7924 48.3629 52.7594 48.3629C53.7263 48.3629 54.5131 49.1556 54.5131 50.1299C54.5131 51.1041 53.7263 51.8969 52.7594 51.8969Z" fill="white"/>
</g>
<defs>
<clipPath id="clip0_1338_851">
<rect width="36" height="53" fill="white" transform="translate(25 16)"/>
</clipPath>
</defs>
</svg>
