<svg width="27" height="27" viewBox="0 0 27 27" fill="none" xmlns="http://www.w3.org/2000/svg">
<path d="M2.3035 3.94141C2.17477 3.94084 2.04845 3.97622 1.93873 4.04355C1.82901 4.11088 1.74027 4.20752 1.68247 4.32255C0.713042 6.096 0.18074 8.07516 0.129797 10.0956C0.107457 11.356 0.38314 12.6037 0.934371 13.7373C0.38314 14.8709 0.107457 16.1187 0.129797 17.3791C0.18074 19.3995 0.713042 21.3787 1.68247 23.1522C1.74027 23.2672 1.82901 23.3638 1.93873 23.4311C2.04845 23.4984 2.17477 23.5338 2.3035 23.5333C2.41059 23.5299 2.51603 23.506 2.61403 23.4627C2.78026 23.3781 2.90627 23.2311 2.96446 23.0539C3.02265 22.8767 3.00828 22.6836 2.92457 22.517C2.05095 20.9414 1.56698 19.1798 1.51305 17.3791C1.50646 16.6466 1.61605 15.9176 1.83772 15.2194C2.04125 15.4925 2.26794 15.7475 2.51526 15.9816C3.62344 17.162 5.135 17.8826 6.74981 18.0001C7.87288 18.0001 8.94993 17.554 9.74407 16.7598C10.5382 15.9657 10.9844 14.8887 10.9844 13.7656C10.9844 12.6425 10.5382 11.5654 9.74407 10.7713C8.94993 9.97716 7.87288 9.53104 6.74981 9.53104C5.13678 9.65531 3.62754 10.3747 2.51526 11.5495C2.27133 11.7869 2.04488 12.0416 1.83772 12.3117C1.61605 11.6135 1.50646 10.8846 1.51305 10.1521C1.56698 8.35136 2.05095 6.5897 2.92457 5.01418C3.00828 4.8475 3.02265 4.65445 2.96446 4.47724C2.90627 4.30003 2.78026 4.15305 2.61403 4.06844C2.51603 4.02516 2.41059 4.00122 2.3035 3.99789M2.51526 13.7938C2.79922 13.3417 3.1356 12.9248 3.51743 12.5517C4.35135 11.6605 5.46898 11.0867 6.67921 10.9284C7.43915 10.9284 8.16797 11.2303 8.70533 11.7677C9.24269 12.305 9.54458 13.0339 9.54458 13.7938C9.54458 14.5538 9.24269 15.2826 8.70533 15.8199C8.16797 16.3573 7.43915 16.6592 6.67921 16.6592C5.4719 16.5014 4.35557 15.9332 3.51743 15.05C3.1354 14.6719 2.79906 14.2503 2.51526 13.7938Z" fill="white"/>
<path d="M24.3796 3.94315C24.2678 3.94463 24.1573 3.96866 24.055 4.01375C23.8914 4.10105 23.7678 4.24808 23.7099 4.42426C23.6521 4.60045 23.6644 4.79215 23.7444 4.95944C24.618 6.53496 25.102 8.29666 25.1559 10.0974C25.16 10.8287 25.0553 11.5565 24.8454 12.257C24.6196 11.9888 24.3937 11.7347 24.1538 11.4948C23.0431 10.3177 21.533 9.59791 19.9192 9.47631C18.7962 9.47631 17.7191 9.92242 16.925 10.7166C16.1308 11.5107 15.6847 12.5878 15.6847 13.7109C15.6847 14.8339 16.1308 15.911 16.925 16.7051C17.7191 17.4992 18.7962 17.9454 19.9192 17.9454C21.5348 17.8306 23.0473 17.1096 24.1538 15.9269C24.402 15.6895 24.6331 15.4347 24.8454 15.1647C25.0553 15.8652 25.16 16.593 25.1559 17.3243C25.102 19.125 24.618 20.8867 23.7444 22.4622C23.6644 22.6295 23.6521 22.8212 23.7099 22.9974C23.7678 23.1736 23.8914 23.3207 24.055 23.408C24.1573 23.453 24.2678 23.477 24.3796 23.4785C24.508 23.4775 24.6337 23.4415 24.7431 23.3743C24.8526 23.3072 24.9416 23.2114 25.0007 23.0974C25.9646 21.3218 26.4965 19.344 26.5534 17.3243C26.5591 16.0657 26.2843 14.8216 25.7488 13.6826C26.287 12.5445 26.562 11.2998 26.5534 10.0409C26.4965 8.02128 25.9646 6.04348 25.0007 4.26781C24.9416 4.1538 24.8526 4.05808 24.7431 3.99092C24.6337 3.92376 24.508 3.88774 24.3796 3.88672M20.0039 16.5904C19.244 16.5904 18.5152 16.2885 17.9778 15.7511C17.4404 15.2137 17.1386 14.4849 17.1386 13.7249C17.1386 12.965 17.4404 12.2362 17.9778 11.6988C18.5152 11.1615 19.244 10.8596 20.0039 10.8596C21.2105 11.0164 22.3242 11.5907 23.1516 12.4828C23.5334 12.856 23.8698 13.2729 24.1538 13.7249C23.87 14.1814 23.5336 14.6031 23.1516 14.9812C22.3199 15.8653 21.2076 16.4339 20.0039 16.5904Z" fill="white"/>
<path d="M13.3134 16.082C12.1903 16.082 11.1132 16.5282 10.3191 17.3223C9.52494 18.1165 9.07882 19.1935 9.07882 20.3166C9.20845 21.9048 9.92262 23.3885 11.0831 24.4806C11.3252 24.7292 11.5847 24.9603 11.8595 25.1722C11.1551 25.3881 10.4225 25.4975 9.68576 25.4969C7.89051 25.4364 6.1349 24.9528 4.56196 24.0853C4.46303 24.0292 4.3511 24 4.23733 24.0007C4.08231 24.0059 3.93331 24.0621 3.81342 24.1605C3.69353 24.2589 3.6094 24.3941 3.57405 24.5451C3.5387 24.6962 3.5541 24.8546 3.61786 24.9961C3.68162 25.1375 3.79021 25.2539 3.9268 25.3274C5.6948 26.2978 7.66961 26.8302 9.68576 26.8801C10.9447 26.8887 12.1894 26.6137 13.3275 26.0755C14.4607 26.6135 15.7007 26.8885 16.9551 26.8801C18.9755 26.8292 20.9547 26.2969 22.7282 25.3274C22.8106 25.2857 22.8838 25.228 22.9436 25.1575C23.0033 25.087 23.0483 25.0053 23.0759 24.9171C23.1036 24.829 23.1133 24.7362 23.1045 24.6443C23.0956 24.5523 23.0685 24.463 23.0246 24.3817C22.9655 24.2677 22.8765 24.172 22.767 24.1049C22.6576 24.0377 22.5319 24.0017 22.4035 24.0007C22.2943 24.0004 22.187 24.0297 22.093 24.0853C20.5144 24.9515 18.7546 25.4349 16.9551 25.4969C16.2229 25.4987 15.4947 25.3892 14.7954 25.1722C15.0627 24.9566 15.3172 24.7257 15.5577 24.4806C16.7223 23.39 17.4414 21.9064 17.5761 20.3166C17.5761 19.1935 17.13 18.1165 16.3359 17.3223C15.5418 16.5282 14.4647 16.082 13.3416 16.082M13.3416 24.5511C12.8887 24.2677 12.4676 23.9364 12.0854 23.563C11.1886 22.7234 10.6185 21.5932 10.4762 20.373C10.4762 19.6131 10.7781 18.8843 11.3155 18.3469C11.8528 17.8096 12.5816 17.5077 13.3416 17.5077C14.1015 17.5077 14.8303 17.8096 15.3677 18.3469C15.9051 18.8843 16.207 19.6131 16.207 20.373C16.0573 21.594 15.4827 22.7234 14.5837 23.563C14.2065 23.9362 13.7901 24.2675 13.3416 24.5511Z" fill="white"/>
<path d="M16.941 0.554876C15.6866 0.54644 14.4465 0.821483 13.3134 1.35945C12.1743 0.823991 10.9302 0.549129 9.67163 0.554876C7.65548 0.604792 5.68067 1.13723 3.91267 2.10755C3.77608 2.18106 3.66749 2.29753 3.60373 2.43894C3.53997 2.58034 3.52461 2.73882 3.55996 2.88986C3.59531 3.04089 3.6794 3.17605 3.79929 3.27448C3.91918 3.37291 4.06818 3.42912 4.2232 3.43438C4.33697 3.43508 4.44894 3.40588 4.54787 3.34969C6.12082 2.48226 7.87637 1.99862 9.67163 1.93818C10.4083 1.93753 11.141 2.04693 11.8454 2.2628C11.5705 2.47467 11.3111 2.70583 11.0691 2.95447C9.90853 4.04649 9.19432 5.53016 9.06469 7.11841C9.06469 8.24149 9.51085 9.31858 10.305 10.1127C11.0991 10.9068 12.1762 11.353 13.2992 11.353C14.4223 11.353 15.4994 10.9068 16.2935 10.1127C17.0877 9.31858 17.5338 8.24149 17.5338 7.11841C17.3991 5.52856 16.68 4.04506 15.5153 2.95447C15.2749 2.70935 15.0204 2.47839 14.7531 2.2628C15.4524 2.04581 16.1806 1.93637 16.9127 1.93818C18.7122 2.00011 20.4721 2.48358 22.0506 3.34969C22.1447 3.40535 22.2519 3.43461 22.3612 3.43438C22.4899 3.43495 22.6162 3.39958 22.726 3.33225C22.8357 3.26492 22.9245 3.16827 22.9823 3.05324C23.0261 2.97195 23.0533 2.88269 23.0621 2.79074C23.0709 2.69878 23.0612 2.606 23.0336 2.51785C23.006 2.4297 22.961 2.34796 22.9012 2.27749C22.8415 2.20702 22.7682 2.14925 22.6858 2.10755C20.9124 1.13812 18.9332 0.605819 16.9127 0.554876H16.941ZM13.3134 9.99792C12.5647 9.99792 11.8466 9.70049 11.3172 9.17107C10.7878 8.64165 10.4903 7.9236 10.4903 7.17489C10.6326 5.95472 11.2027 4.82446 12.0994 3.98485C12.4816 3.6115 12.9028 3.28027 13.3557 2.99681C13.8042 3.28039 14.2207 3.61165 14.5978 3.98485C15.4968 4.82453 16.0715 5.9539 16.2211 7.17489C16.2211 7.9236 15.9237 8.64165 15.3942 9.17107C14.8648 9.70049 14.1468 9.99792 13.3981 9.99792" fill="white"/>
</svg>
