<svg width="31" height="29" viewBox="0 0 31 29" fill="none" xmlns="http://www.w3.org/2000/svg">
<path d="M23.6893 0.390513C23.3841 0.39169 23.0872 0.487754 22.8416 0.664794C22.5959 0.841834 22.4142 1.09069 22.3226 1.3754L20.4381 7.00322C19.6244 5.43808 18.4059 4.10851 16.9039 3.14672C15.4019 2.18492 13.6686 1.62437 11.8764 1.52083C10.0843 1.41728 8.29561 1.77435 6.68826 2.55651C5.08091 3.33866 3.71089 4.51867 2.71437 5.97922C1.71785 7.43977 1.12957 9.12998 1.00799 10.8818C0.886414 12.6337 1.23576 14.3861 2.02135 15.965C2.80694 17.5439 4.00141 18.8941 5.48595 19.8815C6.9705 20.8689 8.69343 21.4591 10.4835 21.5933V27.6433C10.4835 27.7405 10.5032 27.8368 10.5417 27.9265C10.5802 28.0162 10.6366 28.0975 10.7076 28.1656C10.7786 28.2338 10.8628 28.2873 10.9552 28.3233C11.0476 28.3592 11.1465 28.3767 11.2459 28.3749C11.4443 28.3749 11.6345 28.2978 11.7748 28.1606C11.9151 28.0234 11.9939 27.8373 11.9939 27.6433V21.5933C13.724 21.4638 15.3944 20.9176 16.8562 20.0035C17.1488 20.2841 17.5398 20.4451 17.9495 20.4537H22.97V27.6433C22.97 27.8373 23.0488 28.0234 23.1891 28.1606C23.3294 28.2978 23.5196 28.3749 23.718 28.3749C23.8174 28.3767 23.9163 28.3592 24.0087 28.3233C24.1011 28.2873 24.1853 28.2338 24.2563 28.1656C24.3273 28.0975 24.3837 28.0162 24.4222 27.9265C24.4607 27.8368 24.4805 27.7405 24.4804 27.6433V20.4537H29.5153C29.7494 20.4516 29.98 20.3972 30.1894 20.2948C30.3988 20.1924 30.5815 20.0447 30.7237 19.8628C30.8527 19.6828 30.9368 19.4759 30.9693 19.2584C31.0017 19.041 30.9817 18.8191 30.9107 18.6106L25.1566 1.36132C25.0616 1.06485 24.869 0.807486 24.6088 0.629328C24.3485 0.45117 24.0353 0.362265 23.718 0.376473H23.6173M18.1077 18.9764C19.1713 18.0354 20.0215 16.887 20.6038 15.6051C21.186 14.3232 21.4873 12.9363 21.4883 11.5336C21.4879 10.7504 21.3865 9.97044 21.1862 9.21215L23.6749 1.83967L29.429 18.9764H24.4661V13.4471C24.4661 13.3498 24.4463 13.2535 24.4078 13.1638C24.3693 13.0741 24.3129 12.9928 24.2419 12.9247C24.1709 12.8566 24.0867 12.803 23.9943 12.7671C23.9019 12.7311 23.8031 12.7136 23.7037 12.7155C23.5053 12.7155 23.315 12.7925 23.1747 12.9298C23.0344 13.067 22.9556 13.253 22.9556 13.4471V18.9764H18.1077ZM10.4115 20.116C8.16846 19.9001 6.09507 18.8524 4.6172 17.188C3.13933 15.5236 2.36918 13.3689 2.46492 11.1665C2.56067 8.96408 3.51508 6.88112 5.13207 5.34543C6.74905 3.80973 8.90589 2.93788 11.1596 2.90897H11.922C14.1141 3.10319 16.1526 4.09213 17.6371 5.68149C19.1215 7.27086 19.9447 9.34576 19.9447 11.4984C19.9447 13.6511 19.1215 15.726 17.6371 17.3154C16.1526 18.9047 14.1141 19.8937 11.922 20.0879V13.4189C11.922 13.2249 11.8432 13.0388 11.7029 12.9016C11.5626 12.7644 11.3723 12.6873 11.174 12.6873C11.0745 12.6855 10.9757 12.703 10.8833 12.7389C10.7909 12.7748 10.7067 12.8284 10.6357 12.8966C10.5647 12.9647 10.5083 13.046 10.4698 13.1357C10.4313 13.2254 10.4115 13.3217 10.4115 13.4189V20.116Z" fill="white"/>
</svg>
