<svg width="85" height="85" viewBox="0 0 85 85" fill="none" xmlns="http://www.w3.org/2000/svg">
<circle cx="42.5" cy="42.5" r="42.5" fill="#0077C8"/>
<g clip-path="url(#clip0_1338_848)">
<path d="M41.3228 24.0931C41.8474 24.0931 42.2722 23.6782 42.2722 23.1646V15.8564H44.6858V23.1646C44.6858 23.6777 45.1101 24.0931 45.6353 24.0931C46.1604 24.0931 46.5847 23.6782 46.5847 23.1646V14.9285C46.5847 14.4154 46.1604 14 45.6353 14H41.3228C40.7982 14 40.3733 14.4149 40.3733 14.9285V23.1646C40.3733 23.6777 40.7976 24.0931 41.3228 24.0931Z" fill="white"/>
<path d="M35.6043 27.5555C36.1289 27.5555 36.5537 27.1406 36.5537 26.6271V24.0925H50.4035V26.6271C50.4035 27.1401 50.8278 27.5555 51.3529 27.5555C51.8781 27.5555 52.3024 27.1406 52.3024 26.6271V23.1641C52.3024 22.651 51.8781 22.2356 51.3529 22.2356H35.6048C35.0802 22.2356 34.6553 22.6505 34.6553 23.1641V26.6271C34.6553 27.1401 35.0796 27.5555 35.6048 27.5555H35.6043Z" fill="white"/>
<path d="M31.0111 31.7145C31.5357 31.7145 31.9605 31.2996 31.9605 30.786V27.5556H54.997V30.786C54.997 31.2991 55.4213 31.7145 55.9464 31.7145C56.4716 31.7145 56.8959 31.2996 56.8959 30.786V26.6271C56.8959 26.114 56.4716 25.6986 55.9464 25.6986H31.0111C30.4865 25.6986 30.0616 26.1135 30.0616 26.6271V30.786C30.0616 31.2991 30.4859 31.7145 31.0111 31.7145Z" fill="white"/>
<path d="M31.0112 66.0001H55.9465C56.3452 66.0001 56.7021 65.7553 56.8385 65.3889L64.8991 43.7546C65.0522 43.3447 64.8918 42.8843 64.5135 42.6524L59.6388 39.6482C59.7417 39.4995 59.8018 39.3202 59.8018 39.128V30.7866C59.8018 30.2736 59.3775 29.8582 58.8523 29.8582H28.1048C27.5802 29.8582 27.1554 30.2731 27.1554 30.7866V39.128C27.1554 39.3202 27.2155 39.4995 27.3174 39.6482L22.4427 42.6524C22.0644 42.8843 21.9039 43.3447 22.057 43.7546L30.1187 65.3889C30.2551 65.7553 30.612 66.0001 31.0107 66.0001H31.0112ZM55.2819 64.1436H31.6758L24.1033 43.8235L43.4789 31.8832L62.8534 43.8235L55.2819 64.1436ZM57.9034 31.7151V38.5792L46.7661 31.7151H57.9034ZM40.1921 31.7151L29.0548 38.5792V31.7151H40.1921Z" fill="white"/>
<path d="M55.9465 66H62.9767C63.5013 66 63.9261 65.5851 63.9261 65.0715C63.9261 64.558 63.5018 64.1431 62.9767 64.1431H55.9465C55.4219 64.1431 54.9971 64.558 54.9971 65.0715C54.9971 65.5851 55.4214 66 55.9465 66Z" fill="white"/>
<path d="M23.9809 66H31.0111C31.5358 66 31.9606 65.5851 31.9606 65.0715C31.9606 64.558 31.5363 64.1431 31.0111 64.1431H23.9809C23.4563 64.1431 23.0315 64.558 23.0315 65.0715C23.0315 65.5851 23.4558 66 23.9809 66Z" fill="white"/>
<path d="M43.4788 66.0001C44.0034 66.0001 44.4282 65.5851 44.4282 65.0716V30.7866C44.4282 30.2736 44.0039 29.8582 43.4788 29.8582C42.9536 29.8582 42.5293 30.2731 42.5293 30.7866V65.0721C42.5293 65.5851 42.9536 66.0006 43.4788 66.0006V66.0001Z" fill="white"/>
<path d="M57.7263 45.098C58.0403 45.098 58.3475 44.9457 58.5283 44.6682C58.81 44.2349 58.6783 43.66 58.2362 43.3867L49.2372 37.7954C48.7951 37.5215 48.2083 37.6487 47.9272 38.08C47.6455 38.5133 47.7772 39.0882 48.2193 39.3616L57.2183 44.9528C57.3762 45.0509 57.5522 45.098 57.7263 45.098Z" fill="white"/>
<path d="M29.2313 45.098C29.4059 45.098 29.582 45.0509 29.7392 44.9528L38.7383 39.3616C39.1804 39.0877 39.3121 38.5133 39.0304 38.08C38.7493 37.6487 38.163 37.5215 37.7204 37.7954L28.7213 43.3867C28.2793 43.6605 28.1476 44.2349 28.4292 44.6682C28.61 44.9457 28.9168 45.098 29.2308 45.098H29.2313Z" fill="white"/>
</g>
<defs>
<clipPath id="clip0_1338_848">
<rect width="42.9565" height="52" fill="white" transform="matrix(-1 0 0 1 64.9565 14)"/>
</clipPath>
</defs>
</svg>
