<svg width="26" height="26" viewBox="0 0 26 26" fill="none" xmlns="http://www.w3.org/2000/svg">
<g id="linkedin-in">
<path id="Vector" d="M6.8983 25H2.12991V9.64408H6.8983V25ZM4.51154 7.54939C2.98676 7.54939 1.75 6.28641 1.75 4.7616C1.75 4.02918 2.04095 3.32676 2.55884 2.80885C3.07673 2.29095 3.77913 2 4.51154 2C5.24395 2 5.94635 2.29095 6.46424 2.80885C6.98213 3.32676 7.27308 4.02918 7.27308 4.7616C7.27308 6.28641 6.0358 7.54939 4.51154 7.54939ZM24.7449 25H19.9867V17.5248C19.9867 15.7433 19.9508 13.4587 17.5076 13.4587C15.0284 13.4587 14.6485 15.3942 14.6485 17.3965V25H9.88522V9.64408H14.4585V11.7388H14.5253C15.1619 10.5323 16.7169 9.25902 19.037 9.25902C23.8629 9.25902 24.75 12.437 24.75 16.5648V25H24.7449Z" fill="white"/>
</g>
</svg>
