<svg width="48" height="48" viewBox="0 0 48 48" fill="none" xmlns="http://www.w3.org/2000/svg">
<circle cx="24" cy="24" r="24" fill="#0077C8"/>
<g clip-path="url(#clip0_3089_10593)">
<path fill-rule="evenodd" clip-rule="evenodd" d="M25.0836 27.7231H18.0793C17.7586 27.7231 17.502 27.983 17.502 28.3078C17.502 28.6327 17.7586 28.8926 18.0793 28.8926H25.0836C25.4043 28.8926 25.6608 28.6327 25.6608 28.3078C25.6608 27.983 25.4043 27.7231 25.0836 27.7231ZM22.7488 31.2704H18.0793C17.7586 31.2704 17.502 31.5302 17.502 31.8551C17.502 32.1799 17.7586 32.4398 18.0793 32.4398H22.7488C23.0695 32.4398 23.3261 32.1799 23.3261 31.8551C23.3261 31.5302 23.0695 31.2704 22.7488 31.2704ZM18.0793 21.8111H20.414C20.7347 21.8111 20.9913 21.5512 20.9913 21.2264C20.9913 20.9015 20.7347 20.6417 20.414 20.6417H18.0793C17.7586 20.6417 17.502 20.9015 17.502 21.2264C17.502 21.5512 17.7586 21.8111 18.0793 21.8111ZM17.502 24.7606C17.502 25.0855 17.7586 25.3453 18.0793 25.3453H25.0836C25.4043 25.3453 25.6608 25.0855 25.6608 24.7606C25.6608 24.4358 25.4043 24.1759 25.0836 24.1759H18.0793C17.7586 24.1759 17.502 24.4358 17.502 24.7606ZM30.9205 10H22.1715C20.8887 10 19.8368 11.0525 19.8368 12.3648V14.1319C19.8368 14.4568 20.0933 14.7166 20.414 14.7166C20.7347 14.7166 20.9913 14.4568 20.9913 14.1319V12.3648C20.9913 11.7151 21.5173 11.1824 22.1587 11.1824H29.163V14.7296C29.163 15.3793 29.6889 15.912 30.3303 15.912H33.8325V27.7231C33.8325 28.3728 33.3065 28.9055 32.6651 28.9055H30.9205C30.5997 28.9055 30.3432 29.1654 30.3432 29.4903C30.3432 29.8151 30.5997 30.075 30.9205 30.075H32.6651C33.9479 30.075 34.9999 29.0225 34.9999 27.7101V14.7296L30.9205 10ZM30.3432 14.7296V11.2734L33.3835 14.7296H30.3432ZM16.3475 15.912C15.0646 15.912 14.0127 16.9645 14.0127 18.2769V33.6352C14.0127 34.9475 15.0518 36 16.3475 36H26.8539C28.1367 36 29.1886 34.9475 29.1886 33.6352V20.6417L25.1092 15.912H16.3346H16.3475ZM28.0212 33.6352C28.0212 34.2849 27.4953 34.8176 26.8539 34.8176H16.3346C15.6932 34.8176 15.1672 34.2849 15.1672 33.6352V18.2769C15.1672 17.6272 15.6932 17.0945 16.3346 17.0945H23.3389V20.6417C23.3389 21.2914 23.8649 21.8241 24.5063 21.8241H28.0084V33.6352H28.0212ZM24.5191 20.6417V17.1854L27.5594 20.6417H24.5191Z" fill="white"/>
</g>
<defs>
<clipPath id="clip0_3089_10593">
<rect width="21" height="26" fill="white" transform="translate(14 10)"/>
</clipPath>
</defs>
</svg>
