<svg width="30" height="27" viewBox="0 0 30 27" fill="none" xmlns="http://www.w3.org/2000/svg">
<path d="M13.3445 0.554688H12.9583C11.994 0.583519 11.0353 0.711688 10.0978 0.937068C6.99034 1.70011 4.27151 3.56106 2.45277 6.16991C0.63403 8.77877 -0.159291 11.9557 0.222028 15.1031C0.603347 18.2506 2.13302 21.1516 4.52333 23.2605C6.91364 25.3695 9.99985 26.541 13.2014 26.5547H13.3874C14.4339 26.5413 15.4754 26.4083 16.491 26.1582C19.8665 25.3161 22.7661 23.1812 24.5523 20.2229C26.3385 17.2647 26.8651 13.7252 26.0164 10.3826C25.9818 10.1449 25.8612 9.92778 25.6771 9.7715C25.4929 9.61523 25.2578 9.53049 25.0153 9.53295H24.8722C24.6088 9.57494 24.3722 9.71645 24.2121 9.92777C24.052 10.1391 23.9811 10.4037 24.0141 10.6658V10.8783C24.5475 12.9891 24.4369 15.209 23.6963 17.2576C22.9556 19.3061 21.6182 21.0912 19.8531 22.3873C18.0879 23.6834 15.9743 24.4322 13.7794 24.5391C11.5845 24.646 9.40687 24.1061 7.52179 22.9878C5.6367 21.8695 4.12882 20.223 3.18871 18.2563C2.2486 16.2896 1.91849 14.0911 2.24012 11.9386C2.56175 9.78623 3.52064 7.77659 4.99564 6.16369C6.47064 4.55079 8.39551 3.40708 10.5269 2.87715C11.4107 2.6574 12.3188 2.54801 13.23 2.55147C15.5843 2.54912 17.8784 3.28805 19.7806 4.66148C19.9642 4.82721 20.2043 4.91823 20.4528 4.91637C20.595 4.91685 20.7358 4.88816 20.8663 4.8321C20.9967 4.77604 21.114 4.69386 21.2108 4.59069C21.3903 4.39318 21.4835 4.13337 21.4701 3.86802C21.4567 3.60268 21.3378 3.35337 21.1393 3.17457L20.9677 3.04708C18.7319 1.44507 16.047 0.573766 13.2872 0.554688M28.0617 1.19196C27.802 1.20869 27.5575 1.31956 27.3752 1.50347C23.7996 5.21371 18.0071 11.5297 14.2455 15.4665L9.25394 11.1048C9.06426 10.9508 8.82701 10.8659 8.58173 10.8641C8.43951 10.8636 8.29876 10.8923 8.1683 10.9484C8.03783 11.0044 7.92049 11.0866 7.8237 11.1898C7.646 11.3891 7.55529 11.65 7.57137 11.9154C7.58745 12.1808 7.70906 12.4291 7.90955 12.6059L13.6305 17.6049C13.8142 17.7706 14.0542 17.8616 14.3027 17.8598C14.5758 17.8589 14.8376 17.7521 15.0321 17.5623C18.7937 13.668 25.1154 6.74318 28.834 2.89133C28.9749 2.75074 29.0706 2.5721 29.1093 2.37783C29.148 2.18355 29.128 1.98225 29.0516 1.79924C28.9752 1.61623 28.8459 1.45965 28.68 1.3491C28.5141 1.23854 28.3189 1.17892 28.1189 1.17779" fill="white"/>
</svg>
