<svg width="33" height="31" viewBox="0 0 33 31" fill="none" xmlns="http://www.w3.org/2000/svg">
<g clip-path="url(#clip0_4066_19045)">
<path d="M29.1831 16.1229L30.0521 15.2539C31.6986 13.5922 32.6133 11.3816 32.6133 9.04907C32.6133 6.71653 31.6986 4.49071 30.0369 2.82896C28.3751 1.16722 26.1645 0.252497 23.8167 0.252497C21.469 0.252497 19.2584 1.16722 17.5966 2.82896L16.7277 3.69795L15.63 2.60028C13.9682 0.938538 11.7729 0.0390625 9.40989 0.0390625C7.04686 0.0390625 4.85152 0.938538 3.18978 2.58504C-0.240425 6.01524 -0.240425 11.595 3.18978 15.0252L4.28745 16.1077L3.55567 16.8394C2.50374 17.8914 2.50374 19.6141 3.55567 20.6813C4.07401 21.1844 4.74481 21.474 5.49183 21.474H5.64428C5.59855 22.2363 5.87296 22.9986 6.4218 23.5474C6.94014 24.0505 7.61093 24.3402 8.35796 24.3402H8.51041C8.46467 25.1024 8.73909 25.8647 9.28792 26.4135C9.79102 26.9319 10.4771 27.2063 11.2241 27.2063H11.3765C11.3308 27.9686 11.6052 28.7308 12.154 29.2797C12.6724 29.798 13.3584 30.0724 14.075 30.0724C14.7915 30.0724 15.4775 29.7828 15.9959 29.2797L16.7277 28.5479L17.2612 29.0815C17.7796 29.5846 18.4656 29.859 19.1822 29.859C19.8987 29.859 20.6 29.5693 21.0878 29.0662C21.6367 28.5174 21.9111 27.7551 21.8653 26.9776H22.033C22.7496 26.9929 23.4356 26.7184 23.954 26.2001C24.4571 25.6817 24.7467 25.011 24.7467 24.2639V24.1115H24.8992C25.6309 24.1115 26.3017 23.8371 26.8201 23.3187C27.3689 22.7699 27.6433 22.0076 27.5976 21.2301H27.7653C28.4971 21.2301 29.1679 20.9557 29.6862 20.4526C30.2045 19.9495 30.479 19.2635 30.479 18.5317C30.479 17.7999 30.1893 17.1139 29.6862 16.6108L29.1679 16.0924L29.1831 16.1229ZM18.4046 12.0676C18.2827 12.2049 18.2065 12.3726 18.2065 12.5555C18.2065 12.7384 18.2827 12.9061 18.4046 13.0434L25.8291 20.4678C26.0883 20.727 26.2255 21.0624 26.2255 21.413C26.2255 21.7637 26.0883 22.1143 25.8444 22.3583C25.3718 22.8309 24.4266 22.8309 23.954 22.3583L16.5142 14.9338C16.255 14.6746 15.8129 14.6594 15.5385 14.9338C15.2641 15.2082 15.2793 15.6351 15.5385 15.9095L22.9783 23.3492C23.4966 23.8676 23.4966 24.706 22.9783 25.2244C22.4904 25.7122 21.5452 25.7122 21.0878 25.2244L19.6548 23.7913C19.5328 23.3035 19.2889 22.8614 18.9382 22.5107C18.4046 21.9771 17.6424 21.718 16.8496 21.7484V21.5655C16.8649 20.8337 16.5904 20.1629 16.0721 19.6446C15.5385 19.111 14.7915 18.8366 13.9835 18.8823C14.0445 18.0896 13.7701 17.3425 13.206 16.7785C12.6571 16.2296 11.8949 15.9552 11.1174 16.0009C11.1631 15.2234 10.8887 14.4612 10.3399 13.9123C9.82151 13.4092 9.15071 13.1196 8.41894 13.1196C7.68716 13.1196 7.01636 13.394 6.49802 13.9123L5.26315 15.1472L4.16548 14.0648C1.28411 11.1529 1.28411 6.44211 4.16548 3.56074C5.56806 2.15817 7.42799 1.3959 9.40989 1.3959C11.3918 1.3959 13.2517 2.15817 14.6543 3.56074L15.752 4.65841L15.691 4.71939L11.7577 8.66793C11.2393 9.18628 10.9649 9.85707 10.9649 10.5888C10.9649 11.3206 11.2546 12.0067 11.7577 12.5098C12.2608 13.0129 12.9468 13.3025 13.6786 13.3025C14.4104 13.3025 15.0812 13.0281 15.5995 12.5098L19.609 8.50023L28.7257 17.617C28.9849 17.8761 29.1221 18.2115 29.1221 18.5774C29.1221 18.9433 28.9849 19.2787 28.7257 19.5226C28.2531 19.9952 27.3079 19.9952 26.8353 19.5226L19.3956 12.0981C19.1364 11.839 18.6791 11.839 18.4199 12.0981L18.4046 12.0676ZM18.9382 26.3525C19.1669 26.1239 19.3499 25.8647 19.4718 25.5598L20.1121 26.2001C20.6305 26.7337 20.6305 27.5874 20.1121 28.1058C19.6548 28.5784 18.6943 28.5631 18.2217 28.1058L17.7034 27.5874L18.9382 26.3525ZM7.47372 14.888C7.71765 14.6441 8.06829 14.4917 8.41894 14.4917C8.76958 14.4917 9.12022 14.6289 9.36415 14.888C9.62332 15.1472 9.76053 15.4674 9.76053 15.8333C9.76053 16.1991 9.62332 16.5345 9.36415 16.7785L6.4218 19.7208C5.9187 20.2239 5.03447 20.2239 4.53137 19.7208C4.01303 19.2025 4.01303 18.3487 4.53137 17.8304L7.47372 14.888ZM7.3975 20.6965L10.3399 17.7542C10.5838 17.495 10.9192 17.3578 11.2851 17.3578C11.651 17.3578 11.9711 17.495 12.2303 17.7542C12.7486 18.2725 12.7486 19.1262 12.2303 19.6446L9.28792 22.5869C8.78483 23.09 7.9006 23.09 7.3975 22.5869C6.87916 22.0686 6.87916 21.2149 7.3975 20.6965ZM10.2636 23.5626L13.206 20.6203C13.4499 20.3611 13.7853 20.2239 14.1512 20.2239C14.5171 20.2239 14.8525 20.3611 15.0964 20.6203C15.3556 20.8795 15.4928 21.1996 15.4928 21.5655C15.4928 21.9314 15.3556 22.2668 15.0964 22.5107L12.154 25.4531C11.651 25.9562 10.782 25.9562 10.2636 25.4531C9.74528 24.9347 9.74528 24.081 10.2636 23.5626ZM13.1298 26.4288L16.0721 23.4864C16.3313 23.2272 16.6667 23.09 17.0173 23.09C17.368 23.09 17.7186 23.2272 17.9625 23.4864C18.2217 23.7303 18.3589 24.0657 18.3589 24.4316C18.3589 24.7975 18.2217 25.1329 17.9625 25.3768L15.0202 28.3192C14.5171 28.8223 13.6328 28.8223 13.1298 28.3192C12.8706 28.06 12.7334 27.7399 12.7334 27.374C12.7334 27.0081 12.8706 26.6727 13.1298 26.4288ZM23.8167 1.62458C25.7986 1.62458 27.6586 2.38685 29.0611 3.78942C30.4637 5.19199 31.2412 7.06717 31.2412 9.03382C31.2412 11.0005 30.479 12.8604 29.0764 14.2782L28.2074 15.1472L20.0969 7.03668C19.9749 6.91472 19.792 6.83849 19.609 6.83849C19.4261 6.83849 19.2431 6.89947 19.1212 7.03668L14.6086 11.5341C14.1055 12.0372 13.2212 12.0372 12.7181 11.5341C12.459 11.2901 12.3217 10.9547 12.3217 10.5888C12.3217 10.223 12.459 9.90281 12.7181 9.64364L18.5723 3.78942C19.9749 2.38685 21.8349 1.62458 23.8167 1.62458Z" fill="white"/>
</g>
<defs>
<clipPath id="clip0_4066_19045">
<rect width="32" height="30.0638" fill="white" transform="translate(0.62854 0.0234375)"/>
</clipPath>
</defs>
</svg>
