<svg width="85" height="85" viewBox="0 0 85 85" fill="none" xmlns="http://www.w3.org/2000/svg">
<circle cx="42.5" cy="42.5" r="42.5" fill="#0077C8"/>
<g clip-path="url(#clip0_566_1305)">
<path fill-rule="evenodd" clip-rule="evenodd" d="M44.584 49.7196H31.576C30.9804 49.7196 30.504 50.1994 30.504 50.7991C30.504 51.3988 30.9804 51.8786 31.576 51.8786H44.584C45.1796 51.8786 45.6561 51.3988 45.6561 50.7991C45.6561 50.1994 45.1796 49.7196 44.584 49.7196ZM40.248 56.2684H31.576C30.9804 56.2684 30.504 56.7481 30.504 57.3478C30.504 57.9475 30.9804 58.4273 31.576 58.4273H40.248C40.8436 58.4273 41.3201 57.9475 41.3201 57.3478C41.3201 56.7481 40.8436 56.2684 40.248 56.2684ZM31.576 38.8051H35.912C36.5076 38.8051 36.9841 38.3253 36.9841 37.7256C36.9841 37.1259 36.5076 36.6462 35.912 36.6462H31.576C30.9804 36.6462 30.504 37.1259 30.504 37.7256C30.504 38.3253 30.9804 38.8051 31.576 38.8051ZM30.504 44.2504C30.504 44.8501 30.9804 45.3298 31.576 45.3298H44.584C45.1796 45.3298 45.6561 44.8501 45.6561 44.2504C45.6561 43.6507 45.1796 43.1709 44.584 43.1709H31.576C30.9804 43.1709 30.504 43.6507 30.504 44.2504ZM55.4239 17H39.1759C36.7935 17 34.8399 18.943 34.8399 21.3658V24.6282C34.8399 25.2279 35.3164 25.7076 35.912 25.7076C36.5076 25.7076 36.9841 25.2279 36.9841 24.6282V21.3658C36.9841 20.1664 37.9609 19.1829 39.1521 19.1829H52.16V25.7316C52.16 26.931 53.1368 27.9145 54.328 27.9145H60.832V49.7196C60.832 50.919 59.8552 51.9025 58.664 51.9025H55.4239C54.8283 51.9025 54.3518 52.3823 54.3518 52.982C54.3518 53.5817 54.8283 54.0615 55.4239 54.0615H58.664C61.0464 54.0615 63 52.1184 63 49.6957V25.7316L55.4239 17ZM54.3518 25.7316V19.3508L59.9981 25.7316H54.3518ZM28.3598 27.9145C25.9774 27.9145 24.0238 29.8576 24.0238 32.2804V60.6342C24.0238 63.057 25.9536 65 28.3598 65H47.8717C50.2541 65 52.2077 63.057 52.2077 60.6342V36.6462L44.6316 27.9145H28.336H28.3598ZM50.0397 60.6342C50.0397 61.8336 49.0629 62.8171 47.8717 62.8171H28.336C27.1448 62.8171 26.168 61.8336 26.168 60.6342V32.2804C26.168 31.081 27.1448 30.0975 28.336 30.0975H41.3439V36.6462C41.3439 37.8456 42.3207 38.8291 43.5119 38.8291H50.0159V60.6342H50.0397ZM43.5357 36.6462V30.2654L49.182 36.6462H43.5357Z" fill="white"/>
</g>
<defs>
<clipPath id="clip0_566_1305">
<rect width="39" height="48" fill="white" transform="translate(24 17)"/>
</clipPath>
</defs>
</svg>
