<svg width="85" height="85" viewBox="0 0 85 85" fill="none" xmlns="http://www.w3.org/2000/svg">
<circle cx="42.5" cy="42.5" r="42.5" fill="#0077C8"/>
<g clip-path="url(#clip0_213_4424)">
<path d="M50.7129 60.1212C51.1927 59.6933 51.6725 59.2512 52.1523 58.8233C52.5474 58.4667 52.9425 58.0959 53.3518 57.7536C54.3678 56.9121 54.9605 55.8424 55.2286 54.5303C55.271 54.3163 55.5391 54.0596 55.7649 53.974C56.7244 53.5604 57.6417 53.104 58.3473 52.3196C58.6013 52.0343 58.8412 51.7206 59.0105 51.3783C59.6456 50.0804 59.4198 49.0535 58.1921 48.2975C57.4159 47.8269 56.541 47.5416 55.7084 47.1565C55.525 47.071 55.2851 46.9854 55.2145 46.8285C54.4384 45.2596 53.0413 44.5465 51.489 44.0758C50.6565 43.8191 49.7815 43.705 48.9207 43.5909C47.7918 43.434 46.8745 44.0758 45.8867 44.4752C45.6468 44.575 45.3505 44.6035 45.0965 44.5465C44.4897 44.4181 44.2075 44.0045 44.3345 43.3627C44.3627 43.1915 44.3345 43.0204 44.3345 42.8492C44.3345 42.0363 44.1369 41.8081 43.3184 41.8509C42.7822 41.8794 42.5282 41.7225 42.6128 41.152C42.6411 40.9523 42.6128 40.7241 42.6128 40.5102C42.6128 39.6544 42.006 39.2693 41.2299 39.6402C41.2017 39.6544 41.1593 39.6687 41.1311 39.683C39.8329 40.3818 39.4236 40.2392 38.7604 38.927C38.3229 38.0713 38.7463 37.0016 39.72 36.5309C40.6937 36.0603 41.7379 36.2172 42.754 36.2742C42.8951 36.2742 43.0785 36.5595 43.1491 36.7591C43.2902 37.13 43.3466 37.5436 43.4454 37.9287C43.5583 38.3565 43.8264 38.5705 44.278 38.5705C44.7014 38.5705 44.9554 38.3565 45.0259 37.9287C45.0683 37.6862 45.1529 37.4437 45.167 37.187C45.2376 35.4898 46.3948 34.4201 47.4108 33.2933C47.6648 33.0081 48.1728 32.894 48.5821 32.8084C48.9631 32.7228 49.3864 32.8084 49.7815 32.7941C50.5577 32.7941 50.9528 32.1808 50.5859 31.4677C50.3883 31.0684 50.2331 30.7403 50.7411 30.5264C51.1927 30.3267 51.5455 30.5549 51.6866 31.1112C51.7995 31.5676 52.11 31.6389 52.5051 31.6531C52.9143 31.6817 53.0413 31.482 53.0978 31.1254C53.126 30.9115 53.1965 30.7118 53.253 30.5121C53.507 29.4424 53.3518 29.0573 52.4204 28.5011C51.0092 27.6454 49.5981 26.8181 48.1869 25.9624C47.4813 25.5345 46.7475 25.6058 46.042 25.8483C45.4916 26.0337 45.3646 26.5614 45.294 27.1176C45.2658 27.3886 45.1953 27.8022 45.0118 27.9021C44.6872 28.0875 44.3203 27.9591 43.9676 27.7167C43.643 27.5027 43.1632 27.4314 42.754 27.4172C41.4839 27.3744 41.5121 27.4029 41.4698 26.105C41.4416 25.4347 41.625 25.0496 42.2883 24.8214C43.1491 24.5361 43.9817 24.1368 44.8284 23.7659C45.167 23.609 45.3787 23.6661 45.5057 24.0084C45.7315 24.5646 46.1407 24.7928 46.7334 24.7073C46.9733 24.6787 47.2273 24.6787 47.4813 24.7073C48.0176 24.7501 48.3845 24.5789 48.3986 23.9656C53.9445 25.4774 60.6475 30.94 61.8611 39.7685C63.1452 49.0962 57.8957 56.8836 50.727 60.1212M47.693 55.9851C47.5237 57.5825 47.3826 59.1941 47.2556 60.8058C47.2273 61.1909 47.0862 61.3193 46.7193 61.4048C36.3614 63.7154 26.2151 57.5682 23.6186 47.2136C22.024 40.8525 23.4634 35.0619 27.5981 29.9844C27.7674 29.7705 28.1343 29.4567 28.2754 29.5137C28.7129 29.7134 29.1504 30.0272 29.1504 30.612C29.1504 31.6389 29.108 32.6515 29.1786 33.6784C29.2068 34.1491 29.3761 34.6625 29.6443 35.0334C30.6462 36.4168 31.7187 37.7432 32.7629 39.0982C32.9182 39.2979 33.0734 39.4833 33.2286 39.6544C33.8495 39.3264 33.9624 38.9698 33.6661 38.4278C33.5109 38.1426 33.3415 37.8716 33.1722 37.5864C32.9887 37.2868 32.9323 36.9873 33.271 36.7877C33.6237 36.5737 33.8919 36.7877 34.0612 37.1157C34.4563 37.8859 34.9079 38.6275 35.2184 39.4405C35.7687 40.8953 36.7142 41.8081 38.2524 42.0791C38.5628 42.1361 38.8874 42.2502 39.1696 42.4071C39.4377 42.5497 39.72 42.7494 39.8893 42.9919C40.1998 43.4625 40.5667 43.7193 41.117 43.6622C41.7097 43.5909 42.1754 43.7906 42.4294 44.3468C42.8386 45.2168 43.6007 45.5306 44.4756 45.7018C45.2799 45.8586 45.3364 46.0726 44.8989 46.7287C43.8688 48.2833 44.1087 49.8664 44.9554 51.3497C45.3646 52.0629 45.9432 52.7617 46.6064 53.2324C47.6225 53.9455 47.8059 54.8583 47.693 55.9708M64.1754 38.5134C62.4679 29.2142 54.6359 21.4126 44.2639 20.5711C40.0163 20.2288 35.9663 21.0418 32.1702 23.0813C23.3787 27.8022 18.8207 37.6577 21.0644 47.4988C23.3505 57.4969 32.4525 64.6139 42.6128 64.4713C44.2357 64.5426 45.9573 64.3001 47.6789 63.9008C58.9541 61.2765 66.2357 50.0376 64.1613 38.5277" fill="white"/>
</g>
<defs>
<clipPath id="clip0_213_4424">
<rect width="44" height="44" fill="white" transform="translate(20.5 20.5)"/>
</clipPath>
</defs>
</svg>
