<?xml version="1.0" encoding="UTF-8"?><svg id="Layer_2" xmlns="http://www.w3.org/2000/svg" viewBox="0 0 1086.22 238.21"><defs><style>.cls-1{fill:#fff;}.cls-1,.cls-2{stroke-width:0px;}.cls-2{fill:#0077c8;}</style></defs><g id="Layer_1-2"><path class="cls-1" d="m346.81,24.53h-42.78v21.65h36.56v16.08h-36.56v22.43h42.78v16.08h-60.8V8.46h60.8v16.08Z"/><path class="cls-1" d="m432.5,100.76h-15.95l-36.69-56.39v56.39h-18.02V8.46h16.08l36.56,56.39V8.46h18.02v92.3Z"/><path class="cls-1" d="m517.15,37.23h-18.15c-2.07-8.82-7.39-13.48-16.59-13.48-4.93,0-8.82,1.94-11.41,4.93-3.5,3.89-4.54,8.3-4.54,25.93s1.04,22.17,4.54,26.06c2.59,2.98,6.48,4.8,11.41,4.8,5.57,0,9.98-1.94,12.83-5.19,2.98-3.37,4.15-7.52,4.15-12.32v-3.37h-16.98v-15.17h34.87v13.48c0,13.35-2.33,21.26-8.81,28.13-7.39,7.65-16.21,10.5-26.06,10.5-10.5,0-18.28-3.5-24.63-9.72-9.2-9.2-9.33-19.58-9.33-37.21s.13-28,9.33-37.21c6.35-6.22,14.13-9.72,24.63-9.72,21.52,0,32.41,14,34.74,29.56Z"/><path class="cls-1" d="m551.11,100.76h-18.02V8.46h18.02v92.3Z"/><path class="cls-1" d="m640.81,100.76h-15.95l-36.69-56.39v56.39h-18.02V8.46h16.07l36.56,56.39V8.46h18.02v92.3Z"/><path class="cls-1" d="m720.66,24.53h-42.78v21.65h36.56v16.08h-36.56v22.43h42.78v16.08h-60.8V8.46h60.8v16.08Z"/><path class="cls-1" d="m796.5,24.53h-42.78v21.65h36.56v16.08h-36.56v22.43h42.78v16.08h-60.8V8.46h60.8v16.08Z"/><path class="cls-1" d="m847.7,8.46c18.93,0,29.95,12.83,29.95,28.26,0,12.96-7.91,21.13-16.85,24.24l20.61,39.8h-20.87l-18.02-36.82h-12.96v36.82h-18.02V8.46h36.17Zm-18.15,16.08v24.24h17.11c7.91,0,12.96-4.93,12.96-12.19s-5.06-12.06-12.96-12.06h-17.11Z"/><path class="cls-1" d="m911.74,100.76h-18.02V8.46h18.02v92.3Z"/><path class="cls-1" d="m1001.44,100.76h-15.95l-36.69-56.39v56.39h-18.02V8.46h16.07l36.56,56.39V8.46h18.02v92.3Z"/><path class="cls-1" d="m1086.09,37.23h-18.15c-2.07-8.82-7.39-13.48-16.59-13.48-4.93,0-8.81,1.94-11.41,4.93-3.5,3.89-4.54,8.3-4.54,25.93s1.04,22.17,4.54,26.06c2.59,2.98,6.48,4.8,11.41,4.8,5.57,0,9.98-1.94,12.83-5.19,2.98-3.37,4.15-7.52,4.15-12.32v-3.37h-16.98v-15.17h34.87v13.48c0,13.35-2.33,21.26-8.82,28.13-7.39,7.65-16.2,10.5-26.06,10.5-10.5,0-18.28-3.5-24.63-9.72-9.21-9.2-9.33-19.58-9.33-37.21s.13-28,9.33-37.21c6.35-6.22,14.13-9.72,24.63-9.72,21.52,0,32.41,14,34.74,29.56Z"/><path class="cls-1" d="m345.52,138.69h-49v36.43h41.74v6.22h-41.74v37.21h49v6.22h-56v-92.3h56v6.22Z"/><path class="cls-1" d="m388.29,177.45l28.52,47.32h-8.17l-24.11-41.1-24.11,41.1h-7.91l28.26-47.32-26.45-44.98h8.17l22.04,38.76,22.17-38.76h8.04l-26.45,44.98Z"/><path class="cls-1" d="m464.64,132.46c15.95,0,27.87,9.72,27.87,26.58s-11.93,26.58-27.87,26.58h-26.83v39.15h-7v-92.3h33.84Zm-26.83,6.22v40.71h26.06c12.83,0,21.65-6.48,21.65-20.35s-8.82-20.35-21.65-20.35h-26.06Z"/><path class="cls-1" d="m517.01,218.54h49v6.22h-56v-92.3h7v86.08Z"/><path class="cls-1" d="m643.41,224.77h-7.52l-8.04-22.43h-43.04l-8.04,22.43h-7.52l33.97-92.3h6.22l33.96,92.3Zm-56.39-28.65h38.63l-19.31-54.32-19.32,54.32Z"/><path class="cls-1" d="m664.01,224.77h-7v-92.3h7v92.3Z"/><path class="cls-1" d="m757.22,224.77h-7l-53.28-80.12v80.12h-7v-92.3h7l53.28,80.12v-80.12h7v92.3Z"/><path class="cls-1" d="m839.14,138.69h-49v36.43h41.74v6.22h-41.74v37.21h49v6.22h-56v-92.3h56v6.22Z"/><path class="cls-1" d="m889.05,132.46c9.72,0,17.5,2.85,23.08,8.43,8.81,8.82,8.95,23.98,8.95,37.72s-.13,28.91-8.95,37.72c-5.57,5.57-13.35,8.43-23.08,8.43h-30.98v-92.3h30.98Zm-23.98,6.22v79.86h22.3c7.39,0,14.52-1.56,19.84-7.13,6.87-7.26,6.87-20.61,6.87-32.8s0-25.54-6.87-32.8c-5.32-5.57-12.45-7.13-19.84-7.13h-22.3Z"/><circle class="cls-2" cx="119.1" cy="119.1" r="119.1"/><path class="cls-1" d="m185.37,96.1c-1.22-3.91-2.81-7.73-4.71-11.36-2.04-3.9-6.43-5.82-10.67-4.68l-7.36,1.97c-.22.06-.32.03-.48-.13l-8.05-8.05c-.16-.16-.19-.26-.13-.48l1.97-7.36c1.14-4.25-.79-8.64-4.68-10.67-3.64-1.9-7.46-3.49-11.36-4.71-4.19-1.32-8.67.42-10.87,4.24l-3.81,6.6c-.11.2-.21.25-.43.25h-11.38c-.22,0-.32-.05-.43-.25l-3.81-6.6c-2.2-3.81-6.66-5.55-10.87-4.24-3.9,1.22-7.73,2.81-11.36,4.71-3.9,2.04-5.82,6.43-4.68,10.67l1.97,7.36c.06.22.03.32-.13.48l-8.04,8.05c-.16.16-.26.18-.48.13l-7.35-1.97c-4.24-1.14-8.63.78-10.68,4.68-1.9,3.63-3.49,7.46-4.71,11.36-1.32,4.2.43,8.67,4.24,10.87l6.6,3.81c.2.11.25.21.25.5,0,2.52,2.05,4.57,4.57,4.57s4.57-2.05,4.57-4.57v-.06c0-3.48-1.8-6.61-4.82-8.35l-6.6-3.81c-.09-.05-.11-.11-.08-.21,1.06-3.38,2.44-6.7,4.09-9.86.04-.08.09-.12.21-.09l7.35,1.97c3.36.9,6.85-.03,9.31-2.5l8.05-8.05c2.46-2.46,3.4-5.94,2.5-9.31l-1.97-7.36c-.02-.08.01-.16.08-.2,3.15-1.65,6.47-3.03,9.86-4.09.12-.04.17,0,.22.08l3.81,6.6c1.74,3.02,4.86,4.82,8.35,4.82h11.38c3.48,0,6.61-1.8,8.35-4.82l3.81-6.6c.05-.09.11-.11.21-.08,3.38,1.06,6.7,2.44,9.86,4.09.09.05.12.1.09.21l-1.97,7.36c-.9,3.37.03,6.85,2.49,9.31l8.05,8.05c2.46,2.46,5.94,3.4,9.31,2.49l7.35-1.97c.12-.03.17,0,.21.09,1.65,3.15,3.02,6.47,4.09,9.86.03.1.01.15-.08.21l-6.61,3.81c-3.02,1.74-4.82,4.87-4.82,8.41,0,2.52,2.05,4.57,4.57,4.57s4.57-2.05,4.57-4.65c0-.21.05-.3.24-.42l6.6-3.81c3.81-2.2,5.55-6.67,4.23-10.87Z"/><path class="cls-1" d="m95.48,113.16c2.25-11.21,12.18-19.34,23.61-19.34s21.36,8.14,23.61,19.34c.43,2.14,2.31,3.69,4.48,3.69,1.38,0,2.67-.61,3.55-1.68.87-1.06,1.21-2.43.95-3.76-3.08-15.49-16.79-26.74-32.59-26.74s-29.51,11.25-32.59,26.74c-.27,1.33.08,2.7.95,3.76.88,1.07,2.17,1.68,3.55,1.68,2.17,0,4.05-1.55,4.48-3.69Z"/><path class="cls-1" d="m168.7,126.6c-1.26,0-2.46.53-3.31,1.46-.85.93-1.28,2.18-1.17,3.44.14,1.61.21.72.21,1.34,0,25.48-20.76,46.2-46.27,46.2-9.62,0-18.82-2.9-26.61-8.38-1.26-.89-2.89-1.07-4.36-.46l-11.21,4.8,4.81-11.27c.62-1.45.43-3.1-.51-4.42-5.45-7.69-8.33-16.84-8.33-26.46,0-.62.07.24.21-1.34.11-1.26-.31-2.51-1.16-3.44-.85-.93-2.06-1.46-3.31-1.46-2.33,0-4.29,1.82-4.48,4.14-.15,1.94-.23,1.3-.23,2.1,0,10.61,2.97,20.84,8.6,29.61l-8.24,19.32c-.73,1.69-.35,3.63.96,4.94,1.27,1.26,3.31,1.65,4.94.95l19.25-8.25c8.84,5.63,19.08,8.61,29.67,8.61,30.47,0,55.25-24.75,55.25-55.18,0-.79-.08-.16-.23-2.1-.19-2.32-2.15-4.13-4.48-4.13Z"/><path class="cls-1" d="m92.91,138.85h53.81c2.47,0,4.48-2.01,4.48-4.48s-2.01-4.48-4.48-4.48h-53.81c-2.47,0-4.48,2.01-4.48,4.48s2.01,4.48,4.48,4.48Z"/></g></svg>