<svg width="600" height="132" viewBox="0 0 600 132" fill="none" xmlns="http://www.w3.org/2000/svg">
<path d="M191.57 13.5495H167.939V25.5084H188.134V34.3906H167.939V46.7804H191.57V55.6626H157.985V4.67285H191.57V13.555V13.5495Z" fill="white"/>
<path d="M238.901 55.657H230.091L209.824 24.5086V55.657H199.87V4.67285H208.752L228.947 35.8213V4.67285H238.901V55.657Z" fill="white"/>
<path d="M285.659 20.5645H275.633C274.49 15.6926 271.551 13.1185 266.47 13.1185C263.746 13.1185 261.598 14.1901 260.167 15.8417C258.234 17.9905 257.659 20.4264 257.659 30.1648C257.659 39.9032 258.234 42.4109 260.167 44.5597C261.598 46.2058 263.746 47.2111 266.47 47.2111C269.546 47.2111 271.982 46.1395 273.557 44.3443C275.203 42.4828 275.849 40.1904 275.849 37.539V35.6775H266.47V27.298H285.731V34.744C285.731 42.1182 284.444 46.4875 280.864 50.2823C276.782 54.508 271.91 56.0822 266.47 56.0822C260.67 56.0822 256.372 54.1489 252.865 50.7131C247.783 45.6313 247.711 39.8976 247.711 30.1593C247.711 20.4209 247.783 14.6928 252.865 9.60541C256.372 6.16964 260.67 4.23633 266.47 4.23633C278.357 4.23633 284.372 11.9696 285.659 20.5645Z" fill="white"/>
<path d="M304.419 55.657H294.465V4.67285H304.419V55.657Z" fill="white"/>
<path d="M353.967 55.657H345.157L324.89 24.5086V55.657H314.937V4.67285H323.819L344.014 35.8213V4.67285H353.967V55.657Z" fill="white"/>
<path d="M398.075 13.5495H374.444V25.5084H394.639V34.3906H374.444V46.7804H398.075V55.6626H364.49V4.67285H398.075V13.555V13.5495Z" fill="white"/>
<path d="M439.967 13.5495H416.337V25.5084H436.531V34.3906H416.337V46.7804H439.967V55.6626H406.383V4.67285H439.967V13.555V13.5495Z" fill="white"/>
<path d="M468.247 4.67285C478.704 4.67285 484.791 11.7598 484.791 20.283C484.791 27.4417 480.422 31.9546 475.483 33.6725L486.868 55.657H475.34L465.386 35.3186H458.227V55.657H448.273V4.67285H468.253H468.247ZM458.222 13.555V26.9446H467.673C472.042 26.9446 474.832 24.2214 474.832 20.2112C474.832 16.2009 472.037 13.5495 467.673 13.5495H458.222V13.555Z" fill="white"/>
<path d="M503.622 55.657H493.668V4.67285H503.622V55.657Z" fill="white"/>
<path d="M553.169 55.657H544.359L524.092 24.5086V55.657H514.139V4.67285H523.021L543.216 35.8213V4.67285H553.169V55.657Z" fill="white"/>
<path d="M599.928 20.5645H589.903C588.759 15.6926 585.821 13.1185 580.739 13.1185C578.016 13.1185 575.867 14.1901 574.436 15.8417C572.503 17.9905 571.928 20.4264 571.928 30.1648C571.928 39.9032 572.503 42.4109 574.436 44.5597C575.867 46.2058 578.016 47.2111 580.739 47.2111C583.815 47.2111 586.252 46.1395 587.826 44.3443C589.472 42.4828 590.118 40.1904 590.118 37.539V35.6775H580.739V27.298H600V34.744C600 42.1182 598.713 46.4875 595.128 50.2823C591.046 54.508 586.18 56.0822 580.733 56.0822C574.933 56.0822 570.636 54.1489 567.128 50.7131C562.046 45.6313 561.975 39.8976 561.975 30.1593C561.975 20.4209 562.046 14.6928 567.128 9.60541C570.636 6.16964 574.933 4.23633 580.733 4.23633C592.62 4.23633 598.636 11.9696 599.923 20.5645H599.928Z" fill="white"/>
<path d="M190.857 76.6086H163.79V96.7316H186.847V100.167H163.79V120.721H190.857V124.157H159.924V73.1729H190.857V76.6086Z" fill="white"/>
<path d="M214.482 98.0187L230.235 124.157H225.723L212.405 101.454L199.087 124.157H194.718L210.328 98.0187L195.718 73.1729H200.23L212.405 94.5829L224.651 73.1729H229.092L214.482 98.0187Z" fill="white"/>
<path d="M256.659 73.1675C265.47 73.1675 272.054 78.5366 272.054 87.8496C272.054 97.1626 265.464 102.532 256.659 102.532H241.839V124.157H237.973V73.173H256.665L256.659 73.1675ZM241.839 76.6032V99.0904H256.234C263.321 99.0904 268.193 95.511 268.193 87.8496C268.193 80.1882 263.321 76.6088 256.234 76.6088H241.839V76.6032Z" fill="white"/>
<path d="M285.583 120.716H312.65V124.152H281.717V73.1675H285.583V120.716Z" fill="white"/>
<path d="M355.404 124.157H351.25L346.809 111.767H323.034L318.593 124.157H314.439L333.204 73.1729H336.639L355.398 124.157H355.404ZM324.255 108.332H345.593L334.922 78.3265L324.25 108.332H324.255Z" fill="white"/>
<path d="M366.783 124.157H362.916V73.1729H366.783V124.157Z" fill="white"/>
<path d="M418.269 124.157H414.403L384.972 79.9008V124.157H381.105V73.1729H384.972L414.403 117.429V73.1729H418.269V124.157Z" fill="white"/>
<path d="M463.525 76.6086H436.458V96.7316H459.515V100.167H436.458V120.721H463.525V124.157H432.592V73.1729H463.525V76.6086Z" fill="white"/>
<path d="M491.089 73.1675C496.458 73.1675 500.756 74.7417 503.838 77.824C508.71 82.6959 508.782 91.0699 508.782 98.6596C508.782 106.249 508.71 114.629 503.838 119.495C500.761 122.572 496.464 124.152 491.089 124.152H473.977V73.1675H491.089ZM477.843 76.6032V120.716H490.161C494.243 120.716 498.182 119.854 501.115 116.777C504.91 112.767 504.91 105.393 504.91 98.6596C504.91 91.9261 504.91 84.5519 501.115 80.5417C498.176 77.465 494.238 76.6032 490.161 76.6032H477.843Z" fill="white"/>
<path d="M65.7878 131.576C102.121 131.576 131.576 102.121 131.576 65.7878C131.576 29.4542 102.121 0 65.7878 0C29.4542 0 0 29.4542 0 65.7878C0 102.121 29.4542 131.576 65.7878 131.576Z" fill="white"/>
<path d="M102.393 53.0837C101.719 50.9239 100.84 48.8138 99.7908 46.8087C98.664 44.6545 96.2391 43.5939 93.897 44.2236L89.8315 45.3118C89.71 45.3449 89.6548 45.3284 89.5664 45.24L85.1198 40.7934C85.0314 40.705 85.0148 40.6497 85.048 40.5282L86.1361 36.4627C86.7658 34.1151 85.6998 31.6902 83.551 30.5689C81.5404 29.5194 79.4303 28.6411 77.276 27.9672C74.9616 27.2381 72.487 28.1992 71.2717 30.3093L69.1672 33.955C69.1064 34.0654 69.0512 34.0931 68.9297 34.0931H62.6436C62.5221 34.0931 62.4669 34.0654 62.4061 33.955L60.3016 30.3093C59.0863 28.2047 56.6228 27.2436 54.2973 27.9672C52.143 28.6411 50.0274 29.5194 48.0223 30.5689C45.868 31.6957 44.8075 34.1207 45.4372 36.4627L46.5253 40.5282C46.5585 40.6497 46.5419 40.705 46.4535 40.7934L42.0124 45.24C41.9241 45.3284 41.8688 45.3394 41.7473 45.3118L37.6873 44.2236C35.3453 43.5939 32.9204 44.6545 31.788 46.8087C30.7385 48.8138 29.8602 50.9294 29.1863 53.0837C28.4572 55.4037 29.4238 57.8728 31.5284 59.088L35.174 61.1926C35.2845 61.2533 35.3121 61.3086 35.3121 61.4687C35.3121 62.8607 36.4445 63.9931 37.8365 63.9931C39.2285 63.9931 40.3608 62.8607 40.3608 61.4687V61.4356C40.3608 59.5133 39.3666 57.7844 37.6984 56.8233L34.0527 54.7187C34.003 54.6911 33.992 54.658 34.0085 54.6027C34.594 52.7357 35.3563 50.9018 36.2677 49.1563C36.2898 49.1121 36.3175 49.09 36.3837 49.1066L40.4437 50.1948C42.2997 50.6919 44.2275 50.1782 45.5863 48.8138L50.0329 44.3672C51.3918 43.0084 51.911 41.0861 51.4139 39.2246L50.3257 35.1591C50.3146 35.1149 50.3312 35.0708 50.3699 35.0487C52.1099 34.1372 53.9437 33.375 55.8163 32.7894C55.8826 32.7674 55.9102 32.7894 55.9378 32.8336L58.0424 36.4793C59.0035 38.1475 60.7269 39.1418 62.6547 39.1418H68.9407C70.863 39.1418 72.5919 38.1475 73.553 36.4793L75.6576 32.8336C75.6852 32.7839 75.7183 32.7729 75.7736 32.7894C77.6406 33.375 79.4745 34.1372 81.22 35.0487C81.2697 35.0763 81.2863 35.1039 81.2697 35.1647L80.1815 39.2301C79.6844 41.0916 80.1981 43.0139 81.5569 44.3727L86.0036 48.8194C87.3624 50.1782 89.2847 50.6974 91.1462 50.1948L95.2061 49.1066C95.2724 49.09 95.3 49.1066 95.3221 49.1563C96.2336 50.8963 96.9903 52.7302 97.5813 54.6027C97.5979 54.658 97.5869 54.6856 97.5371 54.7187L93.8859 56.8233C92.2178 57.7844 91.2235 59.5133 91.2235 61.4687C91.2235 62.8607 92.3559 63.9931 93.7479 63.9931C95.1398 63.9931 96.2722 62.8607 96.2722 61.4246C96.2722 61.3086 96.2998 61.2588 96.4048 61.1926L100.05 59.088C102.155 57.8728 103.116 55.4037 102.387 53.0837H102.393Z" fill="#0077C8"/>
<path d="M52.7401 62.5072C53.9829 56.3151 59.468 51.8242 65.7817 51.8242C72.0953 51.8242 77.5804 56.3206 78.8232 62.5072C79.0607 63.6893 80.0992 64.5454 81.2979 64.5454C82.0601 64.5454 82.7727 64.2085 83.2588 63.6174C83.7394 63.0319 83.9272 62.2752 83.7835 61.5405C82.0822 52.9842 74.5092 46.77 65.7817 46.77C57.0541 46.77 49.4811 52.9842 47.7798 61.5405C47.6306 62.2752 47.824 63.0319 48.3045 63.6174C48.7906 64.2085 49.5032 64.5454 50.2655 64.5454C51.4641 64.5454 52.5026 63.6893 52.7401 62.5072Z" fill="#0077C8"/>
<path d="M93.1859 69.9312C92.4899 69.9312 91.8271 70.2239 91.3576 70.7376C90.8881 71.2513 90.6505 71.9418 90.7113 72.6378C90.7886 73.5271 90.8273 73.0355 90.8273 73.378C90.8273 87.4525 79.36 98.8977 65.2689 98.8977C59.9551 98.8977 54.8732 97.2958 50.5702 94.2688C49.8742 93.7772 48.9739 93.6777 48.1619 94.0147L41.9698 96.6661L44.6267 90.4408C44.9691 89.6399 44.8642 88.7285 44.345 87.9993C41.3345 83.7516 39.7437 78.6973 39.7437 73.3835C39.7437 73.041 39.7823 73.5161 39.8597 72.6433C39.9204 71.9473 39.6884 71.2569 39.2189 70.7431C38.7494 70.2294 38.081 69.9367 37.3906 69.9367C36.1035 69.9367 35.0209 70.942 34.9159 72.2235C34.8331 73.2951 34.7889 72.9416 34.7889 73.3835C34.7889 79.2442 36.4294 84.895 39.5393 89.7393L34.9877 100.411C34.5845 101.345 34.7944 102.416 35.518 103.14C36.2195 103.836 37.3464 104.051 38.2467 103.665L48.88 99.1076C53.7629 102.217 59.4193 103.864 65.2689 103.864C82.0998 103.864 95.7876 90.1923 95.7876 73.3835C95.7876 72.9471 95.7434 73.2951 95.6606 72.2235C95.5556 70.942 94.473 69.9422 93.1859 69.9422V69.9312Z" fill="#0077C8"/>
<path d="M51.3203 76.6978H81.0436C82.408 76.6978 83.5183 75.5875 83.5183 74.2232C83.5183 72.8588 82.408 71.7485 81.0436 71.7485H51.3203C49.956 71.7485 48.8457 72.8588 48.8457 74.2232C48.8457 75.5875 49.956 76.6978 51.3203 76.6978Z" fill="#0077C8"/>
</svg>
