<svg width="30" height="29" viewBox="0 0 30 29" fill="none" xmlns="http://www.w3.org/2000/svg">
<path d="M14.6606 0.0552404C14.5621 0.0513471 14.4638 0.0680467 14.3718 0.10434C14.2798 0.140634 14.1961 0.19576 14.1257 0.2663C14.0554 0.336841 13.9998 0.421332 13.9626 0.514575C13.9253 0.607818 13.9071 0.707795 13.9091 0.808479V3.65106H5.80902C5.68214 3.5743 5.53882 3.53044 5.39151 3.52319C5.26499 3.52743 5.14114 3.56149 5.02964 3.62269L4.69563 3.94956L0.255908 12.0935L0.130655 12.52C0.110567 13.2259 0.233777 13.9283 0.492526 14.5831C0.751276 15.238 1.13996 15.8311 1.63412 16.325C2.12828 16.819 2.71723 17.2032 3.36388 17.4534C4.01053 17.7036 4.70089 17.8143 5.39151 17.7787C6.07792 17.813 6.76377 17.7006 7.40525 17.4489C8.04673 17.1971 8.62975 16.8115 9.117 16.3165C9.60425 15.8216 9.98503 15.2284 10.235 14.5746C10.485 13.9209 10.5987 13.2211 10.5689 12.52L10.4575 12.122L6.68584 5.22876H13.8813V26.5481H5.21057C5.11371 26.5481 5.01779 26.5676 4.9283 26.6055C4.8388 26.6433 4.7575 26.6988 4.689 26.7687C4.62051 26.8387 4.56616 26.9217 4.52909 27.0131C4.49202 27.1045 4.47294 27.2024 4.47294 27.3014C4.47294 27.4003 4.49202 27.4982 4.52909 27.5896C4.56616 27.681 4.62051 27.764 4.689 27.834C4.7575 27.9039 4.8388 27.9595 4.9283 27.9973C5.01779 28.0352 5.11371 28.0547 5.21057 28.0547H24.055C24.2507 28.0547 24.4383 27.9753 24.5766 27.834C24.7149 27.6927 24.7927 27.5011 24.7927 27.3014C24.7927 27.1016 24.7149 26.91 24.5766 26.7687C24.4383 26.6275 24.2507 26.5481 24.055 26.5481H15.3705V5.22876H22.5658L18.7942 12.122L18.6828 12.4631C18.656 13.1788 18.7767 13.8923 19.037 14.5574C19.2972 15.2225 19.6914 15.8244 20.1938 16.3241C20.6963 16.8238 21.2959 17.2102 21.9538 17.4583C22.6118 17.7065 23.3134 17.8108 24.0133 17.7645C24.6955 17.7994 25.3772 17.6875 26.0143 17.436C26.6514 17.1844 27.2295 16.7988 27.7112 16.3042C28.1928 15.8097 28.5673 15.2171 28.8102 14.5652C29.0531 13.9132 29.159 13.2164 29.121 12.52L28.9958 12.0935L24.57 3.94956L24.2777 3.65106C24.1662 3.58986 24.0424 3.5558 23.9158 3.55156C23.7726 3.55684 23.6333 3.60103 23.5122 3.67951H15.3983V0.836933C15.4022 0.736938 15.3858 0.637188 15.3501 0.543983C15.3144 0.450778 15.2603 0.366124 15.191 0.295361C15.1217 0.224597 15.0388 0.169233 14.9475 0.132794C14.8562 0.0963547 14.7586 0.0796893 14.6606 0.083694M20.7009 11.7951L23.9158 5.8825L27.1447 11.7951H20.7009ZM2.17655 11.7951L5.39151 5.8825L8.60647 11.7951H2.17655ZM23.9019 16.3432C23.0387 16.3638 22.1968 16.0687 21.5281 15.5109C20.8594 14.9531 20.408 14.1695 20.2555 13.3017H27.5901C27.4286 14.1731 26.969 14.9574 26.2933 15.5146C25.6177 16.0717 24.7701 16.3654 23.9019 16.3432ZM5.36369 16.3432C4.50216 16.3633 3.66207 16.0677 2.99568 15.5097C2.32929 14.9517 1.88067 14.1684 1.73117 13.3017H9.05185C8.89032 14.1731 8.43069 14.9574 7.75506 15.5146C7.07943 16.0717 6.23184 16.3654 5.36369 16.3432Z" fill="white"/>
</svg>
