<svg xmlns="http://www.w3.org/2000/svg" width="32.166" height="32" viewBox="0 0 32.166 32">
  <path id="icon-news" d="M29.984.746H7.87a3.007,3.007,0,0,0-3.016,3v2H3.849a3.007,3.007,0,0,0-3.016,3v20a4.011,4.011,0,0,0,4.021,4H28.979a4.011,4.011,0,0,0,4.021-4v-25A3.008,3.008,0,0,0,29.984.746Zm1.005,28a2.008,2.008,0,0,1-2.01,2H4.855a2.008,2.008,0,0,1-2.01-2v-20a1,1,0,0,1,1.005-1H4.855v20a1.005,1.005,0,0,0,2.01,0v-24a1,1,0,0,1,1.005-1H29.984a1,1,0,0,1,1.005,1ZM19.931,13.25a.5.5,0,0,0,.5.5h8.042a.5.5,0,1,0,0-1H20.433A.5.5,0,0,0,19.931,13.25Zm.5-2.5a.5.5,0,1,1,0-1h8.042a.5.5,0,1,1,0,1Zm-.5-3.5a.5.5,0,0,0,.5.5h8.042a.5.5,0,1,0,0-1H20.433A.5.5,0,0,0,19.931,7.25ZM17.42,27.75a.5.5,0,1,1,0,1H9.378a.5.5,0,1,1,0-1Zm.5-2.5a.5.5,0,0,0-.5-.5H9.378a.5.5,0,1,0,0,1H17.42A.5.5,0,0,0,17.922,25.25Zm-.5-3.5a.5.5,0,1,1,0,1H9.378a.5.5,0,1,1,0-1Zm11.56,6.5a.5.5,0,0,0-.5-.5H20.435a.5.5,0,1,0,0,1h8.042A.5.5,0,0,0,28.979,28.25Zm-.5-3.5a.5.5,0,1,1,0,1H20.435a.5.5,0,1,1,0-1Zm.5-2.5a.5.5,0,0,0-.5-.5H20.435a.5.5,0,1,0,0,1h8.042A.5.5,0,0,0,28.979,22.25Zm-.5-6.5a.5.5,0,1,1,0,1H9.378a.5.5,0,1,1,0-1Zm.5,3.5a.5.5,0,0,0-.5-.5H9.378a.5.5,0,1,0,0,1h19.1A.5.5,0,0,0,28.979,19.25Zm-19.1-5.5h7.036a1,1,0,0,0,1.005-1v-7a1,1,0,0,0-1.005-1H9.881a1,1,0,0,0-1.005,1v7A1,1,0,0,0,9.881,13.746Zm6.031-7H10.886v5h5.026Z" transform="translate(-0.834 -0.746)" fill-rule="evenodd"/>
</svg>
