<?xml version="1.0" encoding="UTF-8" standalone="no"?>
<svg
   width="165"
   height="40"
   viewBox="0 0 165 40"
   fill="none"
   version="1.1"
   id="svg210"
   xml:space="preserve"
   xmlns="http://www.w3.org/2000/svg"
   xmlns:svg="http://www.w3.org/2000/svg"><g
     id="logo"
     clip-path="url(#clip0_3408_4651)"
     transform="translate(3.0028874,-29.153032)"><text
       xml:space="preserve"
       style="font-weight:bold;font-size:27.7593px;font-family:'Neue Haas Grotesk Display Pro';-inkscape-font-specification:'Neue Haas Grotesk Display Pro Bold';text-align:center;text-anchor:middle;fill:#ffffff;stroke:#000101;stroke-width:0"
       x="69.84568"
       y="46.260994"
       id="text985"
       transform="scale(0.88112437,1.1349136)"><tspan
         id="tspan983"
         x="69.84568"
         y="46.260994"
         style="stroke-width:0">RICHMOND</tspan></text></g><defs
     id="defs208"><clipPath
       id="clip0_3408_4651"><rect
         width="129.14301"
         height="24"
         fill="#ffffff"
         id="rect205"
         x="0"
         y="0" /></clipPath></defs><path
     style="fill:#ffffff;stroke-width:0.20062"
     d="m 98.606819,37.080934 c -7.477132,-0.55313 -13.240219,-1.45931 -22.414153,-3.52444 -3.917589,-0.88185 -8.429229,-1.80482 -9.785473,-2.00186 -0.38617,-0.0561 -1.111799,-0.18389 -1.612427,-0.28398 -1.080861,-0.21609 -6.887115,-0.94047 -9.01362,-1.12454 -9.459221,-0.81879 -20.987964,0.17269 -29.367424,2.52561 -1.177587,0.33068 -2.189359,0.60123 -2.248177,0.60123 -0.0587,0 -0.08071,-0.65354 -0.04769,-1.45232 l 0.0587,-1.45232 1.952619,-0.54096 c 1.073892,-0.29752 2.292689,-0.59476 2.70833,-0.66053 0.415763,-0.0658 1.071812,-0.20213 1.457983,-0.30302 1.018742,-0.26613 4.498923,-0.76847 8.61192,-1.24309 3.482383,-0.40183 15.065297,-0.32175 19.274409,0.13327 5.044917,0.54536 9.673828,1.34501 17.855311,3.08451 6.012667,1.27838 8.379949,1.74977 10.131289,2.01742 0.772464,0.11804 1.630036,0.25463 1.905907,0.30354 11.415753,2.02426 26.466497,1.79827 39.110467,-0.58725 6.09728,-1.15038 12.55714,-3.00089 17.51487,-5.01738 0.31451,-0.12793 0.35107,0.003 0.35107,1.26073 v 1.40352 l -1.95604,0.71007 c -6.16149,2.23668 -15.47947,4.49195 -21.61699,5.23202 -3.41916,0.4123 -6.20538,0.72324 -7.22229,0.80602 -2.52258,0.20533 -13.34685,0.28401 -15.648464,0.11375 z M 41.790964,18.465024 c -3.405344,-1.21043 -5.476945,-4.5327 -5.476945,-8.7834497 0,-2.11009 0.272936,-3.50285 0.979244,-4.99623 0.81942,-1.732622 2.008503,-2.97595 3.591215,-3.75513601 1.314056,-0.646888 1.39085,-0.65939 4.051978,-0.65939 2.550706,0 2.773139,0.0319 3.72487,0.534311 1.721748,0.90877201 3.224731,2.70574501 3.790169,4.53136501 0.136346,0.44007 0.102718,0.4514 -1.346094,0.4514 -1.351597,0 -1.504818,-0.0413 -1.694112,-0.45684 -1.3357,-2.93151 -5.911784,-3.537922 -8.415533,-1.115197 -0.349241,0.337837 -0.890345,1.168297 -1.202656,1.845467 -0.514324,1.11519 -0.567761,1.4392 -0.567761,3.43806 0,2.0123697 0.05136,2.3183397 0.583169,3.4723897 0.671579,1.45726 1.901259,2.65712 3.087285,3.01247 2.662962,0.79787 5.607543,-0.26233 6.553281,-2.35956 l 0.367462,-0.81506 h 1.496013 1.495891 l -0.133778,0.55171 c -0.470424,1.93893 -1.981845,3.77352 -3.878091,4.70722 -1.247167,0.61411 -1.497848,0.66309 -3.650766,0.71335 -1.839385,0.0429 -2.52466,-0.0218 -3.354841,-0.31688 z m 66.158666,-0.0329 c -1.55263,-0.57291 -2.56648,-1.33709 -3.55857,-2.68253 -1.07144,-1.45298 -1.67748,-3.30929 -1.81138,-5.54807 -0.24665,-4.1239597 1.58932,-7.7354497 4.71378,-9.27258471 1.305,-0.642046 1.40161,-0.658101 3.94914,-0.656091 2.46254,0.002 2.67665,0.03447 3.75519,0.570532 2.14974,1.06855501 3.7947,3.39374901 4.44842,6.28812401 1.05433,4.6679997 -0.83776,9.3765697 -4.44145,11.0531597 -1.01214,0.47086 -1.44086,0.54224 -3.5582,0.5924 -2.00875,0.0476 -2.58788,-0.01 -3.49693,-0.34493 z m 5.76003,-2.72913 c 1.73862,-0.86639 2.62518,-2.24234 3.06014,-4.74915 0.28174,-1.6236697 0.022,-3.5163197 -0.69506,-5.0656797 -1.45065,-3.133875 -4.996,-4.156609 -7.93839,-2.289998 -1.47375,0.934908 -2.26823,2.401438 -2.61123,4.820188 -0.4774,3.3656397 1.01519,6.6034897 3.43872,7.4599397 0.48278,0.1706 1.51461,0.3173 2.29282,0.32601 1.13968,0.0127 1.61719,-0.0849 2.453,-0.50131 z M 8.0264786,9.5996943 V 0.57174929 l 3.9622214,0.0032 c 5.44503,0.0043 6.912306,0.402576 8.183196,2.22115801 0.668523,0.956457 0.895358,1.818247 0.893035,3.391767 0,2.01827 -0.860507,3.62224 -2.45447,4.5913497 -0.615818,0.37445 -0.716335,0.52143 -0.558345,0.81653 0.106386,0.19794 1.098348,1.82711 2.205501,3.62039 1.107152,1.79327 2.012904,3.29814 2.012904,3.34414 0,0.046 -0.733821,0.0574 -1.630647,0.0254 l -1.630647,-0.0583 -2.133476,-3.51087 -2.133476,-3.51086 h -1.903461 -1.903339 l -0.05503,3.56102 -0.05503,3.56102 H 9.4257659 8.0259895 Z m 8.6226814,-0.95326 c 1.430225,-0.71858 1.980989,-2.38243 1.315646,-3.97483 -0.482163,-1.154023 -1.490511,-1.482069 -4.571682,-1.487377 l -2.557921,-0.0044 v 2.775257 c 0,1.52639 0.05992,2.83544 0.133655,2.909 0.07337,0.0736 1.224667,0.13361 2.557921,0.13344 1.907497,-2e-4 2.573085,-0.0751 3.122381,-0.35109 z m 10.93787,0.95335 V 0.57185729 l 1.404301,-5.4e-5 1.404423,-5.4e-5 V 9.5996943 18.627634 l -1.404423,4e-5 -1.404301,4e-5 z m 30.795325,-9e-5 V 0.57174929 h 1.404301 1.404423 v 3.71148701 3.711488 h 4.313297 4.313297 V 4.2832363 0.57174929 h 1.400388 1.400266 l 0.0538,9.02799501 0.0538,9.0279997 -1.462508,-6e-5 -1.462508,-5e-5 0.0587,-4.01263 0.0587,-4.01262 -4.363555,2e-4 -4.363433,2.1e-4 v 4.01242 4.01242 h -1.404424 -1.4043 z m 20.663913,0 V 0.57174929 h 1.712455 1.712332 l 0.368317,0.85263901 c 0.361103,0.835803 3.507817,7.706906 4.616804,10.0811957 l 0.562259,1.20373 0.536579,-1.19472 c 0.295191,-0.65709 1.542725,-3.3880497 2.772405,-6.0687797 l 2.235827,-4.87406501 h 1.669167 1.669166 V 9.5996943 18.627634 h -1.404423 -1.404301 v -6.25937 c 0,-3.4426597 -0.07215,-6.1736097 -0.16068,-6.0687897 -0.08804,0.10482 -0.861608,1.6802 -1.718324,3.50084 -0.856717,1.8206297 -2.161234,4.5572797 -2.898847,6.0814297 l -1.34108,2.77118 -2.957054,-6.28205 -2.956931,-6.2820497 v 6.2693997 6.26941 H 80.555243 79.05067 Z m 46.142852,-0.009 V 0.55395529 l 1.43988,0.05894 1.43977,0.05894 1.61964,2.35504801 c 0.89083,1.295279 2.74807,4.031229 4.12743,6.079899 1.37923,2.0486697 2.61771,3.8778297 2.7521,4.0648197 0.19419,0.27006 0.24567,-0.99052 0.25081,-6.1300497 l 0.0122,-6.47002901 h 1.4043 1.40443 V 9.5994723 18.627412 h -1.35649 -1.35649 l -0.49928,-0.80207 c -0.27428,-0.44114 -2.25943,-3.37916 -4.41113,-6.52894 l -3.91208,-5.7268697 -0.0526,6.5289397 -0.0526,6.52894 h -1.40162 -1.40161 V 9.5907023 Z m 20.56364,0.006 V 0.53404929 l 4.41369,0.08109 c 5.26173,0.09667 5.96828,0.283881 7.93154,2.10145001 3.92284,3.631879 3.67852,11.2537687 -0.45832,14.2960187 -1.79487,1.31998 -2.59876,1.48907 -7.47322,1.57184 l -4.41369,0.075 z m 8.44855,6.1260097 c 2.06267,-0.61255 3.36768,-2.36766 3.7415,-5.03221 0.39143,-2.7891297 -0.66167,-5.4607497 -2.61405,-6.6316307 -1.24729,-0.748073 -1.91104,-0.874372 -4.61069,-0.877269 l -2.05631,-0.0022 v 6.41987 6.4198697 h 2.27067 c 1.41898,0 2.64523,-0.11119 3.26888,-0.29641 z"
     id="path11198" /></svg>
